<svg width="18" height="18" viewBox="0 0 18 18" fill="none" xmlns="http://www.w3.org/2000/svg">
<mask id="mask0_3678_971" style="mask-type:alpha" maskUnits="userSpaceOnUse" x="0" y="0" width="18" height="18">
<rect x="0.693359" y="0.101562" width="17.0058" height="17.0058" fill="#D9D9D9"/>
</mask>
<g mask="url(#mask0_3678_971)">
<path d="M4.23624 15.6871C3.84653 15.6871 3.51291 15.5484 3.23538 15.2708C2.95785 14.9933 2.81909 14.6597 2.81909 14.27V4.34993C2.81909 3.96021 2.95785 3.62659 3.23538 3.34906C3.51291 3.07154 3.84653 2.93278 4.23624 2.93278H4.94482V1.51562H6.36197V2.93278H12.0306V1.51562H13.4477V2.93278H14.1563C14.546 2.93278 14.8796 3.07154 15.1572 3.34906C15.4347 3.62659 15.5735 3.96021 15.5735 4.34993V14.27C15.5735 14.6597 15.4347 14.9933 15.1572 15.2708C14.8796 15.5484 14.546 15.6871 14.1563 15.6871H4.23624ZM4.23624 14.27H14.1563V7.18423H4.23624V14.27ZM4.23624 5.76708H14.1563V4.34993H4.23624V5.76708ZM9.19627 10.0185C8.99551 10.0185 8.82722 9.95063 8.69141 9.81482C8.5556 9.67901 8.4877 9.51072 8.4877 9.30996C8.4877 9.10919 8.5556 8.94091 8.69141 8.8051C8.82722 8.66929 8.99551 8.60138 9.19627 8.60138C9.39704 8.60138 9.56532 8.66929 9.70113 8.8051C9.83694 8.94091 9.90485 9.10919 9.90485 9.30996C9.90485 9.51072 9.83694 9.67901 9.70113 9.81482C9.56532 9.95063 9.39704 10.0185 9.19627 10.0185ZM6.36197 10.0185C6.16121 10.0185 5.99292 9.95063 5.85711 9.81482C5.7213 9.67901 5.65339 9.51072 5.65339 9.30996C5.65339 9.10919 5.7213 8.94091 5.85711 8.8051C5.99292 8.66929 6.16121 8.60138 6.36197 8.60138C6.56273 8.60138 6.73102 8.66929 6.86683 8.8051C7.00264 8.94091 7.07055 9.10919 7.07055 9.30996C7.07055 9.51072 7.00264 9.67901 6.86683 9.81482C6.73102 9.95063 6.56273 10.0185 6.36197 10.0185ZM12.0306 10.0185C11.8298 10.0185 11.6615 9.95063 11.5257 9.81482C11.3899 9.67901 11.322 9.51072 11.322 9.30996C11.322 9.10919 11.3899 8.94091 11.5257 8.8051C11.6615 8.66929 11.8298 8.60138 12.0306 8.60138C12.2313 8.60138 12.3996 8.66929 12.5354 8.8051C12.6712 8.94091 12.7392 9.10919 12.7392 9.30996C12.7392 9.51072 12.6712 9.67901 12.5354 9.81482C12.3996 9.95063 12.2313 10.0185 12.0306 10.0185ZM9.19627 12.8528C8.99551 12.8528 8.82722 12.7849 8.69141 12.6491C8.5556 12.5133 8.4877 12.345 8.4877 12.1443C8.4877 11.9435 8.5556 11.7752 8.69141 11.6394C8.82722 11.5036 8.99551 11.4357 9.19627 11.4357C9.39704 11.4357 9.56532 11.5036 9.70113 11.6394C9.83694 11.7752 9.90485 11.9435 9.90485 12.1443C9.90485 12.345 9.83694 12.5133 9.70113 12.6491C9.56532 12.7849 9.39704 12.8528 9.19627 12.8528ZM6.36197 12.8528C6.16121 12.8528 5.99292 12.7849 5.85711 12.6491C5.7213 12.5133 5.65339 12.345 5.65339 12.1443C5.65339 11.9435 5.7213 11.7752 5.85711 11.6394C5.99292 11.5036 6.16121 11.4357 6.36197 11.4357C6.56273 11.4357 6.73102 11.5036 6.86683 11.6394C7.00264 11.7752 7.07055 11.9435 7.07055 12.1443C7.07055 12.345 7.00264 12.5133 6.86683 12.6491C6.73102 12.7849 6.56273 12.8528 6.36197 12.8528ZM12.0306 12.8528C11.8298 12.8528 11.6615 12.7849 11.5257 12.6491C11.3899 12.5133 11.322 12.345 11.322 12.1443C11.322 11.9435 11.3899 11.7752 11.5257 11.6394C11.6615 11.5036 11.8298 11.4357 12.0306 11.4357C12.2313 11.4357 12.3996 11.5036 12.5354 11.6394C12.6712 11.7752 12.7392 11.9435 12.7392 12.1443C12.7392 12.345 12.6712 12.5133 12.5354 12.6491C12.3996 12.7849 12.2313 12.8528 12.0306 12.8528Z" fill="black"/>
</g>
</svg>
