<svg width="408" height="238" viewBox="0 0 408 238" fill="none" xmlns="http://www.w3.org/2000/svg">
<rect x="70.0808" y="17.4375" width="6.60901" height="6.60901" rx="1.1015" transform="rotate(-25 70.0808 17.4375)" fill="#EB5757"/>
<rect y="22.6357" width="3.3045" height="3.3045" rx="1.1015" transform="rotate(-25 0 22.6357)" fill="#2D9CDB"/>
<rect x="193.705" y="3.91016" width="9.25261" height="9.25261" rx="1.1015" transform="rotate(-25 193.705 3.91016)" fill="#F2C94C"/>
<rect x="34.3165" y="46.6406" width="5.28721" height="5.28721" rx="1.1015" transform="rotate(-25 34.3165 46.6406)" fill="#2D9CDB"/>
<rect x="295.939" y="49.8184" width="6.60901" height="6.60901" rx="1.1015" transform="rotate(-25 295.939 49.8184)" fill="#27AE60"/>
<rect x="331.167" y="202.573" width="5.85226" height="5.85226" rx="1.21922" transform="rotate(-25 331.167 202.573)" fill="#EB5757"/>
<rect x="4.87195" y="146.229" width="5.56744" height="5.56744" rx="1.85581" transform="rotate(-25 4.87195 146.229)" fill="#2D9CDB"/>
<rect x="277" y="112.328" width="10.2415" height="10.2415" rx="1.21922" transform="rotate(-25 277 112.328)" fill="#6FCF97"/>
<path d="M34.9851 223.046C34.5519 222.117 34.9538 221.013 35.8827 220.58L40.5922 218.384C41.5211 217.951 42.6253 218.353 43.0584 219.282L45.2544 223.991C45.6876 224.92 45.2857 226.024 44.3568 226.457L39.6474 228.653C38.7185 229.086 37.6143 228.685 37.1811 227.756L34.9851 223.046Z" fill="#56CCF2"/>
<rect x="393.591" y="228.26" width="10.2415" height="10.2415" rx="1.21922" transform="rotate(-25 393.591 228.26)" fill="#9B51E0"/>
<path d="M144.053 65.5389L146.286 78.201L134.204 73.8035L144.053 65.5389Z" fill="#F2994A"/>
<path d="M101.772 156.687L114.434 158.919L106.169 168.769L101.772 156.687Z" fill="#F2C94C"/>
<circle cx="214.854" cy="46.2547" r="3.3045" fill="#2F80ED"/>
<circle cx="387.789" cy="38.8122" r="5.50751" fill="#F2C94C"/>
</svg>
