<svg width="24" height="24" viewBox="0 0 24 24" fill="#70778B" xmlns="http://www.w3.org/2000/svg">
<rect x="14" y="2" width="8.5" height="8.5" rx="2" fill="inherit"/>
<path fill-rule="inherit" clip-rule="evenodd" d="M2 4C2 2.89543 2.89543 2 4 2H8.5C9.60457 2 10.5 2.89543 10.5 4V8.5C10.5 9.60457 9.60457 10.5 8.5 10.5H4C2.89543 10.5 2 9.60457 2 8.5V4ZM2 15C2 13.8954 2.89543 13 4 13H8.5C9.60457 13 10.5 13.8954 10.5 15V19.5C10.5 20.6046 9.60457 21.5 8.5 21.5H4C2.89543 21.5 2 20.6046 2 19.5V15ZM16 13C14.8954 13 14 13.8954 14 15V19.5C14 20.6046 14.8954 21.5 16 21.5H20.5C21.6046 21.5 22.5 20.6046 22.5 19.5V15C22.5 13.8954 21.6046 13 20.5 13H16Z" fill="inherit"/>
</svg>
