<svg width="621" height="91" viewBox="0 0 621 91" fill="none" xmlns="http://www.w3.org/2000/svg">
<path d="M3.05176e-05 81.0104L0.00110481 18.6667L37.8961 56.1955L71.883 22.8931L84.3631 35.7782L38.078 81.0104L18.8251 62.4301L3.05176e-05 81.0104Z" fill="white"/>
<path d="M50.975 81.5H76.1571L76.1582 56.4403L50.975 81.5Z" fill="white"/>
<path d="M98.2056 38.2868L69.9507 9.5H98.2067L98.2056 38.2868Z" fill="white"/>
<path d="M118.981 71V32.907H130.513V39.9006H130.935C131.728 37.5859 133.067 35.759 134.952 34.4198C136.837 33.0806 139.086 32.411 141.698 32.411C144.343 32.411 146.608 33.0888 148.493 34.4446C150.378 35.8003 151.577 37.619 152.089 39.9006H152.486C153.197 37.6355 154.586 35.8251 156.652 34.4694C158.719 33.0971 161.158 32.411 163.968 32.411C167.573 32.411 170.499 33.5683 172.748 35.883C174.996 38.1811 176.121 41.339 176.121 45.3566V71H163.993V48.1343C163.993 46.2329 163.506 44.7862 162.53 43.7942C161.555 42.7857 160.29 42.2814 158.736 42.2814C157.066 42.2814 155.751 42.827 154.792 43.9182C153.85 44.9929 153.379 46.4396 153.379 48.2583V71H141.723V48.0103C141.723 46.2412 141.243 44.8441 140.284 43.819C139.325 42.794 138.061 42.2814 136.49 42.2814C135.432 42.2814 134.498 42.5377 133.687 43.0502C132.877 43.5462 132.241 44.2572 131.778 45.183C131.331 46.1089 131.108 47.2001 131.108 48.4567V71H118.981ZM194.373 71.6448C191.943 71.6448 189.785 71.2397 187.901 70.4296C186.032 69.6029 184.553 68.3629 183.461 66.7096C182.387 65.0397 181.849 62.9482 181.849 60.4351C181.849 58.3189 182.221 56.5332 182.965 55.0783C183.709 53.6234 184.734 52.4412 186.041 51.5319C187.347 50.6225 188.851 49.9364 190.554 49.4735C192.257 48.994 194.076 48.6716 196.01 48.5063C198.176 48.3079 199.92 48.1012 201.243 47.8863C202.566 47.6548 203.525 47.3324 204.12 46.9191C204.732 46.4892 205.037 45.8857 205.037 45.1086V44.9846C205.037 43.7116 204.599 42.7278 203.723 42.0334C202.847 41.339 201.665 40.9918 200.177 40.9918C198.573 40.9918 197.283 41.339 196.308 42.0334C195.332 42.7278 194.712 43.6868 194.448 44.9102L183.263 44.5134C183.594 42.1988 184.445 40.1321 185.817 38.3134C187.206 36.4782 189.108 35.0398 191.521 33.9982C193.952 32.94 196.87 32.411 200.276 32.411C202.706 32.411 204.947 32.7003 206.997 33.279C209.047 33.8411 210.832 34.6678 212.354 35.759C213.875 36.8337 215.048 38.1563 215.875 39.727C216.718 41.2977 217.14 43.0916 217.14 45.1086V71H205.732V65.6928H205.434C204.756 66.9824 203.888 68.0736 202.83 68.9664C201.789 69.8592 200.557 70.5288 199.135 70.9752C197.73 71.4216 196.143 71.6448 194.373 71.6448ZM198.118 63.7088C199.424 63.7088 200.598 63.4442 201.64 62.9152C202.698 62.3861 203.541 61.6586 204.169 60.7327C204.798 59.7903 205.112 58.6991 205.112 57.4591V53.8383C204.765 54.0202 204.343 54.1855 203.847 54.3343C203.368 54.4831 202.839 54.6236 202.26 54.7559C201.681 54.8882 201.086 55.0039 200.474 55.1031C199.863 55.2023 199.276 55.2932 198.713 55.3759C197.573 55.5578 196.597 55.8388 195.787 56.2191C194.993 56.5994 194.382 57.0954 193.952 57.7071C193.538 58.3023 193.332 59.0133 193.332 59.8399C193.332 61.0965 193.778 62.0554 194.671 62.7168C195.58 63.3781 196.729 63.7088 198.118 63.7088ZM235.492 61.0055L235.542 46.5471H237.228L247.942 32.907H261.681L245.759 52.4495H242.56L235.492 61.0055ZM224.555 71V20.2093H236.682V71H224.555ZM248.215 71L238.245 55.1775L246.231 46.5719L262.227 71H248.215ZM282.259 71.7192C278.274 71.7192 274.835 70.9339 271.942 69.3632C269.065 67.776 266.85 65.5192 265.296 62.5928C263.758 59.6498 262.989 56.153 262.989 52.1023C262.989 48.1673 263.766 44.7284 265.32 41.7854C266.875 38.8259 269.065 36.5278 271.892 34.891C274.72 33.2376 278.051 32.411 281.887 32.411C284.598 32.411 287.078 32.8326 289.327 33.6758C291.576 34.519 293.518 35.7673 295.155 37.4206C296.792 39.0739 298.065 41.1158 298.974 43.5462C299.884 45.9601 300.338 48.7295 300.338 51.8543V54.8799H267.23V47.8367H289.054C289.038 46.5471 288.732 45.398 288.137 44.3894C287.541 43.3809 286.723 42.5956 285.681 42.0334C284.656 41.4548 283.474 41.1654 282.135 41.1654C280.779 41.1654 279.564 41.4713 278.489 42.083C277.415 42.6782 276.563 43.4966 275.935 44.5382C275.307 45.5633 274.976 46.7289 274.943 48.0351V55.2023C274.943 56.7564 275.249 58.1205 275.861 59.2943C276.472 60.4517 277.34 61.3527 278.465 61.9975C279.589 62.6424 280.928 62.9648 282.482 62.9648C283.557 62.9648 284.532 62.816 285.409 62.5183C286.285 62.2207 287.037 61.7826 287.665 61.2039C288.294 60.6253 288.765 59.9143 289.079 59.0711L300.214 59.3935C299.751 61.8901 298.735 64.0642 297.164 65.916C295.61 67.7512 293.568 69.1813 291.038 70.2064C288.509 71.2149 285.582 71.7192 282.259 71.7192ZM306.532 71V32.907H318.064V39.9006H318.486C319.279 37.5859 320.619 35.759 322.503 34.4198C324.388 33.0806 326.637 32.411 329.249 32.411C331.894 32.411 334.159 33.0888 336.044 34.4446C337.929 35.8003 339.128 37.619 339.64 39.9006H340.037C340.748 37.6355 342.137 35.8251 344.204 34.4694C346.27 33.0971 348.709 32.411 351.52 32.411C355.124 32.411 358.05 33.5683 360.299 35.883C362.547 38.1811 363.672 41.339 363.672 45.3566V71H351.544V48.1343C351.544 46.2329 351.057 44.7862 350.081 43.7942C349.106 42.7857 347.841 42.2814 346.287 42.2814C344.617 42.2814 343.302 42.827 342.344 43.9182C341.401 44.9929 340.93 46.4396 340.93 48.2583V71H329.274V48.0103C329.274 46.2412 328.794 44.8441 327.835 43.819C326.876 42.794 325.612 42.2814 324.041 42.2814C322.983 42.2814 322.049 42.5377 321.239 43.0502C320.428 43.5462 319.792 44.2572 319.329 45.183C318.883 46.1089 318.659 47.2001 318.659 48.4567V71H306.532ZM377.237 85.2849C375.782 85.2849 374.41 85.1692 373.12 84.9377C371.831 84.7227 370.723 84.4334 369.797 84.0697L372.476 75.2656C373.666 75.6624 374.741 75.8939 375.7 75.96C376.675 76.0262 377.51 75.8691 378.205 75.4888C378.915 75.1251 379.461 74.472 379.841 73.5296L380.313 72.3888L366.772 32.907H379.469L386.488 60.0879H386.885L394.002 32.907H406.774L392.415 74.6456C391.721 76.7288 390.737 78.564 389.464 80.1513C388.207 81.755 386.579 83.0115 384.578 83.9209C382.594 84.8302 380.147 85.2849 377.237 85.2849ZM411.424 71V20.2093H423.552V39.4294H423.8C424.296 38.2721 424.998 37.1561 425.908 36.0814C426.833 35.0067 428.007 34.1304 429.429 33.4526C430.868 32.7582 432.587 32.411 434.588 32.411C437.233 32.411 439.705 33.1054 442.003 34.4942C444.318 35.883 446.186 38.0241 447.608 40.9174C449.03 43.8108 449.741 47.4977 449.741 51.9783C449.741 56.2935 449.054 59.9061 447.682 62.816C446.326 65.7258 444.491 67.9082 442.176 69.3632C439.878 70.8181 437.324 71.5456 434.513 71.5456C432.595 71.5456 430.934 71.2315 429.528 70.6032C428.123 69.9749 426.941 69.1483 425.982 68.1232C425.04 67.0981 424.312 65.9986 423.8 64.8248H423.428V71H411.424ZM423.304 51.9535C423.304 54.0036 423.576 55.7892 424.122 57.3103C424.684 58.8314 425.486 60.0135 426.528 60.8567C427.586 61.6834 428.851 62.0967 430.322 62.0967C431.81 62.0967 433.075 61.6834 434.116 60.8567C435.158 60.0135 435.943 58.8314 436.472 57.3103C437.018 55.7892 437.291 54.0036 437.291 51.9535C437.291 49.9033 437.018 48.126 436.472 46.6215C435.943 45.1169 435.158 43.9513 434.116 43.1246C433.091 42.298 431.827 41.8846 430.322 41.8846C428.834 41.8846 427.569 42.2897 426.528 43.0998C425.486 43.91 424.684 45.0673 424.122 46.5719C423.576 48.0764 423.304 49.8703 423.304 51.9535ZM480.673 54.5575V32.907H492.775V71H481.218V63.9072H480.821C479.978 66.2384 478.54 68.0901 476.506 69.4624C474.489 70.8181 472.05 71.496 469.19 71.496C466.594 71.496 464.313 70.9008 462.345 69.7104C460.378 68.52 458.848 66.8584 457.757 64.7256C456.666 62.5762 456.112 60.0631 456.096 57.1863V32.907H468.223V54.8055C468.239 56.8722 468.785 58.5007 469.86 59.6911C470.934 60.8815 472.398 61.4767 474.249 61.4767C475.456 61.4767 476.539 61.2122 477.498 60.6831C478.474 60.1375 479.242 59.3522 479.805 58.3271C480.383 57.2855 480.673 56.029 480.673 54.5575ZM518.276 71.7192C514.258 71.7192 510.811 70.8925 507.934 69.2392C505.074 67.5858 502.875 65.2877 501.337 62.3447C499.8 59.3853 499.031 55.9628 499.031 52.0775C499.031 48.1756 499.8 44.7532 501.337 41.8102C502.891 38.8507 505.099 36.5443 507.959 34.891C510.836 33.2376 514.266 32.411 518.251 32.411C521.773 32.411 524.84 33.0475 527.452 34.3206C530.081 35.5937 532.131 37.3958 533.602 39.727C535.09 42.0417 535.876 44.7614 535.958 47.8863H524.625C524.393 45.9353 523.732 44.406 522.641 43.2982C521.566 42.1905 520.161 41.6366 518.425 41.6366C517.019 41.6366 515.787 42.0334 514.729 42.827C513.671 43.6041 512.845 44.7614 512.249 46.2991C511.671 47.8201 511.381 49.7049 511.381 51.9535C511.381 54.202 511.671 56.1034 512.249 57.6575C512.845 59.1951 513.671 60.3607 514.729 61.1543C515.787 61.9314 517.019 62.3199 518.425 62.3199C519.549 62.3199 520.541 62.0802 521.401 61.6007C522.277 61.1213 522.996 60.4186 523.558 59.4927C524.12 58.5503 524.476 57.4095 524.625 56.0703H535.958C535.843 59.2117 535.057 61.9562 533.602 64.304C532.164 66.6517 530.138 68.4787 527.526 69.7848C524.93 71.0744 521.847 71.7192 518.276 71.7192ZM553.101 61.0055L553.151 46.5471H554.837L565.551 32.907H579.29L563.369 52.4495H560.169L553.101 61.0055ZM542.164 71V20.2093H554.292V71H542.164ZM565.824 71L555.854 55.1775L563.84 46.5719L579.836 71H565.824ZM616.887 44.5382L605.752 44.8358C605.636 44.0422 605.322 43.3396 604.81 42.7278C604.297 42.0996 603.628 41.6118 602.801 41.2646C601.991 40.9009 601.048 40.719 599.974 40.719C598.568 40.719 597.37 41.0001 596.378 41.5622C595.402 42.1244 594.923 42.8849 594.939 43.8438C594.923 44.5878 595.22 45.2326 595.832 45.7782C596.46 46.3239 597.576 46.762 599.18 47.0927L606.521 48.4815C610.324 49.2089 613.151 50.4159 615.003 52.1023C616.871 53.7887 617.813 56.0207 617.83 58.7983C617.813 61.4106 617.036 63.684 615.499 65.6184C613.977 67.5528 611.894 69.0573 609.249 70.132C606.604 71.1901 603.578 71.7192 600.172 71.7192C594.733 71.7192 590.442 70.6032 587.301 68.3712C584.176 66.1226 582.39 63.1136 581.944 59.3439L593.922 59.0463C594.187 60.4351 594.873 61.4933 595.981 62.2207C597.089 62.9482 598.502 63.312 600.222 63.312C601.776 63.312 603.041 63.0226 604.016 62.4439C604.992 61.8653 605.488 61.0965 605.504 60.1375C605.488 59.2778 605.107 58.5917 604.363 58.0791C603.619 57.5501 602.454 57.1367 600.866 56.8391L594.22 55.5743C590.401 54.8799 587.557 53.5986 585.689 51.7303C583.82 49.8455 582.895 47.4481 582.911 44.5382C582.895 41.9921 583.572 39.8179 584.945 38.0158C586.317 36.1971 588.268 34.8083 590.798 33.8494C593.327 32.8904 596.311 32.411 599.75 32.411C604.909 32.411 608.976 33.4939 611.952 35.6598C614.928 37.8091 616.573 40.7686 616.887 44.5382Z" fill="white"/>
</svg>
