<svg width="12" height="17" viewBox="0 0 12 17" fill="none" xmlns="http://www.w3.org/2000/svg">
<path d="M7.293 0.5H2C1.46957 0.5 0.960859 0.710714 0.585786 1.08579C0.210714 1.46086 0 1.96957 0 2.5V14.5C0 15.0304 0.210714 15.5391 0.585786 15.9142C0.960859 16.2893 1.46957 16.5 2 16.5H10C10.5304 16.5 11.0391 16.2893 11.4142 15.9142C11.7893 15.5391 12 15.0304 12 14.5V5.207C11.9999 4.9418 11.8945 4.68749 11.707 4.5L8 0.793C7.81251 0.605451 7.5582 0.500057 7.293 0.5ZM7.5 4V2L10.5 5H8.5C8.23478 5 7.98043 4.89464 7.79289 4.70711C7.60536 4.51957 7.5 4.26522 7.5 4ZM3.884 7.18L6 9.719L8.116 7.179C8.201 7.07716 8.32298 7.01325 8.4551 7.00134C8.58722 6.98943 8.71866 7.0305 8.8205 7.1155C8.92234 7.2005 8.98625 7.32248 8.99816 7.4546C9.01007 7.58672 8.969 7.71816 8.884 7.82L6.651 10.5L8.884 13.18C8.96513 13.2823 9.00306 13.4122 8.98969 13.542C8.97631 13.6719 8.91269 13.7913 8.81241 13.8749C8.71213 13.9585 8.58316 13.9995 8.45303 13.9892C8.3229 13.979 8.20195 13.9182 8.116 13.82L6 11.281L3.884 13.821C3.799 13.9228 3.67702 13.9867 3.5449 13.9987C3.41278 14.0106 3.28134 13.9695 3.1795 13.8845C3.07766 13.7995 3.01375 13.6775 3.00184 13.5454C2.98993 13.4133 3.031 13.2818 3.116 13.18L5.349 10.5L3.116 7.82C3.0721 7.76982 3.03868 7.71137 3.01771 7.64808C2.99673 7.5848 2.98862 7.51796 2.99386 7.45149C2.9991 7.38503 3.01758 7.32028 3.04821 7.26106C3.07884 7.20185 3.12101 7.14935 3.17223 7.10667C3.22344 7.06399 3.28268 7.03198 3.34645 7.01253C3.41022 6.99308 3.47724 6.98658 3.54356 6.99341C3.60988 7.00025 3.67416 7.02027 3.73263 7.05232C3.79109 7.08436 3.84256 7.12777 3.884 7.18Z" fill="#02AF1E"/>
</svg>
