<svg width="32" height="32" viewBox="0 0 32 32" fill="white" xmlns="http://www.w3.org/2000/svg">
<path d="M14.1952 4.5212C14.6109 4.18402 15.1298 4 15.665 4C16.2002 4 16.7192 4.18402 17.1348 4.5212L26.0329 11.7302C26.4375 12.0578 26.7639 12.4716 26.9883 12.9414C27.2127 13.4112 27.3295 13.9252 27.3301 14.4458V25.0003C27.3301 25.6191 27.0843 26.2125 26.6467 26.65C26.2092 27.0875 25.6158 27.3333 24.997 27.3333H21.4975C20.8788 27.3333 20.2854 27.0875 19.8479 26.65C19.4103 26.2125 19.1645 25.6191 19.1645 25.0003V19.1678C19.1645 18.8584 19.0416 18.5617 18.8229 18.343C18.6041 18.1242 18.3074 18.0013 17.998 18.0013H13.332C13.0226 18.0013 12.7259 18.1242 12.5072 18.343C12.2884 18.5617 12.1655 18.8584 12.1655 19.1678V25.0003C12.1655 25.6191 11.9197 26.2125 11.4822 26.65C11.0447 27.0875 10.4513 27.3333 9.83251 27.3333H6.33301C5.71425 27.3333 5.12084 27.0875 4.68332 26.65C4.2458 26.2125 4 25.6191 4 25.0003V14.4481C3.9999 13.9267 4.11631 13.4119 4.34074 12.9412C4.56517 12.4706 4.89194 12.056 5.29715 11.7279L14.1952 4.5212Z" fill="inherit"/>
</svg>