<svg width="18" height="18" viewBox="0 0 18 18" fill="#70778B" xmlns="http://www.w3.org/2000/svg">
<path d="M4.96125 15.75C4.61625 15.75 4.32825 15.6345 4.09725 15.4035C3.86575 15.172 3.75 14.8837 3.75 14.5387V3.46125C3.75 3.11625 3.86575 2.82825 4.09725 2.59725C4.32825 2.36575 4.61625 2.25 4.96125 2.25H13.0387C13.3837 2.25 13.6718 2.36575 13.9028 2.59725C14.1343 2.82825 14.25 3.11625 14.25 3.46125V14.5387C14.25 14.8837 14.1345 15.1718 13.9035 15.4028C13.672 15.6343 13.3837 15.75 13.0387 15.75H4.96125ZM5.79825 13.125H12.3173L10.2487 10.3845L8.409 12.6923L7.21725 11.2785L5.79825 13.125Z" fill="inherit"/>
</svg>
