<svg width="18" height="15" viewBox="0 0 18 15" fill="#232D42" xmlns="http://www.w3.org/2000/svg">
<path d="M13.5061 0.665527C11.91 0.665527 10.191 0.9926 9.00409 1.89205C7.81719 0.9926 6.09823 0.665527 4.50205 0.665527C3.31514 0.665527 2.05457 0.845417 0.998636 1.3115C0.401091 1.58133 0 2.16189 0 2.82421V12.0477C0 13.1107 0.998636 13.8956 2.03001 13.634C2.8322 13.4295 3.68349 13.3396 4.50205 13.3396C5.77899 13.3396 7.13779 13.5522 8.23465 14.0919C8.72579 14.3372 9.2824 14.3372 9.76535 14.0919C10.8622 13.544 12.221 13.3396 13.498 13.3396C14.3165 13.3396 15.1678 13.4295 15.97 13.634C17.0014 13.9038 18 13.1188 18 12.0477V2.82421C18 2.16189 17.5989 1.58133 17.0014 1.3115C15.9536 0.845417 14.693 0.665527 13.5061 0.665527ZM16.3711 11.0746C16.3711 11.5898 15.8963 11.9659 15.3888 11.8759C14.7749 11.7615 14.1364 11.7124 13.5061 11.7124C12.1146 11.7124 10.1091 12.2439 9.00409 12.9389V3.52741C10.1091 2.83239 12.1146 2.30089 13.5061 2.30089C14.2592 2.30089 15.0041 2.37448 15.7162 2.52984C16.0928 2.61161 16.3711 2.94686 16.3711 3.33117V11.0746Z" fill="inherit"/>
<path d="M10.6248 5.98846C10.3629 5.98846 10.1255 5.82493 10.0437 5.56327C9.93725 5.24437 10.1173 4.89277 10.4366 4.79465C11.6971 4.38581 13.3261 4.25498 14.824 4.42669C15.1596 4.46758 15.4052 4.77012 15.3643 5.10537C15.3233 5.44062 15.0205 5.68592 14.6849 5.64504C13.3588 5.48968 11.91 5.61233 10.8131 5.96393C10.7476 5.97211 10.6821 5.98846 10.6248 5.98846ZM10.6248 8.1635C10.3629 8.1635 10.1255 7.99996 10.0437 7.7383C9.93725 7.41941 10.1173 7.06781 10.4366 6.96968C11.689 6.56084 13.3261 6.43001 14.824 6.60173C15.1596 6.64261 15.4052 6.94515 15.3643 7.2804C15.3233 7.61565 15.0205 7.86096 14.6849 7.82007C13.3588 7.66471 11.91 7.78737 10.8131 8.13897C10.7516 8.15464 10.6883 8.16287 10.6248 8.1635ZM10.6248 10.3385C10.3629 10.3385 10.1255 10.175 10.0437 9.91334C9.93725 9.59444 10.1173 9.24284 10.4366 9.14472C11.689 8.73588 13.3261 8.60505 14.824 8.77676C15.1596 8.81765 15.4052 9.12019 15.3643 9.45544C15.3233 9.79069 15.0205 10.0278 14.6849 9.99511C13.3588 9.83975 11.91 9.9624 10.8131 10.314C10.7516 10.3297 10.6883 10.3379 10.6248 10.3385Z" fill="inherit"/>
</svg>
