<svg width="276" height="39" viewBox="0 0 276 39" fill="none" xmlns="http://www.w3.org/2000/svg">
<path d="M2.28882e-05 38.1185L0.000586143 5.4313L19.8691 25.1079L37.6887 7.64725L44.232 14.403L19.9645 38.1185L9.87012 28.3767L2.28882e-05 38.1185Z" fill="white"/>
<path d="M26.7266 38.3751H39.9297L39.9302 25.2361L26.7266 38.3751Z" fill="white"/>
<path d="M51.4898 15.7181L36.6756 0.625H51.4904L51.4898 15.7181Z" fill="white"/>
<path d="M60.3936 30V13.6744H65.3359V16.6717H65.5166C65.8567 15.6797 66.4306 14.8967 67.2384 14.3228C68.0462 13.7488 69.0099 13.4618 70.1294 13.4618C71.2631 13.4618 72.2339 13.7524 73.0417 14.3334C73.8494 14.9144 74.3631 15.6939 74.5828 16.6717H74.7529C75.0576 15.7009 75.6528 14.9251 76.5385 14.344C77.4242 13.7559 78.4693 13.4618 79.6739 13.4618C81.2186 13.4618 82.4728 13.9578 83.4365 14.9499C84.4001 15.9348 84.882 17.2882 84.882 19.01V30H79.6846V20.2004C79.6846 19.3855 79.4755 18.7655 79.0575 18.3404C78.6394 17.9082 78.0973 17.692 77.4313 17.692C76.7156 17.692 76.1523 17.9259 75.7413 18.3935C75.3374 18.8541 75.1355 19.4741 75.1355 20.2535V30H70.14V20.1473C70.14 19.3891 69.9346 18.7903 69.5236 18.351C69.1126 17.9117 68.5705 17.692 67.8974 17.692C67.4439 17.692 67.0436 17.8019 66.6964 18.0215C66.3492 18.2341 66.0764 18.5388 65.878 18.9356C65.6866 19.3324 65.591 19.8001 65.591 20.3386V30H60.3936ZM92.7046 30.2763C91.663 30.2763 90.7383 30.1027 89.9306 29.7555C89.1299 29.4013 88.4957 28.8698 88.028 28.1612C87.5675 27.4456 87.3372 26.5492 87.3372 25.4722C87.3372 24.5652 87.4966 23.8 87.8155 23.1764C88.1343 22.5529 88.5736 22.0462 89.1334 21.6565C89.6932 21.2668 90.338 20.9727 91.0678 20.7743C91.7977 20.5689 92.5771 20.4307 93.4061 20.3598C94.3344 20.2748 95.0819 20.1862 95.6488 20.0941C96.2156 19.9949 96.6266 19.8567 96.8817 19.6796C97.1439 19.4954 97.2749 19.2367 97.2749 18.9037V18.8506C97.2749 18.305 97.0872 17.8834 96.7116 17.5858C96.3361 17.2882 95.8294 17.1394 95.1917 17.1394C94.5044 17.1394 93.9517 17.2882 93.5337 17.5858C93.1156 17.8834 92.8499 18.2943 92.7365 18.8187L87.943 18.6486C88.0847 17.6566 88.4496 16.7709 89.0377 15.9915C89.633 15.2049 90.4478 14.5885 91.4823 14.1421C92.5239 13.6886 93.7746 13.4618 95.2342 13.4618C96.2758 13.4618 97.236 13.5858 98.1146 13.8338C98.9932 14.0748 99.7585 14.4291 100.41 14.8967C101.062 15.3573 101.565 15.9241 101.92 16.5973C102.281 17.2704 102.462 18.0392 102.462 18.9037V30H97.5725V27.7255H97.445C97.1545 28.2782 96.7825 28.7458 96.329 29.1285C95.8826 29.5111 95.3547 29.7981 94.7453 29.9894C94.143 30.1807 93.4628 30.2763 92.7046 30.2763ZM94.3096 26.8752C94.8693 26.8752 95.3724 26.7618 95.8188 26.5351C96.2723 26.3083 96.6337 25.9965 96.9029 25.5997C97.1722 25.1959 97.3068 24.7282 97.3068 24.1968V22.645C97.158 22.7229 96.9773 22.7938 96.7648 22.8576C96.5593 22.9213 96.3325 22.9816 96.0845 23.0382C95.8365 23.0949 95.5814 23.1445 95.3193 23.187C95.0571 23.2296 94.8056 23.2685 94.5646 23.304C94.0757 23.3819 93.6577 23.5024 93.3105 23.6653C92.9703 23.8283 92.7082 24.0409 92.5239 24.3031C92.3468 24.5581 92.2582 24.8628 92.2582 25.2171C92.2582 25.7556 92.4495 26.1666 92.8322 26.45C93.2219 26.7335 93.7143 26.8752 94.3096 26.8752ZM110.327 25.7167L110.348 19.5202H111.071L115.662 13.6744H121.551L114.727 22.0498H113.356L110.327 25.7167ZM105.64 30V8.23256H110.837V30H105.64ZM115.779 30L111.507 23.2189L114.929 19.5308L121.785 30H115.779ZM130.37 30.3082C128.662 30.3082 127.188 29.9717 125.948 29.2985C124.715 28.6183 123.766 27.6511 123.1 26.3969C122.441 25.1356 122.111 23.637 122.111 21.901C122.111 20.2146 122.444 18.7407 123.11 17.4795C123.777 16.2111 124.715 15.2262 125.927 14.5247C127.139 13.8161 128.567 13.4618 130.21 13.4618C131.372 13.4618 132.435 13.6425 133.399 14.0039C134.363 14.3653 135.195 14.9003 135.897 15.6088C136.598 16.3174 137.144 17.1925 137.534 18.2341C137.923 19.2686 138.118 20.4555 138.118 21.7947V23.0914H123.929V20.0729H133.282C133.275 19.5202 133.144 19.0277 132.889 18.5955C132.634 18.1632 132.283 17.8267 131.837 17.5858C131.397 17.3378 130.891 17.2138 130.317 17.2138C129.736 17.2138 129.215 17.3448 128.754 17.607C128.294 17.8621 127.929 18.2128 127.66 18.6592C127.39 19.0986 127.249 19.5981 127.234 20.1579V23.2296C127.234 23.8956 127.365 24.4802 127.628 24.9833C127.89 25.4793 128.262 25.8655 128.744 26.1418C129.225 26.4182 129.799 26.5563 130.466 26.5563C130.926 26.5563 131.344 26.4926 131.72 26.365C132.095 26.2375 132.418 26.0497 132.687 25.8017C132.956 25.5537 133.158 25.249 133.293 24.8876L138.065 25.0258C137.867 26.0957 137.431 27.0275 136.758 27.8211C136.092 28.6076 135.217 29.2206 134.132 29.6599C133.048 30.0921 131.794 30.3082 130.37 30.3082ZM140.773 30V13.6744H145.715V16.6717H145.896C146.236 15.6797 146.81 14.8967 147.617 14.3228C148.425 13.7488 149.389 13.4618 150.508 13.4618C151.642 13.4618 152.613 13.7524 153.421 14.3334C154.228 14.9144 154.742 15.6939 154.962 16.6717H155.132C155.437 15.7009 156.032 14.9251 156.918 14.344C157.803 13.7559 158.848 13.4618 160.053 13.4618C161.598 13.4618 162.852 13.9578 163.816 14.9499C164.779 15.9348 165.261 17.2882 165.261 19.01V30H160.064V20.2004C160.064 19.3855 159.855 18.7655 159.437 18.3404C159.018 17.9082 158.476 17.692 157.81 17.692C157.095 17.692 156.531 17.9259 156.12 18.3935C155.716 18.8541 155.515 19.4741 155.515 20.2535V30H150.519V20.1473C150.519 19.3891 150.314 18.7903 149.903 18.351C149.492 17.9117 148.95 17.692 148.276 17.692C147.823 17.692 147.423 17.8019 147.075 18.0215C146.728 18.2341 146.455 18.5388 146.257 18.9356C146.066 19.3324 145.97 19.8001 145.97 20.3386V30H140.773ZM171.075 36.1221C170.451 36.1221 169.863 36.0725 169.311 35.9733C168.758 35.8812 168.283 35.7572 167.886 35.6013L169.034 31.8281C169.544 31.9982 170.005 32.0974 170.416 32.1257C170.834 32.1541 171.192 32.0868 171.489 31.9238C171.794 31.7679 172.028 31.488 172.191 31.0841L172.393 30.5952L166.59 13.6744H172.031L175.039 25.3234H175.209L178.26 13.6744H183.734L177.58 31.5624C177.282 32.4552 176.86 33.2417 176.315 33.922C175.776 34.6093 175.078 35.1478 174.221 35.5375C173.371 35.9272 172.322 36.1221 171.075 36.1221ZM185.726 30V8.23256H190.924V16.4697H191.03C191.243 15.9737 191.544 15.4955 191.934 15.0349C192.33 14.5743 192.833 14.1988 193.443 13.9082C194.059 13.6106 194.796 13.4618 195.654 13.4618C196.787 13.4618 197.847 13.7594 198.832 14.3547C199.824 14.9499 200.624 15.8675 201.234 17.1075C201.843 18.3475 202.148 19.9276 202.148 21.8478C202.148 23.6972 201.854 25.2455 201.265 26.4926C200.684 27.7396 199.898 28.675 198.906 29.2985C197.921 29.9221 196.826 30.2338 195.622 30.2338C194.8 30.2338 194.088 30.0992 193.485 29.8299C192.883 29.5607 192.376 29.2064 191.965 28.7671C191.562 28.3278 191.25 27.8566 191.03 27.3535H190.871V30H185.726ZM190.818 21.8372C190.818 22.7158 190.934 23.4811 191.168 24.133C191.409 24.7849 191.753 25.2915 192.199 25.6529C192.653 26.0072 193.195 26.1843 193.825 26.1843C194.463 26.1843 195.005 26.0072 195.452 25.6529C195.898 25.2915 196.235 24.7849 196.461 24.133C196.695 23.4811 196.812 22.7158 196.812 21.8372C196.812 20.9586 196.695 20.1969 196.461 19.5521C196.235 18.9072 195.898 18.4077 195.452 18.0534C195.012 17.6991 194.47 17.522 193.825 17.522C193.188 17.522 192.646 17.6956 192.199 18.0428C191.753 18.39 191.409 18.886 191.168 19.5308C190.934 20.1756 190.818 20.9444 190.818 21.8372ZM215.404 22.9532V13.6744H220.591V30H215.638V26.9602H215.468C215.107 27.9593 214.49 28.7529 213.619 29.341C212.754 29.9221 211.709 30.2126 210.483 30.2126C209.371 30.2126 208.393 29.9575 207.55 29.4473C206.706 28.9371 206.051 28.225 205.583 27.311C205.116 26.3898 204.878 25.3128 204.871 24.0799V13.6744H210.069V23.0595C210.076 23.9452 210.31 24.6432 210.77 25.1533C211.231 25.6635 211.858 25.9186 212.651 25.9186C213.169 25.9186 213.633 25.8052 214.044 25.5785C214.462 25.3447 214.791 25.0081 215.032 24.5688C215.28 24.1224 215.404 23.5838 215.404 22.9532ZM231.52 30.3082C229.798 30.3082 228.321 29.9539 227.088 29.2454C225.862 28.5368 224.92 27.5519 224.261 26.2906C223.602 25.0223 223.272 23.5555 223.272 21.8904C223.272 20.2181 223.602 18.7514 224.261 17.4901C224.927 16.2217 225.873 15.2333 227.098 14.5247C228.331 13.8161 229.802 13.4618 231.509 13.4618C233.019 13.4618 234.333 13.7346 235.452 14.2803C236.579 14.8259 237.458 15.5982 238.088 16.5973C238.726 17.5893 239.063 18.7549 239.098 20.0941H234.241C234.142 19.258 233.858 18.6026 233.391 18.1278C232.93 17.6531 232.328 17.4157 231.584 17.4157C230.981 17.4157 230.453 17.5858 230 17.9259C229.547 18.2589 229.192 18.7549 228.937 19.4139C228.689 20.0658 228.565 20.8735 228.565 21.8372C228.565 22.8009 228.689 23.6157 228.937 24.2818C229.192 24.9408 229.547 25.4403 230 25.7804C230.453 26.1135 230.981 26.28 231.584 26.28C232.065 26.28 232.491 26.1772 232.859 25.9717C233.235 25.7663 233.543 25.4651 233.784 25.0683C234.025 24.6644 234.177 24.1755 234.241 23.6016H239.098C239.049 24.9479 238.712 26.1241 238.088 27.1303C237.472 28.1364 236.604 28.9194 235.484 29.4792C234.372 30.0319 233.05 30.3082 231.52 30.3082ZM246.445 25.7167L246.466 19.5202H247.189L251.781 13.6744H257.669L250.845 22.0498H249.474L246.445 25.7167ZM241.758 30V8.23256H246.955V30H241.758ZM251.898 30L247.625 23.2189L251.047 19.5308L257.903 30H251.898ZM273.782 18.6592L269.01 18.7868C268.96 18.4467 268.825 18.1455 268.606 17.8834C268.386 17.6141 268.099 17.4051 267.745 17.2563C267.398 17.1004 266.994 17.0224 266.533 17.0224C265.931 17.0224 265.417 17.1429 264.992 17.3838C264.574 17.6247 264.369 17.9507 264.376 18.3616C264.369 18.6805 264.496 18.9568 264.758 19.1907C265.028 19.4245 265.506 19.6123 266.193 19.754L269.339 20.3492C270.969 20.661 272.181 21.1782 272.974 21.901C273.775 22.6237 274.179 23.5803 274.186 24.7707C274.179 25.8903 273.846 26.8646 273.187 27.6936C272.535 28.5226 271.642 29.1674 270.508 29.628C269.375 30.0815 268.078 30.3082 266.618 30.3082C264.287 30.3082 262.448 29.8299 261.102 28.8734C259.763 27.9097 258.998 26.6201 258.806 25.0045L263.94 24.877C264.053 25.4722 264.347 25.9257 264.822 26.2375C265.297 26.5492 265.903 26.7051 266.64 26.7051C267.306 26.7051 267.848 26.5811 268.266 26.3331C268.684 26.0851 268.896 25.7556 268.903 25.3447C268.896 24.9762 268.733 24.6821 268.415 24.4625C268.096 24.2357 267.596 24.0586 266.916 23.9311L264.067 23.389C262.431 23.0914 261.212 22.5422 260.411 21.7416C259.61 20.9338 259.214 19.9063 259.221 18.6592C259.214 17.568 259.504 16.6363 260.092 15.8639C260.68 15.0845 261.517 14.4893 262.601 14.0783C263.685 13.6673 264.964 13.4618 266.438 13.4618C268.648 13.4618 270.391 13.926 271.667 14.8542C272.942 15.7753 273.647 17.0437 273.782 18.6592Z" fill="white"/>
</svg>
