<svg width="18" height="18" viewBox="0 0 18 18" fill="#8A92A6" xmlns="http://www.w3.org/2000/svg">
<path d="M9 8.4375C11.0711 8.4375 12.75 6.75857 12.75 4.6875C12.75 2.61643 11.0711 0.9375 9 0.9375C6.92893 0.9375 5.25 2.61643 5.25 4.6875C5.25 6.75857 6.92893 8.4375 9 8.4375Z" fill="inherit"/>
<path fill-rule="evenodd" clip-rule="evenodd" d="M15.5625 14.625V15.75C15.5625 16.4745 14.9753 17.0625 14.25 17.0625H3.75C3.02475 17.0625 2.4375 16.4745 2.4375 15.75V14.625C2.4375 11.415 5.04 8.8125 8.25 8.8125H9.75C12.96 8.8125 15.5625 11.415 15.5625 14.625ZM14.4375 14.625C14.4375 12.036 12.339 9.9375 9.75 9.9375H8.25C5.661 9.9375 3.5625 12.036 3.5625 14.625V15.75C3.5625 15.8535 3.6465 15.9375 3.75 15.9375H14.25C14.3535 15.9375 14.4375 15.8535 14.4375 15.75V14.625Z" fill="inherit"/>
<path fill-rule="evenodd" clip-rule="evenodd" d="M7.125 9.1875H10.875C11.0775 9.1875 11.265 9.29625 11.3648 9.4725C11.4645 9.6495 11.4615 9.8655 11.3573 10.0395L10.2323 11.9145C10.131 12.084 9.94725 12.1875 9.75 12.1875H8.25C8.05275 12.1875 7.869 12.084 7.76775 11.9145L6.64275 10.0395C6.5385 9.8655 6.5355 9.6495 6.63525 9.4725C6.735 9.29625 6.9225 9.1875 7.125 9.1875ZM10.4018 12.7642L10.686 16.4565C10.698 16.6132 10.644 16.767 10.5375 16.8825C10.431 16.9973 10.2818 17.0625 10.125 17.0625H7.875C7.71825 17.0625 7.569 16.9973 7.4625 16.8825C7.356 16.767 7.302 16.6132 7.314 16.4565L7.59825 12.7642C7.79325 12.876 8.0175 12.9375 8.25 12.9375H9.75C9.9825 12.9375 10.2068 12.876 10.4018 12.7642Z" fill="inherit"/>
</svg>
