<svg width="27" height="27" viewBox="0 0 27 27" fill="#605DAA" xmlns="http://www.w3.org/2000/svg">
<g clip-path="url(#clip0_394_6052)">
<path d="M7.00959 17.0842L6.02465 21.335C5.99067 21.4904 5.99184 21.6514 6.02806 21.8063C6.06428 21.9612 6.13464 22.106 6.23401 22.2302C6.33337 22.3544 6.45923 22.4549 6.60238 22.5242C6.74554 22.5935 6.90238 22.63 7.06143 22.631C7.13555 22.6385 7.21023 22.6385 7.28434 22.631L11.5611 21.646L19.7724 13.4658L15.1898 8.89355L7.00959 17.0842Z" fill="inherit"/>
<path d="M22.3539 9.3709L19.2953 6.31238C19.0943 6.11231 18.8221 6 18.5385 6C18.2548 6 17.9827 6.11231 17.7816 6.31238L16.0813 8.01271L20.6587 12.5901L22.359 10.8898C22.4585 10.7898 22.5374 10.6711 22.591 10.5406C22.6446 10.4101 22.6719 10.2703 22.6714 10.1293C22.6709 9.98819 22.6426 9.84859 22.5881 9.71846C22.5337 9.58833 22.454 9.47022 22.3539 9.3709Z" fill="inherit"/>
</g>
<defs>
<clipPath id="clip0_394_6052">
<rect width="27" height="27" fill="white"/>
</clipPath>
</defs>
</svg>
