<svg width="505" height="219" viewBox="0 0 505 219" fill="none" xmlns="http://www.w3.org/2000/svg">
<path d="M203.396 71.6691L203.398 9.32539L241.293 46.8543L275.28 13.5518L287.76 26.4369L241.474 71.6691L222.222 53.0888L203.396 71.6691Z" fill="white"/>
<path d="M254.372 72.1587H279.554L279.555 47.099L254.372 72.1587Z" fill="white"/>
<path d="M301.602 28.9455L273.347 0.158722H301.603L301.602 28.9455Z" fill="white"/>
<path d="M3.84402 160.089V121.996H15.3761V128.99H15.7977C16.5913 126.675 17.9305 124.848 19.8153 123.509C21.7001 122.17 23.9487 121.5 26.561 121.5C29.2063 121.5 31.4714 122.178 33.3562 123.534C35.241 124.889 36.4397 126.708 36.9522 128.99H37.349C38.06 126.724 39.4488 124.914 41.5154 123.558C43.5821 122.186 46.0208 121.5 48.8315 121.5C52.4358 121.5 55.3622 122.657 57.6107 124.972C59.8593 127.27 60.9836 130.428 60.9836 134.446V160.089H48.8563V137.223C48.8563 135.322 48.3686 133.875 47.3931 132.883C46.4176 131.875 45.1528 131.37 43.5987 131.37C41.9288 131.37 40.6144 131.916 39.6554 133.007C38.713 134.082 38.2418 135.529 38.2418 137.347V160.089H26.5858V137.099C26.5858 135.33 26.1063 133.933 25.1473 132.908C24.1884 131.883 22.9236 131.37 21.3529 131.37C20.2948 131.37 19.3606 131.627 18.5505 132.139C17.7404 132.635 17.1038 133.346 16.6409 134.272C16.1945 135.198 15.9713 136.289 15.9713 137.546V160.089H3.84402ZM79.2365 160.734C76.8061 160.734 74.6484 160.329 72.7636 159.519C70.8954 158.692 69.4156 157.452 68.3244 155.799C67.2497 154.129 66.7124 152.037 66.7124 149.524C66.7124 147.408 67.0844 145.622 67.8284 144.167C68.5724 142.712 69.5975 141.53 70.9036 140.621C72.2098 139.712 73.7143 139.025 75.4172 138.562C77.1202 138.083 78.9389 137.761 80.8733 137.595C83.0392 137.397 84.7834 137.19 86.1061 136.975C87.4288 136.744 88.3877 136.421 88.9829 136.008C89.5947 135.578 89.9005 134.975 89.9005 134.198V134.074C89.9005 132.801 89.4624 131.817 88.5861 131.122C87.7099 130.428 86.5277 130.081 85.0397 130.081C83.436 130.081 82.1464 130.428 81.1709 131.122C80.1954 131.817 79.5754 132.776 79.3109 133.999L68.126 133.602C68.4567 131.288 69.3081 129.221 70.6804 127.402C72.0692 125.567 73.9706 124.129 76.3845 123.087C78.8149 122.029 81.733 121.5 85.1389 121.5C87.5693 121.5 89.8096 121.789 91.8597 122.368C93.9099 122.93 95.6955 123.757 97.2166 124.848C98.7377 125.923 99.9115 127.245 100.738 128.816C101.581 130.387 102.003 132.181 102.003 134.198V160.089H90.5949V154.782H90.2973C89.6195 156.071 88.7515 157.163 87.6933 158.055C86.6517 158.948 85.42 159.618 83.9981 160.064C82.5928 160.511 81.0055 160.734 79.2365 160.734ZM82.9813 152.798C84.2874 152.798 85.4613 152.533 86.5029 152.004C87.5611 151.475 88.4043 150.748 89.0325 149.822C89.6608 148.879 89.9749 147.788 89.9749 146.548V142.927C89.6277 143.109 89.2061 143.274 88.7101 143.423C88.2307 143.572 87.7016 143.713 87.1229 143.845C86.5442 143.977 85.949 144.093 85.3373 144.192C84.7256 144.291 84.1386 144.382 83.5765 144.465C82.4357 144.647 81.4602 144.928 80.6501 145.308C79.8565 145.688 79.2447 146.184 78.8149 146.796C78.4015 147.391 78.1949 148.102 78.1949 148.929C78.1949 150.185 78.6413 151.144 79.5341 151.806C80.4434 152.467 81.5925 152.798 82.9813 152.798ZM120.355 150.094L120.405 135.636H122.091L132.805 121.996H146.544L130.622 141.538H127.423L120.355 150.094ZM109.418 160.089V109.298H121.546V160.089H109.418ZM133.078 160.089L123.108 144.266L131.094 135.661L147.09 160.089H133.078ZM167.122 160.808C163.137 160.808 159.698 160.023 156.805 158.452C153.928 156.865 151.713 154.608 150.159 151.682C148.621 148.739 147.852 145.242 147.852 141.191C147.852 137.256 148.629 133.817 150.183 130.874C151.738 127.915 153.928 125.617 156.756 123.98C159.583 122.327 162.914 121.5 166.75 121.5C169.461 121.5 171.941 121.922 174.19 122.765C176.439 123.608 178.381 124.856 180.018 126.51C181.655 128.163 182.928 130.205 183.837 132.635C184.747 135.049 185.201 137.818 185.201 140.943V143.969H152.093V136.926H173.917C173.901 135.636 173.595 134.487 173 133.478C172.404 132.47 171.586 131.685 170.544 131.122C169.519 130.544 168.337 130.254 166.998 130.254C165.642 130.254 164.427 130.56 163.352 131.172C162.278 131.767 161.426 132.586 160.798 133.627C160.17 134.652 159.839 135.818 159.806 137.124V144.291C159.806 145.845 160.112 147.209 160.724 148.383C161.335 149.541 162.203 150.442 163.328 151.087C164.452 151.731 165.791 152.054 167.345 152.054C168.42 152.054 169.395 151.905 170.272 151.607C171.148 151.31 171.9 150.872 172.528 150.293C173.157 149.714 173.628 149.003 173.942 148.16L185.077 148.482C184.614 150.979 183.598 153.153 182.027 155.005C180.473 156.84 178.431 158.27 175.901 159.295C173.372 160.304 170.445 160.808 167.122 160.808ZM191.395 160.089V121.996H202.927V128.99H203.349C204.142 126.675 205.482 124.848 207.366 123.509C209.251 122.17 211.5 121.5 214.112 121.5C216.757 121.5 219.023 122.178 220.907 123.534C222.792 124.889 223.991 126.708 224.503 128.99H224.9C225.611 126.724 227 124.914 229.067 123.558C231.133 122.186 233.572 121.5 236.383 121.5C239.987 121.5 242.913 122.657 245.162 124.972C247.41 127.27 248.535 130.428 248.535 134.446V160.089H236.407V137.223C236.407 135.322 235.92 133.875 234.944 132.883C233.969 131.875 232.704 131.37 231.15 131.37C229.48 131.37 228.165 131.916 227.207 133.007C226.264 134.082 225.793 135.529 225.793 137.347V160.089H214.137V137.099C214.137 135.33 213.657 133.933 212.698 132.908C211.74 131.883 210.475 131.37 208.904 131.37C207.846 131.37 206.912 131.627 206.102 132.139C205.291 132.635 204.655 133.346 204.192 134.272C203.746 135.198 203.522 136.289 203.522 137.546V160.089H191.395ZM262.1 174.374C260.645 174.374 259.273 174.258 257.984 174.027C256.694 173.812 255.586 173.522 254.66 173.159L257.339 164.355C258.529 164.751 259.604 164.983 260.563 165.049C261.538 165.115 262.373 164.958 263.068 164.578C263.778 164.214 264.324 163.561 264.704 162.619L265.176 161.478L251.635 121.996H264.332L271.351 149.177H271.748L278.865 121.996H291.637L277.278 163.735C276.584 165.818 275.6 167.653 274.327 169.24C273.07 170.844 271.442 172.1 269.441 173.01C267.457 173.919 265.01 174.374 262.1 174.374ZM296.287 160.089V109.298H308.415V128.518H308.663C309.159 127.361 309.861 126.245 310.771 125.17C311.697 124.096 312.87 123.219 314.292 122.542C315.731 121.847 317.45 121.5 319.451 121.5C322.096 121.5 324.568 122.194 326.866 123.583C329.181 124.972 331.049 127.113 332.471 130.006C333.893 132.9 334.604 136.587 334.604 141.067C334.604 145.382 333.917 148.995 332.545 151.905C331.189 154.815 329.354 156.997 327.04 158.452C324.741 159.907 322.187 160.635 319.376 160.635C317.458 160.635 315.797 160.32 314.391 159.692C312.986 159.064 311.804 158.237 310.845 157.212C309.903 156.187 309.175 155.088 308.663 153.914H308.291V160.089H296.287ZM308.167 141.042C308.167 143.093 308.439 144.878 308.985 146.399C309.547 147.92 310.349 149.102 311.391 149.946C312.449 150.772 313.714 151.186 315.185 151.186C316.673 151.186 317.938 150.772 318.979 149.946C320.021 149.102 320.806 147.92 321.336 146.399C321.881 144.878 322.154 143.093 322.154 141.042C322.154 138.992 321.881 137.215 321.336 135.71C320.806 134.206 320.021 133.04 318.979 132.214C317.954 131.387 316.69 130.974 315.185 130.974C313.697 130.974 312.432 131.379 311.391 132.189C310.349 132.999 309.547 134.156 308.985 135.661C308.439 137.165 308.167 138.959 308.167 141.042ZM365.536 143.646V121.996H377.638V160.089H366.081V152.996H365.684C364.841 155.327 363.403 157.179 361.369 158.551C359.352 159.907 356.913 160.585 354.053 160.585C351.457 160.585 349.176 159.99 347.208 158.799C345.241 157.609 343.711 155.947 342.62 153.815C341.529 151.665 340.975 149.152 340.959 146.275V121.996H353.086V143.894C353.102 145.961 353.648 147.59 354.723 148.78C355.797 149.97 357.261 150.566 359.112 150.566C360.319 150.566 361.402 150.301 362.361 149.772C363.337 149.226 364.105 148.441 364.668 147.416C365.246 146.374 365.536 145.118 365.536 143.646ZM403.139 160.808C399.121 160.808 395.674 159.981 392.797 158.328C389.937 156.675 387.738 154.377 386.2 151.434C384.663 148.474 383.894 145.052 383.894 141.166C383.894 137.265 384.663 133.842 386.2 130.899C387.754 127.94 389.962 125.633 392.822 123.98C395.699 122.327 399.129 121.5 403.114 121.5C406.636 121.5 409.703 122.136 412.315 123.41C414.944 124.683 416.994 126.485 418.465 128.816C419.953 131.131 420.739 133.85 420.821 136.975H409.488C409.256 135.024 408.595 133.495 407.504 132.387C406.429 131.279 405.024 130.726 403.288 130.726C401.882 130.726 400.651 131.122 399.592 131.916C398.534 132.693 397.708 133.85 397.112 135.388C396.534 136.909 396.244 138.794 396.244 141.042C396.244 143.291 396.534 145.192 397.112 146.746C397.708 148.284 398.534 149.45 399.592 150.243C400.651 151.02 401.882 151.409 403.288 151.409C404.412 151.409 405.404 151.169 406.264 150.69C407.14 150.21 407.859 149.508 408.421 148.582C408.983 147.639 409.339 146.498 409.488 145.159H420.821C420.706 148.301 419.92 151.045 418.465 153.393C417.027 155.741 415.002 157.568 412.389 158.874C409.793 160.163 406.71 160.808 403.139 160.808ZM437.964 150.094L438.014 135.636H439.7L450.414 121.996H464.153L448.232 141.538H445.032L437.964 150.094ZM427.028 160.089V109.298H439.155V160.089H427.028ZM450.687 160.089L440.717 144.266L448.703 135.661L464.699 160.089H450.687ZM501.75 133.627L490.615 133.925C490.499 133.131 490.185 132.429 489.673 131.817C489.16 131.189 488.491 130.701 487.664 130.354C486.854 129.99 485.911 129.808 484.837 129.808C483.431 129.808 482.233 130.089 481.241 130.651C480.265 131.213 479.786 131.974 479.802 132.933C479.786 133.677 480.083 134.322 480.695 134.867C481.323 135.413 482.439 135.851 484.043 136.182L491.384 137.57C495.187 138.298 498.014 139.505 499.866 141.191C501.734 142.878 502.676 145.11 502.693 147.887C502.676 150.5 501.899 152.773 500.362 154.707C498.84 156.642 496.757 158.146 494.112 159.221C491.467 160.279 488.441 160.808 485.035 160.808C479.596 160.808 475.305 159.692 472.164 157.46C469.039 155.212 467.253 152.203 466.807 148.433L478.785 148.135C479.05 149.524 479.736 150.582 480.844 151.31C481.952 152.037 483.365 152.401 485.085 152.401C486.639 152.401 487.904 152.112 488.879 151.533C489.855 150.954 490.351 150.185 490.367 149.226C490.351 148.367 489.97 147.681 489.226 147.168C488.482 146.639 487.317 146.226 485.729 145.928L479.083 144.663C475.264 143.969 472.42 142.688 470.552 140.819C468.684 138.934 467.758 136.537 467.774 133.627C467.758 131.081 468.436 128.907 469.808 127.105C471.18 125.286 473.131 123.897 475.661 122.938C478.19 121.979 481.175 121.5 484.613 121.5C489.772 121.5 493.839 122.583 496.815 124.749C499.791 126.898 501.436 129.858 501.75 133.627Z" fill="white"/>
<path d="M177.748 195.695C177.748 196.593 177.536 197.439 177.113 198.235C176.689 199.031 176.012 199.683 175.081 200.191C174.15 200.682 172.956 200.927 171.5 200.927H168.3V208.089H165.405V190.438H171.5C172.854 190.438 173.997 190.675 174.929 191.149C175.877 191.606 176.579 192.233 177.037 193.029C177.511 193.824 177.748 194.713 177.748 195.695ZM171.5 198.565C172.601 198.565 173.422 198.32 173.963 197.829C174.505 197.321 174.776 196.61 174.776 195.695C174.776 193.765 173.684 192.8 171.5 192.8H168.3V198.565H171.5ZM180.052 201.029C180.052 199.623 180.34 198.379 180.915 197.295C181.508 196.212 182.304 195.374 183.303 194.781C184.318 194.171 185.436 193.867 186.655 193.867C187.755 193.867 188.712 194.087 189.525 194.527C190.354 194.95 191.015 195.484 191.506 196.127V194.095H194.426V208.089H191.506V206.006C191.015 206.667 190.346 207.217 189.499 207.657C188.653 208.097 187.688 208.318 186.604 208.318C185.402 208.318 184.302 208.013 183.303 207.403C182.304 206.777 181.508 205.913 180.915 204.813C180.34 203.695 180.052 202.434 180.052 201.029ZM191.506 201.079C191.506 200.114 191.303 199.276 190.896 198.565C190.507 197.854 189.99 197.312 189.347 196.94C188.704 196.567 188.009 196.381 187.264 196.381C186.52 196.381 185.825 196.567 185.182 196.94C184.539 197.295 184.014 197.829 183.607 198.54C183.218 199.234 183.023 200.064 183.023 201.029C183.023 201.994 183.218 202.84 183.607 203.568C184.014 204.296 184.539 204.855 185.182 205.245C185.842 205.617 186.536 205.803 187.264 205.803C188.009 205.803 188.704 205.617 189.347 205.245C189.99 204.872 190.507 204.33 190.896 203.619C191.303 202.891 191.506 202.045 191.506 201.079ZM201.632 196.127C202.056 195.416 202.614 194.866 203.309 194.476C204.02 194.07 204.858 193.867 205.823 193.867V196.864H205.086C203.952 196.864 203.088 197.151 202.496 197.727C201.92 198.303 201.632 199.302 201.632 200.724V208.089H198.737V194.095H201.632V196.127ZM212.37 196.457V204.203C212.37 204.728 212.488 205.109 212.725 205.346C212.979 205.566 213.403 205.676 213.995 205.676H215.773V208.089H213.487C212.184 208.089 211.185 207.784 210.49 207.175C209.796 206.565 209.449 205.575 209.449 204.203V196.457H207.798V194.095H209.449V190.616H212.37V194.095H215.773V196.457H212.37ZM226.01 193.867C227.11 193.867 228.092 194.095 228.956 194.552C229.836 195.01 230.522 195.687 231.013 196.584C231.504 197.482 231.749 198.565 231.749 199.835V208.089H228.88V200.267C228.88 199.014 228.566 198.057 227.94 197.397C227.313 196.72 226.458 196.381 225.375 196.381C224.291 196.381 223.428 196.72 222.784 197.397C222.158 198.057 221.845 199.014 221.845 200.267V208.089H218.949V194.095H221.845V195.695C222.319 195.12 222.92 194.671 223.648 194.349C224.393 194.028 225.18 193.867 226.01 193.867ZM248.776 200.749C248.776 201.274 248.742 201.748 248.674 202.171H237.982C238.067 203.289 238.482 204.186 239.227 204.864C239.972 205.541 240.886 205.879 241.969 205.879C243.527 205.879 244.628 205.228 245.271 203.924H248.395C247.972 205.211 247.201 206.269 246.084 207.098C244.983 207.911 243.612 208.318 241.969 208.318C240.632 208.318 239.43 208.021 238.363 207.429C237.313 206.819 236.484 205.973 235.874 204.889C235.282 203.788 234.985 202.519 234.985 201.079C234.985 199.64 235.273 198.379 235.849 197.295C236.441 196.195 237.263 195.348 238.312 194.756C239.379 194.163 240.598 193.867 241.969 193.867C243.29 193.867 244.467 194.155 245.5 194.73C246.532 195.306 247.337 196.119 247.912 197.168C248.488 198.201 248.776 199.395 248.776 200.749ZM245.754 199.835C245.737 198.768 245.356 197.913 244.611 197.27C243.866 196.627 242.943 196.305 241.842 196.305C240.844 196.305 239.988 196.627 239.277 197.27C238.566 197.896 238.143 198.751 238.008 199.835H245.754ZM255.028 196.127C255.451 195.416 256.01 194.866 256.704 194.476C257.415 194.07 258.254 193.867 259.219 193.867V196.864H258.482C257.348 196.864 256.484 197.151 255.892 197.727C255.316 198.303 255.028 199.302 255.028 200.724V208.089H252.133V194.095H255.028V196.127ZM281.836 195.695C281.836 196.593 281.624 197.439 281.201 198.235C280.778 199.031 280.1 199.683 279.169 200.191C278.238 200.682 277.044 200.927 275.588 200.927H272.388V208.089H269.493V190.438H275.588C276.943 190.438 278.086 190.675 279.017 191.149C279.965 191.606 280.668 192.233 281.125 193.029C281.599 193.824 281.836 194.713 281.836 195.695ZM275.588 198.565C276.689 198.565 277.51 198.32 278.052 197.829C278.594 197.321 278.864 196.61 278.864 195.695C278.864 193.765 277.772 192.8 275.588 192.8H272.388V198.565H275.588ZM284.14 201.029C284.14 199.623 284.428 198.379 285.004 197.295C285.596 196.212 286.392 195.374 287.391 194.781C288.407 194.171 289.524 193.867 290.743 193.867C291.844 193.867 292.8 194.087 293.613 194.527C294.443 194.95 295.103 195.484 295.594 196.127V194.095H298.515V208.089H295.594V206.006C295.103 206.667 294.434 207.217 293.588 207.657C292.741 208.097 291.776 208.318 290.692 208.318C289.49 208.318 288.39 208.013 287.391 207.403C286.392 206.777 285.596 205.913 285.004 204.813C284.428 203.695 284.14 202.434 284.14 201.029ZM295.594 201.079C295.594 200.114 295.391 199.276 294.985 198.565C294.595 197.854 294.079 197.312 293.435 196.94C292.792 196.567 292.098 196.381 291.353 196.381C290.608 196.381 289.914 196.567 289.27 196.94C288.627 197.295 288.102 197.829 287.696 198.54C287.306 199.234 287.112 200.064 287.112 201.029C287.112 201.994 287.306 202.84 287.696 203.568C288.102 204.296 288.627 204.855 289.27 205.245C289.931 205.617 290.625 205.803 291.353 205.803C292.098 205.803 292.792 205.617 293.435 205.245C294.079 204.872 294.595 204.33 294.985 203.619C295.391 202.891 295.594 202.045 295.594 201.079ZM309.886 193.867C310.986 193.867 311.968 194.095 312.832 194.552C313.712 195.01 314.398 195.687 314.889 196.584C315.38 197.482 315.625 198.565 315.625 199.835V208.089H312.756V200.267C312.756 199.014 312.442 198.057 311.816 197.397C311.189 196.72 310.334 196.381 309.251 196.381C308.167 196.381 307.304 196.72 306.66 197.397C306.034 198.057 305.721 199.014 305.721 200.267V208.089H302.825V194.095H305.721V195.695C306.195 195.12 306.796 194.671 307.524 194.349C308.269 194.028 309.056 193.867 309.886 193.867ZM332.652 200.749C332.652 201.274 332.618 201.748 332.55 202.171H321.858C321.943 203.289 322.358 204.186 323.103 204.864C323.848 205.541 324.762 205.879 325.845 205.879C327.403 205.879 328.504 205.228 329.147 203.924H332.271C331.848 205.211 331.077 206.269 329.96 207.098C328.859 207.911 327.488 208.318 325.845 208.318C324.508 208.318 323.306 208.021 322.239 207.429C321.189 206.819 320.36 205.973 319.75 204.889C319.158 203.788 318.861 202.519 318.861 201.079C318.861 199.64 319.149 198.379 319.725 197.295C320.317 196.195 321.139 195.348 322.188 194.756C323.255 194.163 324.474 193.867 325.845 193.867C327.166 193.867 328.343 194.155 329.376 194.73C330.408 195.306 331.213 196.119 331.788 197.168C332.364 198.201 332.652 199.395 332.652 200.749ZM329.63 199.835C329.613 198.768 329.232 197.913 328.487 197.27C327.742 196.627 326.819 196.305 325.718 196.305C324.72 196.305 323.864 196.627 323.153 197.27C322.442 197.896 322.019 198.751 321.884 199.835H329.63ZM338.904 189.295V208.089H336.009V189.295H338.904Z" fill="white"/>
</svg>
