<svg width="18" height="18" viewBox="0 0 18 18" fill="#70778B" xmlns="http://www.w3.org/2000/svg">
<path d="M6.07505 10.005L2.93255 6.87005C2.37069 6.30656 2.05518 5.54329 2.05518 4.74755C2.05518 3.95181 2.37069 3.18853 2.93255 2.62505L8.19755 7.87505L6.07505 10.005ZM11.1601 8.64755L10.0576 9.75005L15.2176 14.91L14.1601 15.9675L9.00005 10.8075L3.84005 15.9675L2.78255 14.91L10.1026 7.59005C9.57005 6.44255 9.94505 4.83005 11.1376 3.63755C12.5701 2.19755 14.6251 1.92755 15.7201 3.02255C16.8226 4.12505 16.5526 6.18005 15.1126 7.61255C13.9201 8.80505 12.3076 9.18005 11.1601 8.64755Z" fill="inherit"/>
</svg>
