<svg width="18" height="18" viewBox="0 0 18 18" fill="#8A92A6" xmlns="http://www.w3.org/2000/svg">
<path d="M3.09375 15.75C2.57161 15.75 2.07085 15.5426 1.70163 15.1734C1.33242 14.8042 1.125 14.3034 1.125 13.7812V10.9688C1.125 10.745 1.21389 10.5304 1.37213 10.3721C1.53036 10.2139 1.74497 10.125 1.96875 10.125C2.19253 10.125 2.40714 10.2139 2.56537 10.3721C2.72361 10.5304 2.8125 10.745 2.8125 10.9688V13.7812C2.8125 13.9365 2.9385 14.0625 3.09375 14.0625H14.9062C14.9808 14.0625 15.0524 14.0329 15.1051 13.9801C15.1579 13.9274 15.1875 13.8558 15.1875 13.7812V10.9688C15.1875 10.745 15.2764 10.5304 15.4346 10.3721C15.5929 10.2139 15.8075 10.125 16.0312 10.125C16.255 10.125 16.4696 10.2139 16.6279 10.3721C16.7861 10.5304 16.875 10.745 16.875 10.9688V13.7812C16.875 14.3034 16.6676 14.8042 16.2984 15.1734C15.9292 15.5426 15.4284 15.75 14.9062 15.75H3.09375Z" fill="inherit"/>
<path d="M13.2525 5.31021C13.3308 5.38851 13.3929 5.48147 13.4353 5.58377C13.4776 5.68608 13.4994 5.79573 13.4994 5.90646C13.4994 6.0172 13.4776 6.12685 13.4353 6.22915C13.3929 6.33145 13.3308 6.42441 13.2525 6.50271C13.1742 6.58101 13.0812 6.64312 12.9789 6.6855C12.8766 6.72788 12.7669 6.74969 12.6562 6.74969C12.5455 6.74969 12.4358 6.72788 12.3335 6.6855C12.2312 6.64312 12.1383 6.58101 12.06 6.50271L9.84371 4.28759V10.6877C9.84371 10.9115 9.75482 11.1261 9.59658 11.2843C9.43835 11.4426 9.22374 11.5315 8.99996 11.5315C8.77619 11.5315 8.56158 11.4426 8.40334 11.2843C8.24511 11.1261 8.15621 10.9115 8.15621 10.6877V4.28759L5.93996 6.50271C5.86166 6.58101 5.76871 6.64312 5.6664 6.6855C5.5641 6.72788 5.45445 6.74969 5.34371 6.74969C5.23298 6.74969 5.12333 6.72788 5.02103 6.6855C4.91872 6.64312 4.82576 6.58101 4.74746 6.50271C4.66916 6.42441 4.60705 6.33145 4.56468 6.22915C4.5223 6.12685 4.50049 6.0172 4.50049 5.90646C4.50049 5.79573 4.5223 5.68608 4.56468 5.58377C4.60705 5.48147 4.66916 5.38851 4.74746 5.31021L8.40371 1.65396C8.48197 1.57559 8.57492 1.51342 8.67723 1.47099C8.77954 1.42857 8.88921 1.40674 8.99996 1.40674C9.11072 1.40674 9.22039 1.42857 9.3227 1.47099C9.42501 1.51342 9.51795 1.57559 9.59621 1.65396L13.2525 5.31021Z" fill="inherit"/>
</svg>
