<svg width="32" height="32" viewBox="0 0 32 32" fill="none" xmlns="http://www.w3.org/2000/svg">
<path d="M29.8657 26.75L16.8657 4.25C16.6719 3.91563 16.3376 3.75 16.0001 3.75C15.6626 3.75 15.3251 3.91563 15.1344 4.25L2.13443 26.75C1.75006 27.4188 2.23131 28.25 3.00006 28.25H29.0001C29.7688 28.25 30.2501 27.4188 29.8657 26.75ZM15.0001 13C15.0001 12.8625 15.1126 12.75 15.2501 12.75H16.7501C16.8876 12.75 17.0001 12.8625 17.0001 13V18.75C17.0001 18.8875 16.8876 19 16.7501 19H15.2501C15.1126 19 15.0001 18.8875 15.0001 18.75V13ZM16.0001 24C15.6075 23.992 15.2338 23.8304 14.959 23.55C14.6843 23.2696 14.5304 22.8926 14.5304 22.5C14.5304 22.1074 14.6843 21.7304 14.959 21.45C15.2338 21.1696 15.6075 21.008 16.0001 21C16.3926 21.008 16.7663 21.1696 17.0411 21.45C17.3159 21.7304 17.4698 22.1074 17.4698 22.5C17.4698 22.8926 17.3159 23.2696 17.0411 23.55C16.7663 23.8304 16.3926 23.992 16.0001 24Z" fill="#FF2A2A"/>
</svg>
