<svg width="17" height="15" viewBox="0 0 17 15" fill="#8A92A6" xmlns="http://www.w3.org/2000/svg">
<path d="M5.13458 7.2929L1.87019 4.44895C0.58507 5.66947 0.0980752 6.8922 0.0896205 6.91724L0 7.15L0.0887751 7.38276C0.107376 7.43211 2.0469 12.3061 8.50042 12.3061C9.28587 12.3061 10.0011 12.2309 10.6581 12.105L8.3364 10.0823C7.50046 10.0466 6.70966 9.74128 6.11786 9.2257C5.52605 8.71012 5.17556 8.02117 5.13458 7.2929ZM8.50042 1.99393C6.93206 1.99393 5.64694 2.29151 4.57572 2.72904L1.44323 0L0.247725 1.04153L15.4663 14.3L16.6618 13.2585L13.8734 10.8292C16.1038 9.39068 16.8994 7.4137 16.9112 7.38276L17 7.15L16.9112 6.91724C16.8926 6.86789 14.9539 1.99393 8.50042 1.99393ZM10.1119 7.55217C10.27 7.05351 10.1356 6.49223 9.69593 6.10847C9.25628 5.72471 8.61118 5.60833 8.03879 5.74607L6.76381 4.63531C7.28629 4.3554 7.88707 4.20607 8.50042 4.20367C10.3655 4.20367 11.8823 5.5251 11.8823 7.15C11.8798 7.68426 11.7081 8.20754 11.386 8.6622L10.1119 7.55217Z" fill="inherit"/>
</svg>
