<svg width="27" height="27" viewBox="0 0 27 27" fill="#605DAA" xmlns="http://www.w3.org/2000/svg">
<path d="M13.5 5.3999C11.898 5.3999 10.3319 5.87496 8.99991 6.765C7.66787 7.65504 6.62967 8.92008 6.0166 10.4002C5.40353 11.8802 5.24313 13.5089 5.55567 15.0801C5.86821 16.6514 6.63966 18.0947 7.77246 19.2275C8.90527 20.3603 10.3485 21.1317 11.9198 21.4443C13.491 21.7568 15.1197 21.5964 16.5998 20.9833C18.0798 20.3703 19.3449 19.3321 20.2349 18C21.125 16.668 21.6 15.1019 21.6 13.4999C21.6 11.3516 20.7466 9.29138 19.2276 7.77234C17.7085 6.25329 15.6483 5.3999 13.5 5.3999ZM18 14.3999H9.00003V12.5999H18V14.3999Z" fill="inherit"/>
</svg>
