<svg width="796" height="129" viewBox="0 0 796 129" fill="none" xmlns="http://www.w3.org/2000/svg">
<path d="M0.167236 105.244L0.168481 33.0034L44.0789 76.4896L83.4609 37.9008L97.922 52.8312L44.2897 105.244L21.9806 83.7139L0.167236 105.244Z" fill="white"/>
<path d="M59.2341 105.811H88.4136L88.4148 76.773L59.2341 105.811Z" fill="white"/>
<path d="M113.962 55.7376L81.2219 22.3813H113.963L113.962 55.7376Z" fill="white"/>
<path d="M133.604 67.0959V31.0156H144.527V37.6397H144.926C145.678 35.4473 146.946 33.7169 148.731 32.4485C150.517 31.18 152.646 30.5458 155.121 30.5458C157.626 30.5458 159.772 31.1879 161.557 32.472C163.342 33.7561 164.477 35.4787 164.963 37.6397H165.339C166.012 35.4943 167.328 33.7796 169.285 32.4955C171.242 31.1957 173.552 30.5458 176.214 30.5458C179.628 30.5458 182.4 31.642 184.53 33.8344C186.66 36.0111 187.724 39.0021 187.724 42.8075V67.0959H176.238V45.4383C176.238 43.6374 175.776 42.2672 174.852 41.3276C173.928 40.3724 172.73 39.8947 171.258 39.8947C169.676 39.8947 168.432 40.4115 167.523 41.4451C166.631 42.463 166.184 43.8332 166.184 45.5558V67.0959H155.144V45.3209C155.144 43.6453 154.69 42.322 153.782 41.3511C152.873 40.3802 151.676 39.8947 150.188 39.8947C149.186 39.8947 148.301 40.1375 147.533 40.6229C146.766 41.0927 146.163 41.7661 145.725 42.643C145.302 43.52 145.091 44.5535 145.091 45.7437V67.0959H133.604ZM211.708 67.7771C207.933 67.7771 204.676 67.0332 201.936 65.5456C199.211 64.0422 197.113 61.9046 195.641 59.1329C194.184 56.3454 193.456 53.0333 193.456 49.1967C193.456 45.4696 194.192 42.2124 195.664 39.4249C197.136 36.6218 199.211 34.4451 201.889 32.8948C204.567 31.3288 207.722 30.5458 211.355 30.5458C213.923 30.5458 216.272 30.9451 218.402 31.7438C220.532 32.5424 222.372 33.7248 223.922 35.2907C225.473 36.8567 226.678 38.7907 227.54 41.0927C228.401 43.3791 228.832 46.0021 228.832 48.9618V51.8275H197.473V45.1564H218.144C218.128 43.935 217.838 42.8466 217.275 41.8914C216.711 40.9361 215.936 40.1923 214.949 39.6598C213.978 39.1117 212.859 38.8377 211.59 38.8377C210.306 38.8377 209.155 39.1274 208.137 39.7068C207.119 40.2706 206.313 41.0457 205.718 42.0323C205.123 43.0032 204.809 44.1072 204.778 45.3444V52.1329C204.778 53.6049 205.068 54.8969 205.647 56.0087C206.227 57.1049 207.049 57.9584 208.114 58.5691C209.178 59.1798 210.447 59.4852 211.919 59.4852C212.937 59.4852 213.861 59.3443 214.691 59.0624C215.521 58.7805 216.233 58.3655 216.828 57.8174C217.423 57.2693 217.87 56.596 218.167 55.7973L228.714 56.1027C228.276 58.4673 227.313 60.5266 225.825 62.2805C224.353 64.0187 222.419 65.3733 220.023 66.3442C217.627 67.2995 214.855 67.7771 211.708 67.7771ZM245.057 57.6295L245.104 43.935H246.701L256.849 31.0156H269.862L254.782 49.5255H251.752L245.057 57.6295ZM234.698 67.0959V18.9888H246.185V67.0959H234.698ZM257.107 67.0959L247.664 52.1094L255.228 43.9585L270.379 67.0959H257.107ZM289.353 67.7771C285.579 67.7771 282.322 67.0332 279.581 65.5456C276.856 64.0422 274.758 61.9046 273.286 59.1329C271.83 56.3454 271.101 53.0333 271.101 49.1967C271.101 45.4696 271.837 42.2124 273.309 39.4249C274.781 36.6218 276.856 34.4451 279.534 32.8948C282.212 31.3288 285.368 30.5458 289.001 30.5458C291.569 30.5458 293.918 30.9451 296.048 31.7438C298.177 32.5424 300.017 33.7248 301.568 35.2907C303.118 36.8567 304.324 38.7907 305.185 41.0927C306.046 43.3791 306.477 46.0021 306.477 48.9618V51.8275H275.118V45.1564H295.789C295.773 43.935 295.484 42.8466 294.92 41.8914C294.356 40.9361 293.581 40.1923 292.595 39.6598C291.624 39.1117 290.504 38.8377 289.235 38.8377C287.951 38.8377 286.8 39.1274 285.782 39.7068C284.765 40.2706 283.958 41.0457 283.363 42.0323C282.768 43.0032 282.455 44.1072 282.423 45.3444V52.1329C282.423 53.6049 282.713 54.8969 283.293 56.0087C283.872 57.1049 284.694 57.9584 285.759 58.5691C286.824 59.1798 288.092 59.4852 289.564 59.4852C290.582 59.4852 291.506 59.3443 292.336 59.0624C293.166 58.7805 293.879 58.3655 294.474 57.8174C295.069 57.2693 295.515 56.596 295.813 55.7973L306.36 56.1027C305.921 58.4673 304.958 60.5266 303.47 62.2805C301.998 64.0187 300.064 65.3733 297.668 66.3442C295.272 67.2995 292.501 67.7771 289.353 67.7771ZM312.344 67.0959V31.0156H323.266V37.6397H323.666C324.417 35.4473 325.686 33.7169 327.471 32.4485C329.256 31.18 331.386 30.5458 333.86 30.5458C336.366 30.5458 338.511 31.1879 340.296 32.472C342.082 33.7561 343.217 35.4787 343.702 37.6397H344.078C344.752 35.4943 346.067 33.7796 348.024 32.4955C349.982 31.1957 352.292 30.5458 354.954 30.5458C358.368 30.5458 361.14 31.642 363.269 33.8344C365.399 36.0111 366.464 39.0021 366.464 42.8075V67.0959H354.977V45.4383C354.977 43.6374 354.515 42.2672 353.592 41.3276C352.668 40.3724 351.47 39.8947 349.998 39.8947C348.416 39.8947 347.171 40.4115 346.263 41.4451C345.37 42.463 344.924 43.8332 344.924 45.5558V67.0959H333.884V45.3209C333.884 43.6453 333.43 42.322 332.521 41.3511C331.613 40.3802 330.415 39.8947 328.927 39.8947C327.925 39.8947 327.04 40.1375 326.273 40.6229C325.506 41.0927 324.903 41.7661 324.464 42.643C324.041 43.52 323.83 44.5535 323.83 45.7437V67.0959H312.344ZM379.313 80.626C377.935 80.626 376.635 80.5164 375.414 80.2971C374.192 80.0936 373.143 79.8195 372.266 79.475L374.803 71.1361C375.93 71.512 376.948 71.7312 377.856 71.7938C378.78 71.8565 379.571 71.7077 380.229 71.3475C380.902 71.003 381.419 70.3845 381.779 69.4918L382.226 68.4113L369.4 31.0156H381.427L388.075 56.7604H388.45L395.192 31.0156H407.289L393.689 70.5489C393.031 72.522 392.099 74.2603 390.893 75.7636C389.703 77.2826 388.161 78.4728 386.266 79.3341C384.387 80.1953 382.069 80.626 379.313 80.626ZM411.693 67.0959V18.9888H423.18V37.1934H423.415C423.885 36.0972 424.55 35.0402 425.412 34.0223C426.288 33.0044 427.4 32.1744 428.747 31.5324C430.109 30.8747 431.738 30.5458 433.633 30.5458C436.139 30.5458 438.48 31.2035 440.656 32.5189C442.849 33.8344 444.618 35.8623 445.965 38.6028C447.312 41.3433 447.985 44.8354 447.985 49.0792C447.985 53.1665 447.335 56.5881 446.036 59.3443C444.751 62.1004 443.013 64.1675 440.821 65.5456C438.644 66.9236 436.225 67.6127 433.562 67.6127C431.746 67.6127 430.172 67.3151 428.841 66.72C427.51 66.125 426.39 65.342 425.482 64.3711C424.589 63.4002 423.9 62.3588 423.415 61.2469H423.063V67.0959H411.693ZM422.945 49.0557C422.945 50.9976 423.203 52.6888 423.72 54.1295C424.253 55.5702 425.012 56.6899 425.999 57.4886C427.001 58.2716 428.199 58.6631 429.593 58.6631C431.002 58.6631 432.2 58.2716 433.187 57.4886C434.173 56.6899 434.917 55.5702 435.418 54.1295C435.935 52.6888 436.193 50.9976 436.193 49.0557C436.193 47.1139 435.935 45.4305 435.418 44.0054C434.917 42.5804 434.173 41.4764 433.187 40.6934C432.216 39.9104 431.018 39.5189 429.593 39.5189C428.183 39.5189 426.985 39.9026 425.999 40.6699C425.012 41.4372 424.253 42.5334 423.72 43.9585C423.203 45.3835 422.945 47.0826 422.945 49.0557ZM477.283 51.5222V31.0156H488.746V67.0959H477.8V60.3778H477.424C476.625 62.5859 475.263 64.3398 473.337 65.6395C471.426 66.9236 469.116 67.5657 466.407 67.5657C463.948 67.5657 461.787 67.0019 459.924 65.8744C458.06 64.7469 456.612 63.1731 455.578 61.153C454.545 59.1172 454.02 56.7369 454.004 54.0121V31.0156H465.491V51.7571C465.507 53.7145 466.023 55.257 467.041 56.3846C468.059 57.5121 469.445 58.0758 471.199 58.0758C472.342 58.0758 473.368 57.8253 474.276 57.3241C475.2 56.8074 475.928 56.0635 476.461 55.0926C477.009 54.106 477.283 52.9159 477.283 51.5222ZM512.899 67.7771C509.094 67.7771 505.829 66.9941 503.104 65.4281C500.395 63.8621 498.312 61.6854 496.856 58.898C495.399 56.0948 494.671 52.8533 494.671 49.1732C494.671 45.4775 495.399 42.2359 496.856 39.4484C498.328 36.6453 500.418 34.4608 503.127 32.8948C505.852 31.3288 509.102 30.5458 512.876 30.5458C516.211 30.5458 519.116 31.1487 521.59 32.3545C524.08 33.5603 526.022 35.2673 527.416 37.4753C528.825 39.6677 529.569 42.2437 529.647 45.2034H518.913C518.693 43.3556 518.067 41.907 517.033 40.8578C516.015 39.8086 514.684 39.284 513.04 39.284C511.709 39.284 510.542 39.6598 509.54 40.4115C508.538 41.1475 507.755 42.2437 507.191 43.7001C506.643 45.1408 506.369 46.926 506.369 49.0557C506.369 51.1855 506.643 52.9864 507.191 54.4584C507.755 55.9148 508.538 57.0188 509.54 57.7704C510.542 58.5065 511.709 58.8745 513.04 58.8745C514.105 58.8745 515.045 58.6474 515.859 58.1933C516.689 57.7391 517.37 57.0736 517.902 56.1966C518.435 55.304 518.772 54.2235 518.913 52.955H529.647C529.538 55.9304 528.794 58.53 527.416 60.7536C526.053 62.9773 524.135 64.7078 521.661 65.9449C519.202 67.1664 516.282 67.7771 512.899 67.7771ZM545.885 57.6295L545.932 43.935H547.529L557.677 31.0156H570.69L555.609 49.5255H552.579L545.885 57.6295ZM535.526 67.0959V18.9888H547.012V67.0959H535.526ZM557.935 67.0959L548.492 52.1094L556.056 43.9585L571.207 67.0959H557.935ZM606.3 42.0323L595.753 42.3142C595.644 41.5625 595.346 40.897 594.861 40.3176C594.375 39.7225 593.741 39.2605 592.958 38.9317C592.191 38.5871 591.298 38.4149 590.28 38.4149C588.949 38.4149 587.814 38.6811 586.874 39.2135C585.95 39.746 585.496 40.4663 585.512 41.3746C585.496 42.0793 585.778 42.69 586.358 43.2068C586.953 43.7236 588.01 44.1386 589.529 44.4518L596.482 45.7672C600.083 46.4562 602.761 47.5994 604.515 49.1967C606.285 50.794 607.177 52.9081 607.193 55.5389C607.177 58.0132 606.441 60.1664 604.985 61.9986C603.544 63.8308 601.571 65.2559 599.065 66.2737C596.56 67.276 593.694 67.7771 590.468 67.7771C585.316 67.7771 581.252 66.72 578.277 64.606C575.317 62.4762 573.626 59.6261 573.203 56.0557L584.549 55.7738C584.799 57.0892 585.449 58.0915 586.498 58.7805C587.548 59.4695 588.887 59.8141 590.515 59.8141C591.987 59.8141 593.185 59.54 594.109 58.9919C595.033 58.4438 595.503 57.7156 595.519 56.8074C595.503 55.9931 595.143 55.3432 594.438 54.8577C593.733 54.3566 592.629 53.9651 591.126 53.6832L584.831 52.4853C581.213 51.8275 578.52 50.6139 576.75 48.8443C574.981 47.0591 574.104 44.7884 574.119 42.0323C574.104 39.6207 574.746 37.5614 576.046 35.8545C577.345 34.1319 579.193 32.8165 581.589 31.9082C583.985 30.9999 586.812 30.5458 590.069 30.5458C594.955 30.5458 598.807 31.5715 601.626 33.623C604.445 35.6587 606.003 38.4619 606.3 42.0323Z" fill="white"/>
<path d="M139.499 118.32C138.027 118.32 136.704 118.064 135.531 117.552C134.379 117.019 133.472 116.293 132.811 115.376C132.15 114.437 131.808 113.36 131.787 112.144H134.891C134.998 113.189 135.424 114.075 136.171 114.8C136.939 115.504 138.048 115.856 139.499 115.856C140.886 115.856 141.974 115.515 142.763 114.832C143.574 114.128 143.979 113.232 143.979 112.144C143.979 111.291 143.744 110.597 143.275 110.064C142.806 109.531 142.219 109.125 141.515 108.848C140.811 108.571 139.862 108.272 138.667 107.952C137.195 107.568 136.011 107.184 135.115 106.8C134.24 106.416 133.483 105.819 132.843 105.008C132.224 104.176 131.915 103.067 131.915 101.68C131.915 100.464 132.224 99.3866 132.843 98.4479C133.462 97.5092 134.326 96.7839 135.435 96.2719C136.566 95.7599 137.856 95.5039 139.307 95.5039C141.398 95.5039 143.104 96.0266 144.427 97.0719C145.771 98.1172 146.528 99.5039 146.699 101.232H143.499C143.392 100.379 142.944 99.6319 142.155 98.9919C141.366 98.3306 140.32 97.9999 139.019 97.9999C137.803 97.9999 136.811 98.3199 136.043 98.9599C135.275 99.5786 134.891 100.453 134.891 101.584C134.891 102.395 135.115 103.056 135.563 103.568C136.032 104.08 136.598 104.475 137.259 104.752C137.942 105.008 138.891 105.307 140.107 105.648C141.579 106.053 142.763 106.459 143.659 106.864C144.555 107.248 145.323 107.856 145.963 108.688C146.603 109.499 146.923 110.608 146.923 112.016C146.923 113.104 146.635 114.128 146.059 115.088C145.483 116.048 144.63 116.827 143.499 117.424C142.368 118.021 141.035 118.32 139.499 118.32ZM158.856 118.384C157.214 118.384 155.72 118.011 154.376 117.264C153.054 116.517 152.008 115.461 151.24 114.096C150.494 112.709 150.12 111.109 150.12 109.296C150.12 107.504 150.504 105.925 151.272 104.56C152.062 103.173 153.128 102.117 154.472 101.392C155.816 100.645 157.32 100.272 158.984 100.272C160.648 100.272 162.152 100.645 163.496 101.392C164.84 102.117 165.896 103.163 166.664 104.528C167.454 105.893 167.848 107.483 167.848 109.296C167.848 111.109 167.443 112.709 166.632 114.096C165.843 115.461 164.766 116.517 163.4 117.264C162.035 118.011 160.52 118.384 158.856 118.384ZM158.856 115.824C159.902 115.824 160.883 115.579 161.8 115.088C162.718 114.597 163.454 113.861 164.008 112.88C164.584 111.899 164.872 110.704 164.872 109.296C164.872 107.888 164.595 106.693 164.04 105.712C163.486 104.731 162.76 104.005 161.864 103.536C160.968 103.045 159.998 102.8 158.952 102.8C157.886 102.8 156.904 103.045 156.008 103.536C155.134 104.005 154.43 104.731 153.896 105.712C153.363 106.693 153.096 107.888 153.096 109.296C153.096 110.725 153.352 111.931 153.864 112.912C154.398 113.893 155.102 114.629 155.976 115.12C156.851 115.589 157.811 115.824 158.856 115.824ZM174.589 103.408C175.101 102.405 175.826 101.627 176.765 101.072C177.725 100.517 178.888 100.24 180.253 100.24V103.248H179.485C176.221 103.248 174.589 105.019 174.589 108.56V118.096H171.677V100.56H174.589V103.408ZM186.527 103.408C187.039 102.405 187.764 101.627 188.703 101.072C189.663 100.517 190.825 100.24 192.191 100.24V103.248H191.423C188.159 103.248 186.527 105.019 186.527 108.56V118.096H183.615V100.56H186.527V103.408ZM210.656 100.56L200.096 126.352H197.088L200.544 117.904L193.472 100.56H196.704L202.208 114.768L207.648 100.56H210.656ZM225.891 95.7919L225.539 111.792H223.107L222.755 95.7919H225.891ZM224.451 118.288C223.896 118.288 223.427 118.096 223.043 117.712C222.659 117.328 222.467 116.859 222.467 116.304C222.467 115.749 222.659 115.28 223.043 114.896C223.427 114.512 223.896 114.32 224.451 114.32C224.984 114.32 225.432 114.512 225.795 114.896C226.179 115.28 226.371 115.749 226.371 116.304C226.371 116.859 226.179 117.328 225.795 117.712C225.432 118.096 224.984 118.288 224.451 118.288ZM263.537 100.56L258.065 118.096H255.057L250.833 104.176L246.609 118.096H243.601L238.097 100.56H241.073L245.105 115.28L249.457 100.56H252.433L256.689 115.312L260.657 100.56H263.537ZM282.427 108.656C282.427 109.211 282.395 109.797 282.331 110.416H268.315C268.422 112.144 269.008 113.499 270.075 114.48C271.163 115.44 272.475 115.92 274.011 115.92C275.27 115.92 276.315 115.632 277.147 115.056C278 114.459 278.598 113.669 278.939 112.688H282.075C281.606 114.373 280.667 115.749 279.259 116.816C277.851 117.861 276.102 118.384 274.011 118.384C272.347 118.384 270.854 118.011 269.531 117.264C268.23 116.517 267.206 115.461 266.459 114.096C265.712 112.709 265.339 111.109 265.339 109.296C265.339 107.483 265.702 105.893 266.427 104.528C267.152 103.163 268.166 102.117 269.467 101.392C270.79 100.645 272.304 100.272 274.011 100.272C275.675 100.272 277.147 100.635 278.427 101.36C279.707 102.085 280.688 103.088 281.371 104.368C282.075 105.627 282.427 107.056 282.427 108.656ZM279.419 108.048C279.419 106.939 279.174 105.989 278.683 105.2C278.192 104.389 277.52 103.781 276.667 103.376C275.835 102.949 274.907 102.736 273.883 102.736C272.411 102.736 271.152 103.205 270.107 104.144C269.083 105.083 268.496 106.384 268.347 108.048H279.419ZM302.45 118.384C300.807 118.384 299.314 118.011 297.97 117.264C296.647 116.517 295.602 115.461 294.834 114.096C294.087 112.709 293.714 111.109 293.714 109.296C293.714 107.504 294.098 105.925 294.866 104.56C295.655 103.173 296.722 102.117 298.066 101.392C299.41 100.645 300.914 100.272 302.578 100.272C304.242 100.272 305.746 100.645 307.09 101.392C308.434 102.117 309.49 103.163 310.258 104.528C311.047 105.893 311.442 107.483 311.442 109.296C311.442 111.109 311.037 112.709 310.226 114.096C309.437 115.461 308.359 116.517 306.994 117.264C305.629 118.011 304.114 118.384 302.45 118.384ZM302.45 115.824C303.495 115.824 304.477 115.579 305.394 115.088C306.311 114.597 307.047 113.861 307.602 112.88C308.178 111.899 308.466 110.704 308.466 109.296C308.466 107.888 308.189 106.693 307.634 105.712C307.079 104.731 306.354 104.005 305.458 103.536C304.562 103.045 303.591 102.8 302.546 102.8C301.479 102.8 300.498 103.045 299.602 103.536C298.727 104.005 298.023 104.731 297.49 105.712C296.957 106.693 296.69 107.888 296.69 109.296C296.69 110.725 296.946 111.931 297.458 112.912C297.991 113.893 298.695 114.629 299.57 115.12C300.445 115.589 301.405 115.824 302.45 115.824ZM323.815 100.24C325.948 100.24 327.676 100.891 328.999 102.192C330.322 103.472 330.983 105.328 330.983 107.76V118.096H328.103V108.176C328.103 106.427 327.666 105.093 326.791 104.176C325.916 103.237 324.722 102.768 323.207 102.768C321.671 102.768 320.444 103.248 319.527 104.208C318.631 105.168 318.183 106.565 318.183 108.4V118.096H315.271V100.56H318.183V103.056C318.759 102.16 319.538 101.467 320.519 100.976C321.522 100.485 322.62 100.24 323.815 100.24ZM338.652 94.4159V118.096H335.74V94.4159H338.652ZM358.719 100.56L348.159 126.352H345.151L348.607 117.904L341.535 100.56H344.767L350.271 114.768L355.711 100.56H358.719ZM377.825 118.384C376.182 118.384 374.689 118.011 373.345 117.264C372.022 116.517 370.977 115.461 370.209 114.096C369.462 112.709 369.089 111.109 369.089 109.296C369.089 107.504 369.473 105.925 370.241 104.56C371.03 103.173 372.097 102.117 373.441 101.392C374.785 100.645 376.289 100.272 377.953 100.272C379.617 100.272 381.121 100.645 382.465 101.392C383.809 102.117 384.865 103.163 385.633 104.528C386.422 105.893 386.817 107.483 386.817 109.296C386.817 111.109 386.412 112.709 385.601 114.096C384.812 115.461 383.734 116.517 382.369 117.264C381.004 118.011 379.489 118.384 377.825 118.384ZM377.825 115.824C378.87 115.824 379.852 115.579 380.769 115.088C381.686 114.597 382.422 113.861 382.977 112.88C383.553 111.899 383.841 110.704 383.841 109.296C383.841 107.888 383.564 106.693 383.009 105.712C382.454 104.731 381.729 104.005 380.833 103.536C379.937 103.045 378.966 102.8 377.921 102.8C376.854 102.8 375.873 103.045 374.977 103.536C374.102 104.005 373.398 104.731 372.865 105.712C372.332 106.693 372.065 107.888 372.065 109.296C372.065 110.725 372.321 111.931 372.833 112.912C373.366 113.893 374.07 114.629 374.945 115.12C375.82 115.589 376.78 115.824 377.825 115.824ZM393.558 103.792C394.134 102.789 394.987 101.957 396.118 101.296C397.27 100.613 398.603 100.272 400.118 100.272C401.675 100.272 403.083 100.645 404.342 101.392C405.622 102.139 406.625 103.195 407.35 104.56C408.075 105.904 408.438 107.472 408.438 109.264C408.438 111.035 408.075 112.613 407.35 114C406.625 115.387 405.622 116.464 404.342 117.232C403.083 118 401.675 118.384 400.118 118.384C398.625 118.384 397.302 118.053 396.15 117.392C395.019 116.709 394.155 115.867 393.558 114.864V126.416H390.646V100.56H393.558V103.792ZM405.462 109.264C405.462 107.941 405.195 106.789 404.662 105.808C404.129 104.827 403.403 104.08 402.486 103.568C401.59 103.056 400.598 102.8 399.51 102.8C398.443 102.8 397.451 103.067 396.534 103.6C395.638 104.112 394.913 104.869 394.358 105.872C393.825 106.853 393.558 107.995 393.558 109.296C393.558 110.619 393.825 111.781 394.358 112.784C394.913 113.765 395.638 114.523 396.534 115.056C397.451 115.568 398.443 115.824 399.51 115.824C400.598 115.824 401.59 115.568 402.486 115.056C403.403 114.523 404.129 113.765 404.662 112.784C405.195 111.781 405.462 110.608 405.462 109.264ZM428.271 108.656C428.271 109.211 428.239 109.797 428.175 110.416H414.159C414.266 112.144 414.852 113.499 415.919 114.48C417.007 115.44 418.319 115.92 419.855 115.92C421.114 115.92 422.159 115.632 422.991 115.056C423.844 114.459 424.442 113.669 424.783 112.688H427.919C427.45 114.373 426.511 115.749 425.103 116.816C423.695 117.861 421.946 118.384 419.855 118.384C418.191 118.384 416.698 118.011 415.375 117.264C414.074 116.517 413.05 115.461 412.303 114.096C411.556 112.709 411.183 111.109 411.183 109.296C411.183 107.483 411.546 105.893 412.271 104.528C412.996 103.163 414.01 102.117 415.311 101.392C416.634 100.645 418.148 100.272 419.855 100.272C421.519 100.272 422.991 100.635 424.271 101.36C425.551 102.085 426.532 103.088 427.215 104.368C427.919 105.627 428.271 107.056 428.271 108.656ZM425.263 108.048C425.263 106.939 425.018 105.989 424.527 105.2C424.036 104.389 423.364 103.781 422.511 103.376C421.679 102.949 420.751 102.736 419.727 102.736C418.255 102.736 416.996 103.205 415.951 104.144C414.927 105.083 414.34 106.384 414.191 108.048H425.263ZM435.027 103.408C435.539 102.405 436.264 101.627 437.203 101.072C438.163 100.517 439.325 100.24 440.691 100.24V103.248H439.923C436.659 103.248 435.027 105.019 435.027 108.56V118.096H432.115V100.56H435.027V103.408ZM442.964 109.264C442.964 107.472 443.327 105.904 444.052 104.56C444.777 103.195 445.769 102.139 447.028 101.392C448.308 100.645 449.727 100.272 451.284 100.272C452.82 100.272 454.153 100.603 455.284 101.264C456.415 101.925 457.257 102.757 457.812 103.76V100.56H460.756V118.096H457.812V114.832C457.236 115.856 456.372 116.709 455.22 117.392C454.089 118.053 452.767 118.384 451.252 118.384C449.695 118.384 448.287 118 447.028 117.232C445.769 116.464 444.777 115.387 444.052 114C443.327 112.613 442.964 111.035 442.964 109.264ZM457.812 109.296C457.812 107.973 457.545 106.821 457.012 105.84C456.479 104.859 455.753 104.112 454.836 103.6C453.94 103.067 452.948 102.8 451.86 102.8C450.772 102.8 449.78 103.056 448.884 103.568C447.988 104.08 447.273 104.827 446.74 105.808C446.207 106.789 445.94 107.941 445.94 109.264C445.94 110.608 446.207 111.781 446.74 112.784C447.273 113.765 447.988 114.523 448.884 115.056C449.78 115.568 450.772 115.824 451.86 115.824C452.948 115.824 453.94 115.568 454.836 115.056C455.753 114.523 456.479 113.765 457.012 112.784C457.545 111.781 457.812 110.619 457.812 109.296ZM469.229 102.96V113.296C469.229 114.149 469.41 114.757 469.773 115.12C470.136 115.461 470.765 115.632 471.661 115.632H473.805V118.096H471.181C469.56 118.096 468.344 117.723 467.533 116.976C466.722 116.229 466.317 115.003 466.317 113.296V102.96H464.045V100.56H466.317V96.1439H469.229V100.56H473.805V102.96H469.229ZM493.333 108.656C493.333 109.211 493.301 109.797 493.237 110.416H479.221C479.328 112.144 479.915 113.499 480.981 114.48C482.069 115.44 483.381 115.92 484.917 115.92C486.176 115.92 487.221 115.632 488.053 115.056C488.907 114.459 489.504 113.669 489.845 112.688H492.981C492.512 114.373 491.573 115.749 490.165 116.816C488.757 117.861 487.008 118.384 484.917 118.384C483.253 118.384 481.76 118.011 480.437 117.264C479.136 116.517 478.112 115.461 477.365 114.096C476.619 112.709 476.245 111.109 476.245 109.296C476.245 107.483 476.608 105.893 477.333 104.528C478.059 103.163 479.072 102.117 480.373 101.392C481.696 100.645 483.211 100.272 484.917 100.272C486.581 100.272 488.053 100.635 489.333 101.36C490.613 102.085 491.595 103.088 492.277 104.368C492.981 105.627 493.333 107.056 493.333 108.656ZM490.325 108.048C490.325 106.939 490.08 105.989 489.589 105.2C489.099 104.389 488.427 103.781 487.573 103.376C486.741 102.949 485.813 102.736 484.789 102.736C483.317 102.736 482.059 103.205 481.013 104.144C479.989 105.083 479.403 106.384 479.253 108.048H490.325ZM513.356 118.384C511.714 118.384 510.22 118.011 508.876 117.264C507.554 116.517 506.508 115.461 505.74 114.096C504.994 112.709 504.62 111.109 504.62 109.296C504.62 107.504 505.004 105.925 505.772 104.56C506.562 103.173 507.628 102.117 508.972 101.392C510.316 100.645 511.82 100.272 513.484 100.272C515.148 100.272 516.652 100.645 517.996 101.392C519.34 102.117 520.396 103.163 521.164 104.528C521.954 105.893 522.348 107.483 522.348 109.296C522.348 111.109 521.943 112.709 521.132 114.096C520.343 115.461 519.266 116.517 517.9 117.264C516.535 118.011 515.02 118.384 513.356 118.384ZM513.356 115.824C514.402 115.824 515.383 115.579 516.3 115.088C517.218 114.597 517.954 113.861 518.508 112.88C519.084 111.899 519.372 110.704 519.372 109.296C519.372 107.888 519.095 106.693 518.54 105.712C517.986 104.731 517.26 104.005 516.364 103.536C515.468 103.045 514.498 102.8 513.452 102.8C512.386 102.8 511.404 103.045 510.508 103.536C509.634 104.005 508.93 104.731 508.396 105.712C507.863 106.693 507.596 107.888 507.596 109.296C507.596 110.725 507.852 111.931 508.364 112.912C508.898 113.893 509.602 114.629 510.476 115.12C511.351 115.589 512.311 115.824 513.356 115.824ZM534.721 100.24C536.854 100.24 538.582 100.891 539.905 102.192C541.228 103.472 541.889 105.328 541.889 107.76V118.096H539.009V108.176C539.009 106.427 538.572 105.093 537.697 104.176C536.822 103.237 535.628 102.768 534.113 102.768C532.577 102.768 531.35 103.248 530.433 104.208C529.537 105.168 529.089 106.565 529.089 108.4V118.096H526.177V100.56H529.089V103.056C529.665 102.16 530.444 101.467 531.425 100.976C532.428 100.485 533.526 100.24 534.721 100.24ZM576.265 100.24C577.63 100.24 578.846 100.528 579.913 101.104C580.98 101.659 581.822 102.501 582.441 103.632C583.06 104.763 583.369 106.139 583.369 107.76V118.096H580.489V108.176C580.489 106.427 580.052 105.093 579.177 104.176C578.324 103.237 577.161 102.768 575.689 102.768C574.174 102.768 572.969 103.259 572.073 104.24C571.177 105.2 570.729 106.597 570.729 108.432V118.096H567.849V108.176C567.849 106.427 567.412 105.093 566.537 104.176C565.684 103.237 564.521 102.768 563.049 102.768C561.534 102.768 560.329 103.259 559.433 104.24C558.537 105.2 558.089 106.597 558.089 108.432V118.096H555.177V100.56H558.089V103.088C558.665 102.171 559.433 101.467 560.393 100.976C561.374 100.485 562.452 100.24 563.625 100.24C565.097 100.24 566.398 100.571 567.529 101.232C568.66 101.893 569.502 102.864 570.057 104.144C570.548 102.907 571.358 101.947 572.489 101.264C573.62 100.581 574.878 100.24 576.265 100.24ZM595.794 118.384C594.151 118.384 592.658 118.011 591.314 117.264C589.991 116.517 588.946 115.461 588.178 114.096C587.431 112.709 587.058 111.109 587.058 109.296C587.058 107.504 587.442 105.925 588.21 104.56C588.999 103.173 590.066 102.117 591.41 101.392C592.754 100.645 594.258 100.272 595.922 100.272C597.586 100.272 599.09 100.645 600.434 101.392C601.778 102.117 602.834 103.163 603.602 104.528C604.391 105.893 604.786 107.483 604.786 109.296C604.786 111.109 604.381 112.709 603.57 114.096C602.781 115.461 601.703 116.517 600.338 117.264C598.973 118.011 597.458 118.384 595.794 118.384ZM595.794 115.824C596.839 115.824 597.821 115.579 598.738 115.088C599.655 114.597 600.391 113.861 600.946 112.88C601.522 111.899 601.81 110.704 601.81 109.296C601.81 107.888 601.533 106.693 600.978 105.712C600.423 104.731 599.698 104.005 598.802 103.536C597.906 103.045 596.935 102.8 595.89 102.8C594.823 102.8 593.842 103.045 592.946 103.536C592.071 104.005 591.367 104.731 590.834 105.712C590.301 106.693 590.034 107.888 590.034 109.296C590.034 110.725 590.29 111.931 590.802 112.912C591.335 113.893 592.039 114.629 592.914 115.12C593.789 115.589 594.749 115.824 595.794 115.824ZM611.527 103.824C612.124 102.779 612.999 101.925 614.151 101.264C615.303 100.603 616.615 100.272 618.087 100.272C619.665 100.272 621.084 100.645 622.343 101.392C623.601 102.139 624.593 103.195 625.319 104.56C626.044 105.904 626.407 107.472 626.407 109.264C626.407 111.035 626.044 112.613 625.319 114C624.593 115.387 623.591 116.464 622.311 117.232C621.052 118 619.644 118.384 618.087 118.384C616.572 118.384 615.239 118.053 614.087 117.392C612.956 116.731 612.103 115.888 611.527 114.864V118.096H608.615V94.4159H611.527V103.824ZM623.431 109.264C623.431 107.941 623.164 106.789 622.631 105.808C622.097 104.827 621.372 104.08 620.455 103.568C619.559 103.056 618.567 102.8 617.479 102.8C616.412 102.8 615.42 103.067 614.503 103.6C613.607 104.112 612.881 104.869 612.327 105.872C611.793 106.853 611.527 107.995 611.527 109.296C611.527 110.619 611.793 111.781 612.327 112.784C612.881 113.765 613.607 114.523 614.503 115.056C615.42 115.568 616.412 115.824 617.479 115.824C618.567 115.824 619.559 115.568 620.455 115.056C621.372 114.523 622.097 113.765 622.631 112.784C623.164 111.781 623.431 110.608 623.431 109.264ZM631.744 97.7119C631.189 97.7119 630.72 97.5199 630.336 97.1359C629.952 96.7519 629.76 96.2826 629.76 95.7279C629.76 95.1732 629.952 94.7039 630.336 94.3199C630.72 93.9359 631.189 93.7439 631.744 93.7439C632.277 93.7439 632.725 93.9359 633.088 94.3199C633.472 94.7039 633.664 95.1732 633.664 95.7279C633.664 96.2826 633.472 96.7519 633.088 97.1359C632.725 97.5199 632.277 97.7119 631.744 97.7119ZM633.152 100.56V118.096H630.24V100.56H633.152ZM641.027 94.4159V118.096H638.115V94.4159H641.027ZM661.99 108.656C661.99 109.211 661.958 109.797 661.894 110.416H647.878C647.984 112.144 648.571 113.499 649.638 114.48C650.726 115.44 652.038 115.92 653.574 115.92C654.832 115.92 655.878 115.632 656.71 115.056C657.563 114.459 658.16 113.669 658.502 112.688H661.638C661.168 114.373 660.23 115.749 658.822 116.816C657.414 117.861 655.664 118.384 653.574 118.384C651.91 118.384 650.416 118.011 649.094 117.264C647.792 116.517 646.768 115.461 646.022 114.096C645.275 112.709 644.902 111.109 644.902 109.296C644.902 107.483 645.264 105.893 645.99 104.528C646.715 103.163 647.728 102.117 649.03 101.392C650.352 100.645 651.867 100.272 653.574 100.272C655.238 100.272 656.71 100.635 657.99 101.36C659.27 102.085 660.251 103.088 660.934 104.368C661.638 105.627 661.99 107.056 661.99 108.656ZM658.982 108.048C658.982 106.939 658.736 105.989 658.246 105.2C657.755 104.389 657.083 103.781 656.23 103.376C655.398 102.949 654.47 102.736 653.446 102.736C651.974 102.736 650.715 103.205 649.67 104.144C648.646 105.083 648.059 106.384 647.91 108.048H658.982ZM673.277 109.264C673.277 107.472 673.639 105.904 674.365 104.56C675.09 103.195 676.082 102.139 677.341 101.392C678.621 100.645 680.05 100.272 681.629 100.272C682.994 100.272 684.263 100.592 685.437 101.232C686.61 101.851 687.506 102.672 688.125 103.696V94.4159H691.069V118.096H688.125V114.8C687.549 115.845 686.695 116.709 685.565 117.392C684.434 118.053 683.111 118.384 681.597 118.384C680.039 118.384 678.621 118 677.341 117.232C676.082 116.464 675.09 115.387 674.365 114C673.639 112.613 673.277 111.035 673.277 109.264ZM688.125 109.296C688.125 107.973 687.858 106.821 687.325 105.84C686.791 104.859 686.066 104.112 685.149 103.6C684.253 103.067 683.261 102.8 682.173 102.8C681.085 102.8 680.093 103.056 679.197 103.568C678.301 104.08 677.586 104.827 677.053 105.808C676.519 106.789 676.253 107.941 676.253 109.264C676.253 110.608 676.519 111.781 677.053 112.784C677.586 113.765 678.301 114.523 679.197 115.056C680.093 115.568 681.085 115.824 682.173 115.824C683.261 115.824 684.253 115.568 685.149 115.056C686.066 114.523 686.791 113.765 687.325 112.784C687.858 111.781 688.125 110.619 688.125 109.296ZM711.99 108.656C711.99 109.211 711.958 109.797 711.894 110.416H697.878C697.984 112.144 698.571 113.499 699.638 114.48C700.726 115.44 702.038 115.92 703.574 115.92C704.832 115.92 705.878 115.632 706.71 115.056C707.563 114.459 708.16 113.669 708.502 112.688H711.638C711.168 114.373 710.23 115.749 708.822 116.816C707.414 117.861 705.664 118.384 703.574 118.384C701.91 118.384 700.416 118.011 699.094 117.264C697.792 116.517 696.768 115.461 696.022 114.096C695.275 112.709 694.902 111.109 694.902 109.296C694.902 107.483 695.264 105.893 695.99 104.528C696.715 103.163 697.728 102.117 699.03 101.392C700.352 100.645 701.867 100.272 703.574 100.272C705.238 100.272 706.71 100.635 707.99 101.36C709.27 102.085 710.251 103.088 710.934 104.368C711.638 105.627 711.99 107.056 711.99 108.656ZM708.982 108.048C708.982 106.939 708.736 105.989 708.246 105.2C707.755 104.389 707.083 103.781 706.23 103.376C705.398 102.949 704.47 102.736 703.446 102.736C701.974 102.736 700.715 103.205 699.67 104.144C698.646 105.083 698.059 106.384 697.91 108.048H708.982ZM722.361 115.408L727.801 100.56H730.905L724.025 118.096H720.633L713.753 100.56H716.889L722.361 115.408ZM735.275 97.7119C734.72 97.7119 734.251 97.5199 733.867 97.1359C733.483 96.7519 733.291 96.2826 733.291 95.7279C733.291 95.1732 733.483 94.7039 733.867 94.3199C734.251 93.9359 734.72 93.7439 735.275 93.7439C735.808 93.7439 736.256 93.9359 736.619 94.3199C737.003 94.7039 737.195 95.1732 737.195 95.7279C737.195 96.2826 737.003 96.7519 736.619 97.1359C736.256 97.5199 735.808 97.7119 735.275 97.7119ZM736.683 100.56V118.096H733.771V100.56H736.683ZM740.558 109.296C740.558 107.483 740.921 105.904 741.646 104.56C742.371 103.195 743.374 102.139 744.654 101.392C745.955 100.645 747.438 100.272 749.102 100.272C751.257 100.272 753.027 100.795 754.414 101.84C755.822 102.885 756.75 104.336 757.198 106.192H754.062C753.763 105.125 753.177 104.283 752.302 103.664C751.449 103.045 750.382 102.736 749.102 102.736C747.438 102.736 746.094 103.312 745.07 104.464C744.046 105.595 743.534 107.205 743.534 109.296C743.534 111.408 744.046 113.04 745.07 114.192C746.094 115.344 747.438 115.92 749.102 115.92C750.382 115.92 751.449 115.621 752.302 115.024C753.155 114.427 753.742 113.573 754.062 112.464H757.198C756.729 114.256 755.79 115.696 754.382 116.784C752.974 117.851 751.214 118.384 749.102 118.384C747.438 118.384 745.955 118.011 744.654 117.264C743.374 116.517 742.371 115.461 741.646 114.096C740.921 112.731 740.558 111.131 740.558 109.296ZM777.083 108.656C777.083 109.211 777.051 109.797 776.987 110.416H762.971C763.078 112.144 763.665 113.499 764.731 114.48C765.819 115.44 767.131 115.92 768.667 115.92C769.926 115.92 770.971 115.632 771.803 115.056C772.657 114.459 773.254 113.669 773.595 112.688H776.731C776.262 114.373 775.323 115.749 773.915 116.816C772.507 117.861 770.758 118.384 768.667 118.384C767.003 118.384 765.51 118.011 764.187 117.264C762.886 116.517 761.862 115.461 761.115 114.096C760.369 112.709 759.995 111.109 759.995 109.296C759.995 107.483 760.358 105.893 761.083 104.528C761.809 103.163 762.822 102.117 764.123 101.392C765.446 100.645 766.961 100.272 768.667 100.272C770.331 100.272 771.803 100.635 773.083 101.36C774.363 102.085 775.345 103.088 776.027 104.368C776.731 105.627 777.083 107.056 777.083 108.656ZM774.075 108.048C774.075 106.939 773.83 105.989 773.339 105.2C772.849 104.389 772.177 103.781 771.323 103.376C770.491 102.949 769.563 102.736 768.539 102.736C767.067 102.736 765.809 103.205 764.763 104.144C763.739 105.083 763.153 106.384 763.003 108.048H774.075ZM787.135 118.384C785.791 118.384 784.586 118.16 783.519 117.712C782.452 117.243 781.61 116.603 780.991 115.792C780.372 114.96 780.031 114.011 779.967 112.944H782.975C783.06 113.819 783.466 114.533 784.191 115.088C784.938 115.643 785.908 115.92 787.103 115.92C788.212 115.92 789.087 115.675 789.727 115.184C790.367 114.693 790.687 114.075 790.687 113.328C790.687 112.56 790.346 111.995 789.663 111.632C788.98 111.248 787.924 110.875 786.495 110.512C785.194 110.171 784.127 109.829 783.295 109.488C782.484 109.125 781.78 108.603 781.183 107.92C780.607 107.216 780.319 106.299 780.319 105.168C780.319 104.272 780.586 103.451 781.119 102.704C781.652 101.957 782.41 101.371 783.391 100.944C784.372 100.496 785.492 100.272 786.751 100.272C788.692 100.272 790.26 100.763 791.455 101.744C792.65 102.725 793.29 104.069 793.375 105.776H790.463C790.399 104.859 790.026 104.123 789.343 103.568C788.682 103.013 787.786 102.736 786.655 102.736C785.61 102.736 784.778 102.96 784.159 103.408C783.54 103.856 783.231 104.443 783.231 105.168C783.231 105.744 783.412 106.224 783.775 106.608C784.159 106.971 784.628 107.269 785.183 107.504C785.759 107.717 786.548 107.963 787.551 108.24C788.81 108.581 789.834 108.923 790.623 109.264C791.412 109.584 792.084 110.075 792.639 110.736C793.215 111.397 793.514 112.261 793.535 113.328C793.535 114.288 793.268 115.152 792.735 115.92C792.202 116.688 791.444 117.296 790.463 117.744C789.503 118.171 788.394 118.384 787.135 118.384Z" fill="#DFE3ED"/>
</svg>
