<svg width="18" height="18" viewBox="0 0 18 18" fill="#70778B" xmlns="http://www.w3.org/2000/svg">
<path d="M0.0947571 8.23438C0.156111 8.03084 0.265423 7.84501 0.413507 7.6925C0.526527 7.57056 0.67161 7.48292 0.832132 7.43963C0.753508 7.56394 0.68232 7.70738 0.629194 7.86037C0.569695 8.01656 0.531445 8.18338 0.519758 8.35656C0.50185 8.5062 0.50185 8.65743 0.519758 8.80706C0.5529 8.69615 0.603857 8.59137 0.670631 8.49681C0.802212 8.31899 0.978035 8.1787 1.18063 8.08988C1.40504 7.98882 1.6589 7.97437 1.89332 8.04931C2.12774 8.12424 2.32614 8.28327 2.45032 8.49575C2.50344 8.58288 2.54594 8.67744 2.57782 8.77838C3.83369 6.68738 6.09363 5.30294 8.67763 5.30294C8.80938 5.30294 8.94007 5.30613 9.0697 5.31356C9.87136 5.31506 10.669 5.42697 11.4401 5.64613C11.506 5.185 12.1116 4.25 14.8954 4.25L14.0454 6.91688C14.5799 7.34893 15.0292 7.87679 15.3703 8.47344L17.0204 8.5C17.0204 8.5 17.201 12.75 15.9579 12.75H15.3841C14.9935 13.4121 14.4709 13.9868 13.8488 14.4383L13.8329 17H12.6854C11.2935 17 10.6454 17 10.6454 16.2031V15.7888C9.57368 15.9873 8.47435 15.9845 7.4037 15.7803L7.45788 16.2031C7.45788 17 6.79913 17 5.39663 17H4.27038V14.4606C3.27409 13.7699 2.55708 12.7462 2.24845 11.5738C2.18788 11.5451 2.12732 11.5483 2.06569 11.5483C2.00407 11.5483 1.94351 11.5451 1.88295 11.5377C1.61626 11.4888 1.37295 11.3847 1.16151 11.237C0.875742 11.0348 0.65704 10.7517 0.533569 10.4242C0.503819 10.3254 0.481506 10.2213 0.466633 10.1139L0.465569 10.1033C0.230757 9.82494 0.0703201 9.47644 0.0203819 9.09288C-0.0230389 8.79978 0.00316811 8.50058 0.0968819 8.2195L0.0947571 8.23438ZM13.291 8.23438C13.0797 8.23438 12.877 8.31833 12.7275 8.46777C12.5781 8.61722 12.4941 8.81991 12.4941 9.03125C12.4941 9.24259 12.5781 9.44528 12.7275 9.59473C12.877 9.74417 13.0797 9.82812 13.291 9.82812C13.5024 9.82812 13.705 9.74417 13.8545 9.59473C14.0039 9.44528 14.0879 9.24259 14.0879 9.03125C14.0879 8.81991 14.0039 8.61722 13.8545 8.46777C13.705 8.31833 13.5024 8.23438 13.291 8.23438ZM10.7729 7.4375C10.8929 7.47598 11.0226 7.47074 11.1391 7.42271C11.2556 7.37467 11.3513 7.28694 11.4093 7.17506C11.4274 7.11931 11.4334 7.06037 11.4271 7.00211C11.4207 6.94386 11.402 6.88762 11.3723 6.83711C11.3425 6.7866 11.3025 6.74297 11.2546 6.7091C11.2068 6.67523 11.1523 6.65189 11.0948 6.64063C10.396 6.47306 9.67879 6.39452 8.96026 6.40688L8.85295 6.40581C8.13895 6.40581 7.4462 6.49081 6.78213 6.65231C6.64826 6.67781 6.50376 6.84569 6.50376 7.04756C6.50381 7.09051 6.51062 7.13318 6.52394 7.174C6.56114 7.24289 6.61361 7.30235 6.67733 7.34784C6.74105 7.39333 6.81433 7.42363 6.89157 7.43644H7.05413C7.64769 7.29351 8.25623 7.22217 8.86676 7.22394H8.96132C9.60413 7.22394 10.2289 7.3015 10.8271 7.44813L10.7729 7.4375ZM1.52913 10.5506C1.6725 10.6549 1.83667 10.727 2.01045 10.7621L2.14538 10.7631V10.2956C1.97007 10.4284 1.74801 10.5081 1.50788 10.5081H1.48557L1.52913 10.5506ZM1.44413 9.82812C1.5429 9.84197 1.6435 9.82386 1.73124 9.77645C1.81898 9.72905 1.88927 9.65482 1.93182 9.56463C1.98051 9.47184 2.00586 9.36859 2.00567 9.26381C2.00549 9.15902 1.97978 9.05586 1.93076 8.96325C1.88025 8.89333 1.80586 8.84434 1.72168 8.82554C1.63749 8.80675 1.54934 8.81945 1.47388 8.86125C1.37761 8.8982 1.29479 8.96348 1.23637 9.04845C1.17795 9.13343 1.14666 9.23413 1.14663 9.33725C1.12564 9.48457 1.126 9.63522 1.14769 9.78244C1.24638 9.80145 1.34688 9.80929 1.44732 9.80581L1.44413 9.82812Z" fill="inherit"/>
<path d="M9.05161 0.796875C8.84224 0.796945 8.63494 0.838251 8.44154 0.918436C8.24814 0.99862 8.07243 1.11611 7.92443 1.2642C7.77644 1.4123 7.65906 1.58809 7.57901 1.78154C7.49895 1.975 7.45779 2.18232 7.45786 2.39169C7.45793 2.60105 7.49923 2.80835 7.57942 3.00175C7.6596 3.19515 7.77709 3.37087 7.92518 3.51886C8.07328 3.66685 8.24907 3.78423 8.44252 3.86428C8.63598 3.94434 8.8433 3.98551 9.05267 3.98544C9.4755 3.9853 9.88095 3.81719 10.1798 3.51811C10.4787 3.21902 10.6466 2.81345 10.6464 2.39062C10.6463 1.9678 10.4782 1.56234 10.1791 1.26345C9.88 0.964567 9.47443 0.796734 9.05161 0.796875ZM9.05161 0C9.68564 0 10.2937 0.251869 10.742 0.700198C11.1904 1.14853 11.4422 1.75659 11.4422 2.39062C11.4422 3.02466 11.1904 3.63272 10.742 4.08105C10.2937 4.52938 9.68564 4.78125 9.05161 4.78125C8.41757 4.78125 7.80951 4.52938 7.36118 4.08105C6.91285 3.63272 6.66098 3.02466 6.66098 2.39062C6.66098 1.75659 6.91285 1.14853 7.36118 0.700198C7.80951 0.251869 8.41757 0 9.05161 0Z" fill="inherit"/>
<path d="M8.52036 1.87983V1.41699H9.32669V3.54199H8.80854V1.87983H8.52036Z" fill="inherit"/>
</svg>
