<svg width="257" height="78" viewBox="0 0 257 78" fill="none" xmlns="http://www.w3.org/2000/svg">
<path d="M28 54.2888L28.0004 32.7144L41.1142 45.7014L52.8756 34.1769L57.1943 38.6359L41.1771 54.2888L34.5145 47.859L28 54.2888Z" fill="#605DAA"/>
<path d="M45.6403 54.4579H54.3547L54.355 45.7859L45.6403 54.4579Z" fill="#605DAA"/>
<path d="M61.9846 39.5038L52.2068 29.542H61.985L61.9846 39.5038Z" fill="#605DAA"/>
<path d="M71.3061 49V38.0909H73.7635V39.9446H73.8913C74.1186 39.3196 74.495 38.8319 75.0206 38.4815C75.5461 38.1264 76.1735 37.9489 76.9027 37.9489C77.6413 37.9489 78.2639 38.1288 78.7706 38.4886C79.2819 38.8437 79.6418 39.3291 79.8501 39.9446H79.9637C80.2052 39.3385 80.6124 38.8556 81.1853 38.4957C81.763 38.1312 82.4472 37.9489 83.2379 37.9489C84.2417 37.9489 85.0608 38.2661 85.6953 38.9006C86.3297 39.535 86.647 40.4607 86.647 41.6776V49H84.0689V42.0753C84.0689 41.3982 83.8889 40.9034 83.5291 40.5909C83.1692 40.2737 82.7289 40.1151 82.2081 40.1151C81.5878 40.1151 81.1025 40.3092 80.7521 40.6974C80.4064 41.081 80.2336 41.5805 80.2336 42.196V49H77.7123V41.9688C77.7123 41.4053 77.5419 40.9555 77.201 40.6193C76.8648 40.2831 76.4244 40.1151 75.8799 40.1151C75.5106 40.1151 75.1744 40.2098 74.8714 40.3991C74.5684 40.5838 74.3269 40.8466 74.147 41.1875C73.9671 41.5237 73.8771 41.9167 73.8771 42.3665V49H71.3061ZM92.3945 49.2202C91.7032 49.2202 91.0806 49.0971 90.5266 48.8509C89.9774 48.5999 89.5417 48.2306 89.2198 47.7429C88.9025 47.2552 88.7439 46.6539 88.7439 45.9389C88.7439 45.3234 88.8576 44.8144 89.0848 44.4119C89.3121 44.0095 89.6222 43.6875 90.0152 43.446C90.4082 43.2045 90.8509 43.0223 91.3434 42.8991C91.8405 42.7713 92.3542 42.679 92.8845 42.6222C93.5238 42.5559 94.0422 42.4967 94.4399 42.4446C94.8377 42.3878 95.1265 42.3026 95.3064 42.1889C95.4911 42.0705 95.5834 41.8883 95.5834 41.642V41.5994C95.5834 41.0644 95.4248 40.6501 95.1076 40.3565C94.7903 40.063 94.3334 39.9162 93.7368 39.9162C93.1071 39.9162 92.6076 40.0535 92.2382 40.3281C91.8737 40.6027 91.6274 40.9271 91.4996 41.3011L89.099 40.9602C89.2884 40.2973 89.6009 39.7434 90.0365 39.2983C90.4721 38.8485 91.0048 38.5123 91.6345 38.2898C92.2643 38.0625 92.9603 37.9489 93.7226 37.9489C94.2482 37.9489 94.7714 38.0104 95.2922 38.1335C95.8131 38.2566 96.2889 38.4602 96.7198 38.7443C97.1506 39.0237 97.4963 39.4048 97.7567 39.8878C98.0219 40.3707 98.1544 40.9744 98.1544 41.6989V49H95.6828V47.5014H95.5976C95.4414 47.8045 95.2212 48.0885 94.9371 48.3537C94.6578 48.6141 94.305 48.8248 93.8789 48.9858C93.4575 49.142 92.9627 49.2202 92.3945 49.2202ZM93.0621 47.331C93.5782 47.331 94.0256 47.2292 94.4044 47.0256C94.7832 46.8172 95.0744 46.5426 95.278 46.2017C95.4863 45.8608 95.5905 45.4891 95.5905 45.0866V43.8011C95.51 43.8674 95.3727 43.929 95.1786 43.9858C94.9892 44.0426 94.7761 44.0923 94.5394 44.1349C94.3026 44.1776 94.0683 44.2154 93.8363 44.2486C93.6042 44.2817 93.403 44.3101 93.2326 44.3338C92.849 44.3859 92.5058 44.4711 92.2027 44.5895C91.8997 44.7079 91.6606 44.8736 91.4854 45.0866C91.3102 45.295 91.2226 45.5649 91.2226 45.8963C91.2226 46.3698 91.3954 46.7273 91.7411 46.9688C92.0867 47.2102 92.5271 47.331 93.0621 47.331ZM103.083 45.5767L103.076 42.473H103.488L107.409 38.0909H110.413L105.591 43.4602H105.058L103.083 45.5767ZM100.74 49V34.4545H103.311V49H100.74ZM107.586 49L104.035 44.0355L105.768 42.2244L110.662 49H107.586ZM116.507 49.2131C115.413 49.2131 114.468 48.9858 113.673 48.5312C112.882 48.072 112.274 47.4233 111.848 46.5852C111.421 45.7424 111.208 44.7505 111.208 43.6094C111.208 42.4872 111.421 41.5024 111.848 40.6548C112.278 39.8026 112.88 39.1397 113.652 38.6662C114.423 38.188 115.33 37.9489 116.372 37.9489C117.044 37.9489 117.679 38.0578 118.275 38.2756C118.877 38.4886 119.407 38.8201 119.866 39.2699C120.33 39.7197 120.695 40.2926 120.96 40.9886C121.225 41.6799 121.358 42.5038 121.358 43.4602V44.2486H112.416V42.5156H118.893C118.888 42.0232 118.782 41.5852 118.573 41.2017C118.365 40.8134 118.074 40.508 117.7 40.2855C117.331 40.063 116.9 39.9517 116.407 39.9517C115.882 39.9517 115.42 40.0795 115.022 40.3352C114.625 40.5862 114.314 40.9176 114.092 41.3295C113.874 41.7367 113.763 42.1842 113.758 42.6719V44.1847C113.758 44.8191 113.874 45.3636 114.106 45.8182C114.338 46.268 114.662 46.6136 115.079 46.8551C115.496 47.0919 115.984 47.2102 116.542 47.2102C116.916 47.2102 117.255 47.1581 117.558 47.054C117.861 46.9451 118.124 46.7865 118.346 46.5781C118.569 46.3698 118.737 46.1117 118.85 45.804L121.251 46.0739C121.1 46.7083 120.811 47.2623 120.385 47.7358C119.963 48.2045 119.423 48.5691 118.765 48.8295C118.107 49.0852 117.354 49.2131 116.507 49.2131ZM123.533 49V38.0909H125.99V39.9446H126.118C126.345 39.3196 126.722 38.8319 127.247 38.4815C127.773 38.1264 128.4 37.9489 129.129 37.9489C129.868 37.9489 130.49 38.1288 130.997 38.4886C131.508 38.8437 131.868 39.3291 132.077 39.9446H132.19C132.432 39.3385 132.839 38.8556 133.412 38.4957C133.99 38.1312 134.674 37.9489 135.464 37.9489C136.468 37.9489 137.287 38.2661 137.922 38.9006C138.556 39.535 138.874 40.4607 138.874 41.6776V49H136.295V42.0753C136.295 41.3982 136.115 40.9034 135.756 40.5909C135.396 40.2737 134.955 40.1151 134.435 40.1151C133.814 40.1151 133.329 40.3092 132.979 40.6974C132.633 41.081 132.46 41.5805 132.46 42.196V49H129.939V41.9688C129.939 41.4053 129.768 40.9555 129.428 40.6193C129.091 40.2831 128.651 40.1151 128.106 40.1151C127.737 40.1151 127.401 40.2098 127.098 40.3991C126.795 40.5838 126.553 40.8466 126.374 41.1875C126.194 41.5237 126.104 41.9167 126.104 42.3665V49H123.533ZM142.689 53.0909C142.339 53.0909 142.015 53.0625 141.716 53.0057C141.423 52.9536 141.188 52.892 141.013 52.821L141.61 50.8182C141.984 50.9271 142.318 50.9792 142.611 50.9744C142.905 50.9697 143.163 50.8774 143.385 50.6974C143.613 50.5223 143.804 50.2287 143.961 49.8168L144.181 49.2273L140.225 38.0909H142.952L145.466 46.3295H145.58L148.101 38.0909H150.836L146.468 50.321C146.264 50.8987 145.994 51.3935 145.658 51.8054C145.322 52.2221 144.91 52.5393 144.422 52.7571C143.939 52.9796 143.362 53.0909 142.689 53.0909ZM152.728 49V34.4545H155.299V39.8949H155.406C155.538 39.6297 155.725 39.348 155.967 39.0497C156.208 38.7467 156.535 38.4886 156.947 38.2756C157.359 38.0578 157.885 37.9489 158.524 37.9489C159.367 37.9489 160.127 38.1643 160.804 38.5952C161.485 39.0213 162.025 39.6534 162.423 40.4915C162.825 41.3248 163.027 42.3475 163.027 43.5597C163.027 44.7576 162.83 45.7756 162.437 46.6136C162.044 47.4517 161.509 48.0909 160.832 48.5312C160.155 48.9716 159.388 49.1918 158.531 49.1918C157.906 49.1918 157.387 49.0876 156.975 48.8793C156.564 48.6709 156.232 48.42 155.981 48.1264C155.735 47.8281 155.543 47.5464 155.406 47.2812H155.257V49H152.728ZM155.25 43.5455C155.25 44.2509 155.349 44.8688 155.548 45.3991C155.752 45.9295 156.043 46.3437 156.421 46.642C156.805 46.9356 157.269 47.0824 157.814 47.0824C158.382 47.0824 158.858 46.9309 159.241 46.6278C159.625 46.3201 159.913 45.901 160.108 45.3707C160.306 44.8357 160.406 44.2273 160.406 43.5455C160.406 42.8684 160.309 42.267 160.115 41.7415C159.921 41.2159 159.632 40.804 159.248 40.5057C158.865 40.2074 158.386 40.0582 157.814 40.0582C157.264 40.0582 156.798 40.2027 156.414 40.4915C156.031 40.7803 155.74 41.1851 155.541 41.706C155.347 42.2268 155.25 42.84 155.25 43.5455ZM172.165 44.4119V38.0909H174.736V49H172.244V47.0611H172.13C171.884 47.6719 171.479 48.1714 170.915 48.5597C170.357 48.9479 169.668 49.142 168.849 49.142C168.134 49.142 167.502 48.9834 166.952 48.6662C166.408 48.3442 165.982 47.8778 165.674 47.267C165.366 46.6515 165.212 45.9081 165.212 45.0369V38.0909H167.783V44.6392C167.783 45.3305 167.973 45.8797 168.352 46.2869C168.73 46.6941 169.227 46.8977 169.843 46.8977C170.222 46.8977 170.589 46.8054 170.944 46.6207C171.299 46.4361 171.59 46.1615 171.817 45.7969C172.049 45.4276 172.165 44.9659 172.165 44.4119ZM182.139 49.2131C181.05 49.2131 180.115 48.974 179.333 48.4957C178.557 48.0175 177.958 47.357 177.537 46.5142C177.12 45.6667 176.912 44.6913 176.912 43.5881C176.912 42.4801 177.125 41.5024 177.551 40.6548C177.977 39.8026 178.578 39.1397 179.355 38.6662C180.136 38.188 181.059 37.9489 182.125 37.9489C183.01 37.9489 183.794 38.1122 184.475 38.4389C185.162 38.7609 185.709 39.2178 186.116 39.8097C186.523 40.3968 186.755 41.0833 186.812 41.8693H184.355C184.255 41.3437 184.019 40.9058 183.644 40.5554C183.275 40.2003 182.78 40.0227 182.16 40.0227C181.635 40.0227 181.173 40.1648 180.775 40.4489C180.377 40.7282 180.067 41.1307 179.845 41.6562C179.627 42.1818 179.518 42.8116 179.518 43.5455C179.518 44.2888 179.627 44.928 179.845 45.4631C180.063 45.9934 180.368 46.4029 180.761 46.6918C181.159 46.9759 181.625 47.1179 182.16 47.1179C182.539 47.1179 182.877 47.0469 183.176 46.9048C183.479 46.758 183.732 46.5473 183.936 46.2727C184.139 45.9981 184.279 45.6643 184.355 45.2713H186.812C186.751 46.0431 186.523 46.7273 186.13 47.3239C185.737 47.9157 185.202 48.3797 184.525 48.7159C183.848 49.0473 183.053 49.2131 182.139 49.2131ZM191.267 45.5767L191.26 42.473H191.672L195.592 38.0909H198.597L193.774 43.4602H193.241L191.267 45.5767ZM188.923 49V34.4545H191.494V49H188.923ZM195.77 49L192.219 44.0355L193.952 42.2244L198.845 49H195.77ZM208.932 40.9744L206.588 41.2301C206.522 40.9934 206.406 40.7708 206.24 40.5625C206.079 40.3542 205.862 40.1861 205.587 40.0582C205.312 39.9304 204.976 39.8665 204.578 39.8665C204.043 39.8665 203.594 39.9825 203.229 40.2145C202.869 40.4465 202.692 40.7472 202.696 41.1165C202.692 41.4337 202.808 41.6918 203.044 41.8906C203.286 42.0895 203.684 42.2528 204.238 42.3807L206.098 42.7784C207.131 43.0009 207.898 43.3537 208.399 43.8366C208.906 44.3196 209.162 44.9517 209.167 45.733C209.162 46.4195 208.961 47.0256 208.563 47.5511C208.17 48.072 207.623 48.4792 206.922 48.7727C206.221 49.0663 205.417 49.2131 204.507 49.2131C203.172 49.2131 202.097 48.9337 201.283 48.375C200.469 47.8116 199.983 47.0279 199.827 46.0241L202.334 45.7827C202.448 46.2751 202.689 46.6468 203.059 46.8977C203.428 47.1487 203.908 47.2741 204.5 47.2741C205.111 47.2741 205.601 47.1487 205.97 46.8977C206.345 46.6468 206.532 46.3366 206.532 45.9673C206.532 45.6548 206.411 45.3968 206.169 45.1932C205.933 44.9896 205.563 44.8333 205.061 44.7244L203.201 44.3338C202.154 44.116 201.38 43.7491 200.878 43.233C200.376 42.7121 200.128 42.054 200.132 41.2585C200.128 40.5862 200.31 40.0038 200.679 39.5114C201.053 39.0142 201.572 38.6307 202.235 38.3608C202.902 38.0862 203.672 37.9489 204.543 37.9489C205.821 37.9489 206.827 38.2211 207.561 38.7656C208.3 39.3101 208.757 40.0464 208.932 40.9744Z" fill="#605DAA"/>
<rect y="76" width="257" height="1.01316" fill="#E9ECEF"/>
</svg>
