<svg width="18" height="18" viewBox="0 0 18 18" fill="#70778B" xmlns="http://www.w3.org/2000/svg">
<path fill-rule="evenodd" clip-rule="evenodd" d="M4.5 2.25C3.90326 2.25 3.33097 2.48705 2.90901 2.90901C2.48705 3.33097 2.25 3.90326 2.25 4.5V13.5C2.25 14.0967 2.48705 14.669 2.90901 15.091C3.33097 15.5129 3.90326 15.75 4.5 15.75H13.5C14.0967 15.75 14.669 15.5129 15.091 15.091C15.5129 14.669 15.75 14.0967 15.75 13.5V4.5C15.75 3.90326 15.5129 3.33097 15.091 2.90901C14.669 2.48705 14.0967 2.25 13.5 2.25H4.5ZM7.5 6C7.5 5.80109 7.57902 5.61032 7.71967 5.46967C7.86032 5.32902 8.05109 5.25 8.25 5.25H12.75C12.9489 5.25 13.1397 5.32902 13.2803 5.46967C13.421 5.61032 13.5 5.80109 13.5 6C13.5 6.19891 13.421 6.38968 13.2803 6.53033C13.1397 6.67098 12.9489 6.75 12.75 6.75H8.25C8.05109 6.75 7.86032 6.67098 7.71967 6.53033C7.57902 6.38968 7.5 6.19891 7.5 6ZM7.5 9C7.5 8.80109 7.57902 8.61032 7.71967 8.46967C7.86032 8.32902 8.05109 8.25 8.25 8.25H12.75C12.9489 8.25 13.1397 8.32902 13.2803 8.46967C13.421 8.61032 13.5 8.80109 13.5 9C13.5 9.19891 13.421 9.38968 13.2803 9.53033C13.1397 9.67098 12.9489 9.75 12.75 9.75H8.25C8.05109 9.75 7.86032 9.67098 7.71967 9.53033C7.57902 9.38968 7.5 9.19891 7.5 9ZM7.5 12C7.5 11.8011 7.57902 11.6103 7.71967 11.4697C7.86032 11.329 8.05109 11.25 8.25 11.25H12.75C12.9489 11.25 13.1397 11.329 13.2803 11.4697C13.421 11.6103 13.5 11.8011 13.5 12C13.5 12.1989 13.421 12.3897 13.2803 12.5303C13.1397 12.671 12.9489 12.75 12.75 12.75H8.25C8.05109 12.75 7.86032 12.671 7.71967 12.5303C7.57902 12.3897 7.5 12.1989 7.5 12ZM5.25 5.25C5.05109 5.25 4.86032 5.32902 4.71967 5.46967C4.57902 5.61032 4.5 5.80109 4.5 6C4.5 6.19891 4.57902 6.38968 4.71967 6.53033C4.86032 6.67098 5.05109 6.75 5.25 6.75C5.44891 6.75 5.64043 6.67098 5.78108 6.53033C5.92173 6.38968 6.00075 6.19891 6.00075 6C6.00075 5.80109 5.92173 5.61032 5.78108 5.46967C5.64043 5.32902 5.44891 5.25 5.25 5.25ZM4.5 9C4.5 8.80109 4.57902 8.61032 4.71967 8.46967C4.86032 8.32902 5.05109 8.25 5.25 8.25C5.44891 8.25 5.64043 8.32902 5.78108 8.46967C5.92173 8.61032 6.00075 8.80109 6.00075 9C6.00075 9.19891 5.92173 9.38968 5.78108 9.53033C5.64043 9.67098 5.44966 9.75 5.25075 9.75C5.05184 9.75 4.86032 9.67098 4.71967 9.53033C4.57902 9.38968 4.5 9.19891 4.5 9ZM5.25 11.25C5.05109 11.25 4.86032 11.329 4.71967 11.4697C4.57902 11.6103 4.5 11.8011 4.5 12C4.5 12.1989 4.57902 12.3897 4.71967 12.5303C4.86032 12.671 5.05109 12.75 5.25 12.75C5.44891 12.75 5.64043 12.671 5.78108 12.5303C5.92173 12.3897 6.00075 12.1989 6.00075 12C6.00075 11.8011 5.92173 11.6103 5.78108 11.4697C5.64043 11.329 5.44891 11.25 5.25 11.25Z" fill="inherit"/>
</svg>
