<svg width="18" height="18" viewBox="0 0 18 18" fill="#70778B" xmlns="http://www.w3.org/2000/svg">
<path d="M15.4716 11.9992C15.4132 11.9289 15.3559 11.8586 15.2996 11.7907C14.5262 10.8552 14.0583 10.2906 14.0583 7.64227C14.0583 6.27117 13.7303 5.14617 13.0837 4.30242C12.607 3.6791 11.9626 3.20625 11.1132 2.8568C11.1023 2.85072 11.0925 2.84274 11.0844 2.83324C10.7789 1.8102 9.94289 1.125 9 1.125C8.05711 1.125 7.22144 1.8102 6.91594 2.83219C6.90778 2.84134 6.89816 2.84906 6.88746 2.85504C4.90535 3.67102 3.94207 5.23652 3.94207 7.64121C3.94207 10.2906 3.47484 10.8552 2.7007 11.7896C2.64445 11.8575 2.58715 11.9264 2.52879 11.9981C2.37804 12.1799 2.28252 12.4011 2.25355 12.6355C2.22458 12.8699 2.26336 13.1077 2.36531 13.3207C2.58222 13.7777 3.04453 14.0614 3.57222 14.0614H14.4316C14.9569 14.0614 15.416 13.7781 15.6336 13.3232C15.736 13.1101 15.7752 12.8721 15.7464 12.6374C15.7177 12.4028 15.6223 12.1813 15.4716 11.9992ZM9 16.875C9.50802 16.8746 10.0065 16.7367 10.4424 16.4759C10.8784 16.2152 11.2357 15.8413 11.4764 15.3939C11.4877 15.3724 11.4933 15.3484 11.4927 15.3242C11.492 15.2999 11.485 15.2763 11.4725 15.2555C11.46 15.2347 11.4423 15.2176 11.4212 15.2056C11.4001 15.1937 11.3762 15.1875 11.352 15.1875H6.64875C6.62446 15.1874 6.60057 15.1936 6.5794 15.2055C6.55822 15.2174 6.54049 15.2346 6.52792 15.2554C6.51536 15.2761 6.50838 15.2998 6.50769 15.3241C6.50699 15.3484 6.51259 15.3724 6.52394 15.3939C6.7646 15.8412 7.12183 16.2151 7.55775 16.4758C7.99367 16.7366 8.49204 16.8745 9 16.875Z" fill="inherit"/>
</svg>
