<svg width="24" height="27" viewBox="0 0 24 27" fill="white" xmlns="http://www.w3.org/2000/svg">
<path d="M22.3593 13.0272C21.3853 11.8898 20.9427 10.9042 20.9427 9.22962V8.66026C20.9427 6.47813 20.4405 5.07217 19.3486 3.66621C17.6656 1.48274 14.8325 0.166748 12.0589 0.166748H11.941C9.22576 0.166748 6.48138 1.42231 4.76929 3.51715C3.61773 4.95131 3.05719 6.4177 3.05719 8.66026V9.22962C3.05719 10.9042 2.64375 11.8898 1.64061 13.0272C0.902502 13.8651 0.666626 14.9421 0.666626 16.1077C0.666626 17.2746 1.04959 18.3798 1.81818 19.2781C2.82132 20.3551 4.2379 21.0426 5.68496 21.1622C7.78002 21.4012 9.87508 21.4912 12.0006 21.4912C14.1248 21.4912 16.2199 21.3408 18.3163 21.1622C19.762 21.0426 21.1786 20.3551 22.1817 19.2781C22.949 18.3798 23.3333 17.2746 23.3333 16.1077C23.3333 14.9421 23.0974 13.8651 22.3593 13.0272Z" fill="inherit"/>
<path opacity="0.4" d="M14.6782 23.138C14.0117 22.9957 9.95009 22.9957 9.28354 23.138C8.71373 23.2696 8.09753 23.5758 8.09753 24.2472C8.13066 24.8877 8.50568 25.4531 9.02514 25.8116L9.02381 25.813C9.69566 26.3367 10.4841 26.6697 11.3097 26.7892C11.7496 26.8496 12.1975 26.847 12.6534 26.7892C13.4776 26.6697 14.2661 26.3367 14.938 25.813L14.9366 25.8116C15.4561 25.4531 15.8311 24.8877 15.8642 24.2472C15.8642 23.5758 15.248 23.2696 14.6782 23.138Z" fill="inherit"/>
</svg>
