<svg width="27" height="27" viewBox="0 0 27 27" fill="white" xmlns="http://www.w3.org/2000/svg">
<path d="M14.1322 6.75C6.98742 6.75 1.34995 14.0539 1.34995 14.0539C1.34995 14.0539 6.98742 21.3587 14.1322 21.3587C19.5955 21.3587 26.9145 14.0539 26.9145 14.0539C26.9145 14.0539 19.5955 6.75 14.1322 6.75ZM14.1322 18.6044C11.6231 18.6044 9.5808 16.563 9.5808 14.0539C9.5808 11.5448 11.6231 9.50245 14.1322 9.50245C16.6414 9.50245 18.6837 11.5448 18.6837 14.0539C18.6837 16.563 16.6414 18.6044 14.1322 18.6044ZM14.1322 11.3971C13.7792 11.3904 13.4283 11.4542 13.1002 11.5847C12.7721 11.7152 12.4733 11.9098 12.2213 12.1571C11.9692 12.4044 11.769 12.6995 11.6323 13.0251C11.4957 13.3507 11.4253 13.7003 11.4253 14.0534C11.4253 14.4065 11.4957 14.7561 11.6323 15.0817C11.769 15.4073 11.9692 15.7024 12.2213 15.9497C12.4733 16.1971 12.7721 16.3917 13.1002 16.5222C13.4283 16.6527 13.7792 16.7164 14.1322 16.7098C14.8281 16.6966 15.491 16.411 15.9784 15.9143C16.4658 15.4175 16.7389 14.7494 16.7389 14.0534C16.7389 13.3575 16.4658 12.6893 15.9784 12.1926C15.491 11.6958 14.8281 11.4102 14.1322 11.3971Z" fill="inherit"/>
</svg>
