<svg width="32" height="32" viewBox="0 0 32 32" fill="none" xmlns="http://www.w3.org/2000/svg">
<circle cx="16" cy="16" r="15.2727" fill="white" stroke="#232D42" stroke-width="1.45455"/>
<path d="M10.6611 22C10.5697 21.9998 10.4794 21.9807 10.3959 21.9437C10.3123 21.9067 10.2374 21.8528 10.1758 21.7853C10.1131 21.7183 10.0653 21.6389 10.0354 21.5522C10.0056 21.4655 9.9944 21.3734 10.0026 21.2821L10.1639 19.5077L17.6164 12.0558L19.9454 14.3848L12.4949 21.836L10.721 21.9974C10.7011 21.9992 10.6811 22.0001 10.6611 22ZM20.4103 13.9191L18.082 11.5902L19.4786 10.1932C19.5397 10.1319 19.6123 10.0834 19.6923 10.0502C19.7722 10.0171 19.8579 10 19.9444 10C20.031 10 20.1166 10.0171 20.1966 10.0502C20.2765 10.0834 20.3491 10.1319 20.4103 10.1932L21.8069 11.5902C21.8681 11.6513 21.9167 11.724 21.9498 11.8039C21.9829 11.8839 22 11.9696 22 12.0561C22 12.1427 21.9829 12.2284 21.9498 12.3084C21.9167 12.3883 21.8681 12.461 21.8069 12.5221L20.4109 13.9185L20.4103 13.9191Z" fill="#181710"/>
</svg>
