<svg width="32" height="32" viewBox="0 0 32 32" fill="#C8CBD9" xmlns="http://www.w3.org/2000/svg">
<path d="M12.7273 4H6.18182C4.97683 4 4 4.97683 4 6.18182V12.7273C4 13.9323 4.97683 14.9091 6.18182 14.9091H12.7273C13.9323 14.9091 14.9091 13.9323 14.9091 12.7273V6.18182C14.9091 4.97683 13.9323 4 12.7273 4Z" fill="inherit"/>
<path d="M12.7273 17.0908H6.18182C4.97683 17.0908 4 18.0677 4 19.2726V25.8181C4 27.0231 4.97683 27.9999 6.18182 27.9999H12.7273C13.9323 27.9999 14.9091 27.0231 14.9091 25.8181V19.2726C14.9091 18.0677 13.9323 17.0908 12.7273 17.0908Z" fill="inherit"/>
<path d="M25.8182 4H19.2727C18.0677 4 17.0909 4.97683 17.0909 6.18182V12.7273C17.0909 13.9323 18.0677 14.9091 19.2727 14.9091H25.8182C27.0232 14.9091 28 13.9323 28 12.7273V6.18182C28 4.97683 27.0232 4 25.8182 4Z" fill="inherit"/>
<path d="M18.1818 23.6363C18.4711 23.6363 18.7486 23.5213 18.9532 23.3168C19.1578 23.1122 19.2727 22.8347 19.2727 22.5454V18.1817C19.2727 17.8924 19.1578 17.6149 18.9532 17.4103C18.7486 17.2058 18.4711 17.0908 18.1818 17.0908C17.8925 17.0908 17.615 17.2058 17.4104 17.4103C17.2058 17.6149 17.0909 17.8924 17.0909 18.1817V22.5454C17.0909 22.8347 17.2058 23.1122 17.4104 23.3168C17.615 23.5213 17.8925 23.6363 18.1818 23.6363Z" fill="inherit"/>
<path d="M26.9091 19.2726H23.6364V18.1817C23.6364 17.8924 23.5214 17.6149 23.3168 17.4103C23.1123 17.2058 22.8348 17.0908 22.5455 17.0908C22.2561 17.0908 21.9786 17.2058 21.7741 17.4103C21.5695 17.6149 21.4545 17.8924 21.4545 18.1817V25.8181H18.1818C17.8925 25.8181 17.615 25.933 17.4104 26.1376C17.2058 26.3422 17.0909 26.6197 17.0909 26.909C17.0909 27.1983 17.2058 27.4758 17.4104 27.6804C17.615 27.885 17.8925 27.9999 18.1818 27.9999H22.5455C22.8348 27.9999 23.1123 27.885 23.3168 27.6804C23.5214 27.4758 23.6364 27.1983 23.6364 26.909V21.4545H26.9091C27.1984 21.4545 27.4759 21.3395 27.6805 21.1349C27.8851 20.9304 28 20.6529 28 20.3635C28 20.0742 27.8851 19.7967 27.6805 19.5922C27.4759 19.3876 27.1984 19.2726 26.9091 19.2726ZM26.9091 23.6363C26.6198 23.6363 26.3423 23.7512 26.1377 23.9558C25.9331 24.1604 25.8182 24.4379 25.8182 24.7272V26.909C25.8182 27.1983 25.9331 27.4758 26.1377 27.6804C26.3423 27.885 26.6198 27.9999 26.9091 27.9999C27.1984 27.9999 27.4759 27.885 27.6805 27.6804C27.8851 27.4758 28 27.1983 28 26.909V24.7272C28 24.4379 27.8851 24.1604 27.6805 23.9558C27.4759 23.7512 27.1984 23.6363 26.9091 23.6363Z" fill="inherit"/>
</svg>
