<svg width="18" height="18" viewBox="0 0 18 18" fill="#70778B" xmlns="http://www.w3.org/2000/svg">
<g clip-path="url(#clip0_15_1370)">
<path d="M10.5 9.75C10.6837 9.75002 10.861 9.81747 10.9983 9.93954C11.1356 10.0616 11.2233 10.2298 11.2448 10.4123L11.25 10.5V15C11.2498 15.1912 11.1766 15.375 11.0454 15.514C10.9141 15.653 10.7348 15.7367 10.544 15.7479C10.3531 15.7591 10.1652 15.697 10.0186 15.5743C9.87204 15.4516 9.77783 15.2776 9.75525 15.0878L9.75 15V10.5C9.75 10.3011 9.82902 10.1103 9.96967 9.96967C10.1103 9.82902 10.3011 9.75 10.5 9.75ZM12.75 13.125C12.9489 13.125 13.1397 13.204 13.2803 13.3447C13.421 13.4853 13.5 13.6761 13.5 13.875V15C13.5 15.1989 13.421 15.3897 13.2803 15.5303C13.1397 15.671 12.9489 15.75 12.75 15.75C12.5511 15.75 12.3603 15.671 12.2197 15.5303C12.079 15.3897 12 15.1989 12 15V13.875C12 13.6761 12.079 13.4853 12.2197 13.3447C12.3603 13.204 12.5511 13.125 12.75 13.125ZM15 9.75C15.1837 9.75002 15.361 9.81747 15.4983 9.93954C15.6356 10.0616 15.7233 10.2298 15.7448 10.4123L15.75 10.5V15C15.7498 15.1912 15.6766 15.375 15.5454 15.514C15.4141 15.653 15.2348 15.7367 15.044 15.7479C14.8531 15.7591 14.6652 15.697 14.5186 15.5743C14.372 15.4516 14.2778 15.2776 14.2552 15.0878L14.25 15V10.5C14.25 10.3011 14.329 10.1103 14.4697 9.96967C14.6103 9.82902 14.8011 9.75 15 9.75ZM6.75 9.75C7.14782 9.75 7.52936 9.90804 7.81066 10.1893C8.09196 10.4706 8.25 10.8522 8.25 11.25V14.25C8.25 14.6478 8.09196 15.0294 7.81066 15.3107C7.52936 15.592 7.14782 15.75 6.75 15.75H3.75C3.35218 15.75 2.97064 15.592 2.68934 15.3107C2.40804 15.0294 2.25 14.6478 2.25 14.25V11.25C2.25 10.8522 2.40804 10.4706 2.68934 10.1893C2.97064 9.90804 3.35218 9.75 3.75 9.75H6.75ZM12.75 9.75C12.9337 9.75002 13.111 9.81747 13.2483 9.93954C13.3856 10.0616 13.4733 10.2298 13.4948 10.4123L13.5 10.5V11.625C13.4998 11.8162 13.4266 12 13.2954 12.139C13.1641 12.278 12.9848 12.3617 12.794 12.3729C12.6031 12.3841 12.4152 12.322 12.2686 12.1993C12.122 12.0766 12.0278 11.9026 12.0052 11.7127L12 11.625V10.5C12 10.3011 12.079 10.1103 12.2197 9.96967C12.3603 9.82902 12.5511 9.75 12.75 9.75ZM6.75 2.25C7.14782 2.25 7.52936 2.40804 7.81066 2.68934C8.09196 2.97064 8.25 3.35218 8.25 3.75V6.75C8.25 7.14782 8.09196 7.52936 7.81066 7.81066C7.52936 8.09196 7.14782 8.25 6.75 8.25H3.75C3.35218 8.25 2.97064 8.09196 2.68934 7.81066C2.40804 7.52936 2.25 7.14782 2.25 6.75V3.75C2.25 3.35218 2.40804 2.97064 2.68934 2.68934C2.97064 2.40804 3.35218 2.25 3.75 2.25H6.75ZM14.25 2.25C14.6478 2.25 15.0294 2.40804 15.3107 2.68934C15.592 2.97064 15.75 3.35218 15.75 3.75V6.75C15.75 7.14782 15.592 7.52936 15.3107 7.81066C15.0294 8.09196 14.6478 8.25 14.25 8.25H11.25C10.8522 8.25 10.4706 8.09196 10.1893 7.81066C9.90804 7.52936 9.75 7.14782 9.75 6.75V3.75C9.75 3.35218 9.90804 2.97064 10.1893 2.68934C10.4706 2.40804 10.8522 2.25 11.25 2.25H14.25Z" fill="inherit"/>
</g>
<defs>
<clipPath id="clip0_15_1370">
<rect width="18" height="18" fill="white"/>
</clipPath>
</defs>
</svg>
