<svg width="18" height="18" viewBox="0 0 18 18" fill="#70778B" xmlns="http://www.w3.org/2000/svg">
<g clip-path="url(#clip0_3667_6363)">
<path d="M8.99934 3.33594C5.87507 3.33594 3.3335 5.87751 3.3335 9.00165C3.3335 12.1256 5.87507 14.6672 8.99934 14.6672C12.1233 14.6672 14.6649 12.1256 14.6649 9.00165C14.6649 5.87751 12.1233 3.33594 8.99934 3.33594ZM11.3103 7.89203C11.4567 7.89203 11.575 8.01054 11.575 8.15673C11.575 8.30291 11.4567 8.42144 11.3103 8.42144H10.4796C10.3183 9.12786 9.68609 9.65709 8.9316 9.65709H8.16721L9.6161 11.9484C9.69443 12.072 9.65748 12.2355 9.53391 12.3137C9.41067 12.3917 9.24695 12.3554 9.16891 12.2315L7.46307 9.53389C7.41134 9.45234 7.40825 9.34921 7.45478 9.26466C7.50132 9.18014 7.59023 9.12768 7.68666 9.12768H8.9316C9.39132 9.12768 9.77969 8.83155 9.92605 8.42144H7.68666C7.54033 8.42144 7.42196 8.30291 7.42196 8.15673C7.42196 8.01054 7.54033 7.89203 7.68666 7.89203H9.9734C9.88891 7.39174 9.45553 7.00847 8.9316 7.00847H7.68666C7.54033 7.00847 7.42196 6.88993 7.42196 6.74376C7.42196 6.59756 7.54033 6.47906 7.68666 6.47906H11.3103C11.4567 6.47906 11.575 6.59756 11.575 6.74376C11.575 6.88993 11.4567 7.00847 11.3103 7.00847H10.1148C10.3298 7.24824 10.4664 7.55535 10.5041 7.89203H11.3103Z" fill="inherit"/>
<path d="M8.99868 0.46875C4.29486 0.46875 0.467209 4.2964 0.467209 9.00022C0.467209 13.704 4.29486 17.5317 8.99868 17.5317C13.7051 17.5317 17.5328 13.704 17.5328 9.00022C17.5328 4.2964 13.7051 0.46875 8.99868 0.46875ZM8.99934 15.1952C5.58323 15.1952 2.80409 12.4162 2.80409 9.00025C2.80409 5.58427 5.58323 2.80512 8.99934 2.80512C12.4152 2.80512 15.1943 5.58427 15.1943 9.00025C15.1943 12.4162 12.4152 15.1952 8.99934 15.1952Z" fill="inherit"/>
</g>
<defs>
<clipPath id="clip0_3667_6363">
<rect width="18" height="18" fill="inherit"/>
</clipPath>
</defs>
</svg>
