<svg width="16" height="16" viewBox="0 0 16 16" fill="#70778B" xmlns="http://www.w3.org/2000/svg">
<path d="M8 15.5C12.1423 15.5 15.5 12.1423 15.5 8C15.5 3.85775 12.1423 0.5 8 0.5C3.85775 0.5 0.5 3.85775 0.5 8C0.5 12.1423 3.85775 15.5 8 15.5ZM9.125 5C9.371 5.327 9.54725 5.7095 9.63125 6.125H11V7.25H9.63125C9.50145 7.8852 9.15623 8.45608 8.65399 8.86607C8.15176 9.27605 7.52333 9.49999 6.875 9.5H6.7325L9.5225 12.29L8.7275 13.085L5 9.3575V8.375H6.875C7.22405 8.37511 7.56455 8.26697 7.84958 8.06549C8.13461 7.864 8.35015 7.57909 8.4665 7.25H5V6.125H8.4665C8.35005 5.79597 8.13449 5.51112 7.84948 5.30965C7.56447 5.10819 7.22403 5 6.875 5H5V3.875H11V5H9.125Z" fill="inherit"/>
</svg>
