<svg width="31" height="31" viewBox="0 0 31 31" fill="#A6A6B5" xmlns="http://www.w3.org/2000/svg">
<path d="M14.5944 0.869206C14.7678 0.303899 15.5681 0.303897 15.7416 0.869204L18.551 10.0244C18.8088 10.8643 19.5844 11.4377 20.463 11.4377H29.5719C30.1448 11.4377 30.3919 12.1639 29.9378 12.5133L22.4431 18.2788C21.7818 18.7875 21.5058 19.6532 21.7505 20.4507L24.6083 29.7634C24.7798 30.3222 24.1322 30.7714 23.6688 30.4149L16.3874 24.8135C15.6685 24.2605 14.6674 24.2605 13.9485 24.8135L6.6671 30.4149C6.20374 30.7714 5.55615 30.3222 5.72765 29.7634L8.5854 20.4507C8.83015 19.6532 8.55412 18.7875 7.89287 18.2788L0.398143 12.5133C-0.0559404 12.1639 0.191083 11.4377 0.763983 11.4377H9.87291C10.7515 11.4377 11.5272 10.8643 11.7849 10.0244L14.5944 0.869206Z" fill="inherit"/>
</svg>
