<svg width="32" height="31" viewBox="0 0 32 31" fill="#FF9533" xmlns="http://www.w3.org/2000/svg">
<path d="M16.9556 0.661857C16.8673 0.483792 16.7311 0.333922 16.5622 0.229144C16.3933 0.124366 16.1986 0.0688477 15.9998 0.0688477C15.8011 0.0688477 15.6063 0.124366 15.4374 0.229144C15.2686 0.333922 15.1323 0.483792 15.0441 0.661857L10.6772 9.50879L0.912888 10.9275C0.715874 10.9561 0.530799 11.0392 0.3786 11.1676C0.2264 11.2959 0.113151 11.4643 0.0516635 11.6536C-0.00982407 11.8429 -0.0170956 12.0457 0.0306714 12.239C0.0784384 12.4323 0.179338 12.6083 0.321954 12.7472L7.38755 19.6336L5.71929 29.3595C5.68582 29.5555 5.70781 29.7569 5.78278 29.9411C5.85775 30.1253 5.98272 30.2849 6.14357 30.4018C6.30442 30.5187 6.49475 30.5883 6.69308 30.6028C6.8914 30.6173 7.08983 30.576 7.26595 30.4837L15.9998 25.8907L24.7337 30.4837C24.9098 30.576 25.1082 30.6173 25.3066 30.6028C25.5049 30.5883 25.6952 30.5187 25.8561 30.4018C26.0169 30.2849 26.1419 30.1253 26.2169 29.9411C26.2918 29.7569 26.3138 29.5555 26.2804 29.3595L24.6121 19.6315L31.6777 12.7472C31.8203 12.6083 31.9212 12.4323 31.969 12.239C32.0167 12.0457 32.0095 11.8429 31.948 11.6536C31.8865 11.4643 31.7732 11.2959 31.621 11.1676C31.4688 11.0392 31.2838 10.9561 31.0868 10.9275L21.3225 9.50879L16.9556 0.661857Z" fill="inherit"/>
</svg>
