<svg width="115" height="122" viewBox="0 0 115 122" fill="#DAE0FF" xmlns="http://www.w3.org/2000/svg">
<path d="M59.4461 10.9092C59.5282 8.66477 57.7734 6.76371 55.5288 6.84079C45.4338 7.18742 35.583 10.1927 26.9891 15.5851C17.2446 21.6995 9.56685 30.6004 4.95397 41.1308C0.341084 51.6612 -0.993626 63.334 1.12333 74.632C3.24028 85.9301 8.71099 96.3308 16.8244 104.482C24.9377 112.634 35.3185 118.159 46.6174 120.34C57.9163 122.521 69.6108 121.257 80.1807 116.711C90.7507 112.166 99.7073 104.55 105.886 94.8531C111.334 86.304 114.401 76.4861 114.809 66.4086C114.899 64.1621 113.007 62.3942 110.759 62.463C108.512 62.5319 106.763 64.4124 106.646 66.6579C106.204 75.1019 103.587 83.3145 99.0171 90.4864C93.7153 98.8065 86.0303 105.341 76.9609 109.241C67.8915 113.141 57.8572 114.226 48.1624 112.355C38.4675 110.484 29.5604 105.743 22.5989 98.7486C15.6373 91.7543 10.9432 82.8301 9.12682 73.136C7.3104 63.4419 8.45563 53.4262 12.4136 44.3907C16.3717 35.3553 22.9594 27.718 31.3206 22.4716C38.5308 17.9474 46.7723 15.3815 55.2324 14.9919C57.4757 14.8885 59.364 13.1533 59.4461 10.9092Z" fill="inherit"/>
<path d="M53.5139 72.7804L102.675 24.2086C104.422 22.4829 107.215 22.4312 109.024 24.0911C110.969 25.8757 111.019 28.9271 109.133 30.7742L53.5138 85.2402L29.2714 61.4663C27.6546 59.8807 27.6418 57.2808 29.2428 55.6794C30.789 54.133 33.2804 54.0837 34.8864 55.5678L53.5139 72.7804Z" fill="inherit"/>
</svg>
