<svg width="114" height="64" viewBox="0 0 114 64" fill="none" xmlns="http://www.w3.org/2000/svg">
<path d="M62.1835 17.7898H51.8169C51.5279 17.778 51.244 17.7094 50.9816 17.5878C50.7192 17.4662 50.4833 17.294 50.2875 17.0812C50.0917 16.8683 49.9397 16.6189 49.8404 16.3473C49.741 16.0757 49.6962 15.7871 49.7085 15.4981V12.9981C49.7085 12.8324 49.7744 12.6734 49.8916 12.5562C50.0088 12.439 50.1678 12.3731 50.3335 12.3731C50.4993 12.3731 50.6583 12.439 50.7755 12.5562C50.8927 12.6734 50.9585 12.8324 50.9585 12.9981V15.4981C50.937 15.7456 51.0116 15.9918 51.1667 16.1858C51.3219 16.3797 51.5457 16.5065 51.7919 16.5398H62.1835C62.4297 16.5065 62.6535 16.3797 62.8087 16.1858C62.9638 15.9918 63.0384 15.7456 63.0169 15.4981V12.9981C63.0169 12.8324 63.0827 12.6734 63.1999 12.5562C63.3171 12.439 63.4761 12.3731 63.6419 12.3731C63.8076 12.3731 63.9666 12.439 64.0838 12.5562C64.201 12.6734 64.2669 12.8324 64.2669 12.9981V15.4981C64.2918 16.0776 64.0869 16.6435 63.6968 17.0727C63.3066 17.5019 62.7628 17.7596 62.1835 17.7898ZM60.3335 7.78981C60.2514 7.7902 60.17 7.77419 60.0942 7.7427C60.0184 7.71122 59.9496 7.66491 59.8919 7.60648L57.0002 4.71481L54.1085 7.60648C53.9901 7.71688 53.8333 7.77698 53.6714 7.77413C53.5095 7.77127 53.355 7.70568 53.2405 7.59117C53.126 7.47666 53.0604 7.32217 53.0576 7.16025C53.0547 6.99833 53.1148 6.84163 53.2252 6.72315L56.5585 3.38981C56.6757 3.27277 56.8346 3.20703 57.0002 3.20703C57.1658 3.20703 57.3247 3.27277 57.4419 3.38981L60.7752 6.72315C60.8922 6.84034 60.958 6.99919 60.958 7.16481C60.958 7.33044 60.8922 7.48929 60.7752 7.60648C60.7175 7.66491 60.6487 7.71122 60.5729 7.7427C60.497 7.77419 60.4156 7.7902 60.3335 7.78981Z" fill="#232D42"/>
<path d="M57 13.6237C56.8349 13.6215 56.6772 13.555 56.5604 13.4383C56.4437 13.3215 56.3772 13.1638 56.375 12.9987V3.83203C56.375 3.66627 56.4408 3.5073 56.5581 3.39009C56.6753 3.27288 56.8342 3.20703 57 3.20703C57.1658 3.20703 57.3247 3.27288 57.4419 3.39009C57.5592 3.5073 57.625 3.66627 57.625 3.83203V12.9987C57.6228 13.1638 57.5563 13.3215 57.4396 13.4383C57.3228 13.555 57.1651 13.6215 57 13.6237Z" fill="#232D42"/>
<path d="M2.83569 31.348V38.404C2.83569 39.396 3.07569 40.132 3.55569 40.612C4.04635 41.092 4.72369 41.332 5.58769 41.332C6.44102 41.332 7.10769 41.092 7.58769 40.612C8.07835 40.132 8.32369 39.396 8.32369 38.404V31.348H9.77969V38.388C9.77969 39.316 9.59302 40.1 9.21969 40.74C8.84635 41.3693 8.33969 41.8387 7.69969 42.148C7.07035 42.4573 6.36102 42.612 5.57169 42.612C4.78235 42.612 4.06769 42.4573 3.42769 42.148C2.79835 41.8387 2.29702 41.3693 1.92369 40.74C1.56102 40.1 1.37969 39.316 1.37969 38.388V31.348H2.83569ZM13.6646 35.348C13.9526 34.8467 14.3792 34.4307 14.9446 34.1C15.5206 33.7587 16.1872 33.588 16.9446 33.588C17.7232 33.588 18.4272 33.7747 19.0566 34.148C19.6966 34.5213 20.1979 35.0493 20.5606 35.732C20.9232 36.404 21.1046 37.188 21.1046 38.084C21.1046 38.9693 20.9232 39.7587 20.5606 40.452C20.1979 41.1453 19.6966 41.684 19.0566 42.068C18.4272 42.452 17.7232 42.644 16.9446 42.644C16.1979 42.644 15.5366 42.4787 14.9606 42.148C14.3952 41.8067 13.9632 41.3853 13.6646 40.884V46.66H12.2086V33.732H13.6646V35.348ZM19.6166 38.084C19.6166 37.4227 19.4832 36.8467 19.2166 36.356C18.9499 35.8653 18.5872 35.492 18.1286 35.236C17.6806 34.98 17.1846 34.852 16.6406 34.852C16.1072 34.852 15.6112 34.9853 15.1526 35.252C14.7046 35.508 14.3419 35.8867 14.0646 36.388C13.7979 36.8787 13.6646 37.4493 13.6646 38.1C13.6646 38.7613 13.7979 39.3427 14.0646 39.844C14.3419 40.3347 14.7046 40.7133 15.1526 40.98C15.6112 41.236 16.1072 41.364 16.6406 41.364C17.1846 41.364 17.6806 41.236 18.1286 40.98C18.5872 40.7133 18.9499 40.3347 19.2166 39.844C19.4832 39.3427 19.6166 38.756 19.6166 38.084ZM24.4771 30.66V42.5H23.0211V30.66H24.4771ZM30.7826 42.644C29.9612 42.644 29.2146 42.4573 28.5426 42.084C27.8812 41.7107 27.3586 41.1827 26.9746 40.5C26.6012 39.8067 26.4146 39.0067 26.4146 38.1C26.4146 37.204 26.6066 36.4147 26.9906 35.732C27.3852 35.0387 27.9186 34.5107 28.5906 34.148C29.2626 33.7747 30.0146 33.588 30.8466 33.588C31.6786 33.588 32.4306 33.7747 33.1026 34.148C33.7746 34.5107 34.3026 35.0333 34.6866 35.716C35.0812 36.3987 35.2786 37.1933 35.2786 38.1C35.2786 39.0067 35.0759 39.8067 34.6706 40.5C34.2759 41.1827 33.7372 41.7107 33.0546 42.084C32.3719 42.4573 31.6146 42.644 30.7826 42.644ZM30.7826 41.364C31.3052 41.364 31.7959 41.2413 32.2546 40.996C32.7132 40.7507 33.0812 40.3827 33.3586 39.892C33.6466 39.4013 33.7906 38.804 33.7906 38.1C33.7906 37.396 33.6519 36.7987 33.3746 36.308C33.0972 35.8173 32.7346 35.4547 32.2866 35.22C31.8386 34.9747 31.3532 34.852 30.8306 34.852C30.2972 34.852 29.8066 34.9747 29.3586 35.22C28.9212 35.4547 28.5692 35.8173 28.3026 36.308C28.0359 36.7987 27.9026 37.396 27.9026 38.1C27.9026 38.8147 28.0306 39.4173 28.2866 39.908C28.5532 40.3987 28.9052 40.7667 29.3426 41.012C29.7799 41.2467 30.2599 41.364 30.7826 41.364ZM36.6489 38.084C36.6489 37.188 36.8303 36.404 37.1929 35.732C37.5556 35.0493 38.0516 34.5213 38.6809 34.148C39.3209 33.7747 40.0303 33.588 40.8089 33.588C41.5769 33.588 42.2436 33.7533 42.8089 34.084C43.3743 34.4147 43.7956 34.8307 44.0729 35.332V33.732H45.5449V42.5H44.0729V40.868C43.7849 41.38 43.3529 41.8067 42.7769 42.148C42.2116 42.4787 41.5503 42.644 40.7929 42.644C40.0143 42.644 39.3103 42.452 38.6809 42.068C38.0516 41.684 37.5556 41.1453 37.1929 40.452C36.8303 39.7587 36.6489 38.9693 36.6489 38.084ZM44.0729 38.1C44.0729 37.4387 43.9396 36.8627 43.6729 36.372C43.4063 35.8813 43.0436 35.508 42.5849 35.252C42.1369 34.9853 41.6409 34.852 41.0969 34.852C40.5529 34.852 40.0569 34.98 39.6089 35.236C39.1609 35.492 38.8036 35.8653 38.5369 36.356C38.2703 36.8467 38.1369 37.4227 38.1369 38.084C38.1369 38.756 38.2703 39.3427 38.5369 39.844C38.8036 40.3347 39.1609 40.7133 39.6089 40.98C40.0569 41.236 40.5529 41.364 41.0969 41.364C41.6409 41.364 42.1369 41.236 42.5849 40.98C43.0436 40.7133 43.4063 40.3347 43.6729 39.844C43.9396 39.3427 44.0729 38.7613 44.0729 38.1ZM47.4614 38.084C47.4614 37.188 47.6428 36.404 48.0054 35.732C48.3681 35.0493 48.8641 34.5213 49.4934 34.148C50.1334 33.7747 50.8481 33.588 51.6374 33.588C52.3201 33.588 52.9548 33.748 53.5414 34.068C54.1281 34.3773 54.5761 34.788 54.8854 35.3V30.66H56.3574V42.5H54.8854V40.852C54.5974 41.3747 54.1708 41.8067 53.6054 42.148C53.0401 42.4787 52.3788 42.644 51.6214 42.644C50.8428 42.644 50.1334 42.452 49.4934 42.068C48.8641 41.684 48.3681 41.1453 48.0054 40.452C47.6428 39.7587 47.4614 38.9693 47.4614 38.084ZM54.8854 38.1C54.8854 37.4387 54.7521 36.8627 54.4854 36.372C54.2188 35.8813 53.8561 35.508 53.3974 35.252C52.9494 34.9853 52.4534 34.852 51.9094 34.852C51.3654 34.852 50.8694 34.98 50.4214 35.236C49.9734 35.492 49.6161 35.8653 49.3494 36.356C49.0828 36.8467 48.9494 37.4227 48.9494 38.084C48.9494 38.756 49.0828 39.3427 49.3494 39.844C49.6161 40.3347 49.9734 40.7133 50.4214 40.98C50.8694 41.236 51.3654 41.364 51.9094 41.364C52.4534 41.364 52.9494 41.236 53.3974 40.98C53.8561 40.7133 54.2188 40.3347 54.4854 39.844C54.7521 39.3427 54.8854 38.7613 54.8854 38.1ZM63.8356 32.308C63.5582 32.308 63.3236 32.212 63.1316 32.02C62.9396 31.828 62.8436 31.5933 62.8436 31.316C62.8436 31.0387 62.9396 30.804 63.1316 30.612C63.3236 30.42 63.5582 30.324 63.8356 30.324C64.1022 30.324 64.3262 30.42 64.5076 30.612C64.6996 30.804 64.7956 31.0387 64.7956 31.316C64.7956 31.5933 64.6996 31.828 64.5076 32.02C64.3262 32.212 64.1022 32.308 63.8356 32.308ZM64.5396 33.732V42.5H63.0836V33.732H64.5396ZM77.5651 33.572C78.2477 33.572 78.8557 33.716 79.3891 34.004C79.9224 34.2813 80.3437 34.7027 80.6531 35.268C80.9624 35.8333 81.1171 36.5213 81.1171 37.332V42.5H79.6771V37.54C79.6771 36.6653 79.4584 35.9987 79.0211 35.54C78.5944 35.0707 78.0131 34.836 77.2771 34.836C76.5197 34.836 75.9171 35.0813 75.4691 35.572C75.0211 36.052 74.7971 36.7507 74.7971 37.668V42.5H73.3571V37.54C73.3571 36.6653 73.1384 35.9987 72.7011 35.54C72.2744 35.0707 71.6931 34.836 70.9571 34.836C70.1997 34.836 69.5971 35.0813 69.1491 35.572C68.7011 36.052 68.4771 36.7507 68.4771 37.668V42.5H67.0211V33.732H68.4771V34.996C68.7651 34.5373 69.1491 34.1853 69.6291 33.94C70.1197 33.6947 70.6584 33.572 71.2451 33.572C71.9811 33.572 72.6317 33.7373 73.1971 34.068C73.7624 34.3987 74.1837 34.884 74.4611 35.524C74.7064 34.9053 75.1117 34.4253 75.6771 34.084C76.2424 33.7427 76.8717 33.572 77.5651 33.572ZM82.9614 38.084C82.9614 37.188 83.1428 36.404 83.5054 35.732C83.8681 35.0493 84.3641 34.5213 84.9934 34.148C85.6334 33.7747 86.3428 33.588 87.1214 33.588C87.8894 33.588 88.5561 33.7533 89.1214 34.084C89.6868 34.4147 90.1081 34.8307 90.3854 35.332V33.732H91.8574V42.5H90.3854V40.868C90.0974 41.38 89.6654 41.8067 89.0894 42.148C88.5241 42.4787 87.8628 42.644 87.1054 42.644C86.3268 42.644 85.6228 42.452 84.9934 42.068C84.3641 41.684 83.8681 41.1453 83.5054 40.452C83.1428 39.7587 82.9614 38.9693 82.9614 38.084ZM90.3854 38.1C90.3854 37.4387 90.2521 36.8627 89.9854 36.372C89.7188 35.8813 89.3561 35.508 88.8974 35.252C88.4494 34.9853 87.9534 34.852 87.4094 34.852C86.8654 34.852 86.3694 34.98 85.9214 35.236C85.4734 35.492 85.1161 35.8653 84.8494 36.356C84.5828 36.8467 84.4494 37.4227 84.4494 38.084C84.4494 38.756 84.5828 39.3427 84.8494 39.844C85.1161 40.3347 85.4734 40.7133 85.9214 40.98C86.3694 41.236 86.8654 41.364 87.4094 41.364C87.9534 41.364 88.4494 41.236 88.8974 40.98C89.3561 40.7133 89.7188 40.3347 89.9854 39.844C90.2521 39.3427 90.3854 38.7613 90.3854 38.1ZM97.9339 33.588C98.6913 33.588 99.3526 33.7533 99.9179 34.084C100.494 34.4147 100.921 34.8307 101.198 35.332V33.732H102.67V42.692C102.67 43.492 102.499 44.2013 102.158 44.82C101.817 45.4493 101.326 45.94 100.686 46.292C100.057 46.644 99.3206 46.82 98.4779 46.82C97.3259 46.82 96.3659 46.548 95.5979 46.004C94.8299 45.46 94.3766 44.7187 94.2379 43.78H95.6779C95.8379 44.3133 96.1686 44.74 96.6699 45.06C97.1713 45.3907 97.7739 45.556 98.4779 45.556C99.2779 45.556 99.9286 45.3053 100.43 44.804C100.942 44.3027 101.198 43.5987 101.198 42.692V40.852C100.91 41.364 100.483 41.7907 99.9179 42.132C99.3526 42.4733 98.6913 42.644 97.9339 42.644C97.1553 42.644 96.4459 42.452 95.8059 42.068C95.1766 41.684 94.6806 41.1453 94.3179 40.452C93.9553 39.7587 93.7739 38.9693 93.7739 38.084C93.7739 37.188 93.9553 36.404 94.3179 35.732C94.6806 35.0493 95.1766 34.5213 95.8059 34.148C96.4459 33.7747 97.1553 33.588 97.9339 33.588ZM101.198 38.1C101.198 37.4387 101.065 36.8627 100.798 36.372C100.531 35.8813 100.169 35.508 99.7099 35.252C99.2619 34.9853 98.7659 34.852 98.2219 34.852C97.6779 34.852 97.1819 34.98 96.7339 35.236C96.2859 35.492 95.9286 35.8653 95.6619 36.356C95.3953 36.8467 95.2619 37.4227 95.2619 38.084C95.2619 38.756 95.3953 39.3427 95.6619 39.844C95.9286 40.3347 96.2859 40.7133 96.7339 40.98C97.1819 41.236 97.6779 41.364 98.2219 41.364C98.7659 41.364 99.2619 41.236 99.7099 40.98C100.169 40.7133 100.531 40.3347 100.798 39.844C101.065 39.3427 101.198 38.7613 101.198 38.1ZM113.13 37.78C113.13 38.0573 113.114 38.3507 113.082 38.66H106.074C106.128 39.524 106.421 40.2013 106.954 40.692C107.498 41.172 108.154 41.412 108.922 41.412C109.552 41.412 110.074 41.268 110.49 40.98C110.917 40.6813 111.216 40.2867 111.386 39.796H112.954C112.72 40.6387 112.25 41.3267 111.546 41.86C110.842 42.3827 109.968 42.644 108.922 42.644C108.09 42.644 107.344 42.4573 106.682 42.084C106.032 41.7107 105.52 41.1827 105.146 40.5C104.773 39.8067 104.586 39.0067 104.586 38.1C104.586 37.1933 104.768 36.3987 105.13 35.716C105.493 35.0333 106 34.5107 106.65 34.148C107.312 33.7747 108.069 33.588 108.922 33.588C109.754 33.588 110.49 33.7693 111.13 34.132C111.77 34.4947 112.261 34.996 112.602 35.636C112.954 36.2653 113.13 36.98 113.13 37.78ZM111.626 37.476C111.626 36.9213 111.504 36.4467 111.258 36.052C111.013 35.6467 110.677 35.3427 110.25 35.14C109.834 34.9267 109.37 34.82 108.858 34.82C108.122 34.82 107.493 35.0547 106.97 35.524C106.458 35.9933 106.165 36.644 106.09 37.476H111.626Z" fill="#8A92A6"/>
<path d="M27.5939 52.58V59.5H26.6839V54.34L24.3839 59.5H23.7439L21.4339 54.33V59.5H20.5239V52.58H21.5039L24.0639 58.3L26.6239 52.58H27.5939ZM28.7972 56.74C28.7972 56.18 28.9105 55.69 29.1372 55.27C29.3639 54.8433 29.6739 54.5133 30.0672 54.28C30.4672 54.0467 30.9105 53.93 31.3972 53.93C31.8772 53.93 32.2939 54.0333 32.6472 54.24C33.0005 54.4467 33.2639 54.7067 33.4372 55.02V54.02H34.3572V59.5H33.4372V58.48C33.2572 58.8 32.9872 59.0667 32.6272 59.28C32.2739 59.4867 31.8605 59.59 31.3872 59.59C30.9005 59.59 30.4605 59.47 30.0672 59.23C29.6739 58.99 29.3639 58.6533 29.1372 58.22C28.9105 57.7867 28.7972 57.2933 28.7972 56.74ZM33.4372 56.75C33.4372 56.3367 33.3539 55.9767 33.1872 55.67C33.0205 55.3633 32.7939 55.13 32.5072 54.97C32.2272 54.8033 31.9172 54.72 31.5772 54.72C31.2372 54.72 30.9272 54.8 30.6472 54.96C30.3672 55.12 30.1439 55.3533 29.9772 55.66C29.8105 55.9667 29.7272 56.3267 29.7272 56.74C29.7272 57.16 29.8105 57.5267 29.9772 57.84C30.1439 58.1467 30.3672 58.3833 30.6472 58.55C30.9272 58.71 31.2372 58.79 31.5772 58.79C31.9172 58.79 32.2272 58.71 32.5072 58.55C32.7939 58.3833 33.0205 58.1467 33.1872 57.84C33.3539 57.5267 33.4372 57.1633 33.4372 56.75ZM38.755 59.5L37.455 57.46L36.205 59.5H35.255L37.025 56.78L35.255 54.02H36.285L37.585 56.05L38.825 54.02H39.775L38.015 56.73L39.785 59.5H38.755ZM45.2862 59.59C44.8662 59.59 44.4895 59.52 44.1562 59.38C43.8228 59.2333 43.5595 59.0333 43.3662 58.78C43.1728 58.52 43.0662 58.2233 43.0462 57.89H43.9862C44.0128 58.1633 44.1395 58.3867 44.3662 58.56C44.5995 58.7333 44.9028 58.82 45.2762 58.82C45.6228 58.82 45.8962 58.7433 46.0962 58.59C46.2962 58.4367 46.3962 58.2433 46.3962 58.01C46.3962 57.77 46.2895 57.5933 46.0762 57.48C45.8628 57.36 45.5328 57.2433 45.0862 57.13C44.6795 57.0233 44.3462 56.9167 44.0862 56.81C43.8328 56.6967 43.6128 56.5333 43.4262 56.32C43.2462 56.1 43.1562 55.8133 43.1562 55.46C43.1562 55.18 43.2395 54.9233 43.4062 54.69C43.5728 54.4567 43.8095 54.2733 44.1162 54.14C44.4228 54 44.7728 53.93 45.1662 53.93C45.7728 53.93 46.2628 54.0833 46.6362 54.39C47.0095 54.6967 47.2095 55.1167 47.2362 55.65H46.3262C46.3062 55.3633 46.1895 55.1333 45.9762 54.96C45.7695 54.7867 45.4895 54.7 45.1362 54.7C44.8095 54.7 44.5495 54.77 44.3562 54.91C44.1628 55.05 44.0662 55.2333 44.0662 55.46C44.0662 55.64 44.1228 55.79 44.2362 55.91C44.3562 56.0233 44.5028 56.1167 44.6762 56.19C44.8562 56.2567 45.1028 56.3333 45.4162 56.42C45.8095 56.5267 46.1295 56.6333 46.3762 56.74C46.6228 56.84 46.8328 56.9933 47.0062 57.2C47.1862 57.4067 47.2795 57.6767 47.2862 58.01C47.2862 58.31 47.2028 58.58 47.0362 58.82C46.8695 59.06 46.6328 59.25 46.3262 59.39C46.0262 59.5233 45.6795 59.59 45.2862 59.59ZM49.0408 53.13C48.8674 53.13 48.7208 53.07 48.6008 52.95C48.4808 52.83 48.4208 52.6833 48.4208 52.51C48.4208 52.3367 48.4808 52.19 48.6008 52.07C48.7208 51.95 48.8674 51.89 49.0408 51.89C49.2074 51.89 49.3474 51.95 49.4608 52.07C49.5808 52.19 49.6408 52.3367 49.6408 52.51C49.6408 52.6833 49.5808 52.83 49.4608 52.95C49.3474 53.07 49.2074 53.13 49.0408 53.13ZM49.4808 54.02V59.5H48.5708V54.02H49.4808ZM51.7117 58.75H54.4017V59.5H50.6717V58.75L53.3317 54.76H50.6917V54.02H54.3817V54.76L51.7117 58.75ZM60.5825 56.55C60.5825 56.7233 60.5725 56.9067 60.5525 57.1H56.1725C56.2058 57.64 56.3892 58.0633 56.7225 58.37C57.0625 58.67 57.4725 58.82 57.9525 58.82C58.3458 58.82 58.6725 58.73 58.9325 58.55C59.1992 58.3633 59.3858 58.1167 59.4925 57.81H60.4725C60.3258 58.3367 60.0325 58.7667 59.5925 59.1C59.1525 59.4267 58.6058 59.59 57.9525 59.59C57.4325 59.59 56.9658 59.4733 56.5525 59.24C56.1458 59.0067 55.8258 58.6767 55.5925 58.25C55.3592 57.8167 55.2425 57.3167 55.2425 56.75C55.2425 56.1833 55.3558 55.6867 55.5825 55.26C55.8092 54.8333 56.1258 54.5067 56.5325 54.28C56.9458 54.0467 57.4192 53.93 57.9525 53.93C58.4725 53.93 58.9325 54.0433 59.3325 54.27C59.7325 54.4967 60.0392 54.81 60.2525 55.21C60.4725 55.6033 60.5825 56.05 60.5825 56.55ZM59.6425 56.36C59.6425 56.0133 59.5658 55.7167 59.4125 55.47C59.2592 55.2167 59.0492 55.0267 58.7825 54.9C58.5225 54.7667 58.2325 54.7 57.9125 54.7C57.4525 54.7 57.0592 54.8467 56.7325 55.14C56.4125 55.4333 56.2292 55.84 56.1825 56.36H59.6425ZM64.2797 54.09C64.3264 53.4767 64.563 52.9967 64.9897 52.65C65.4164 52.3033 65.9697 52.13 66.6497 52.13C67.103 52.13 67.493 52.2133 67.8197 52.38C68.153 52.54 68.403 52.76 68.5697 53.04C68.743 53.32 68.8297 53.6367 68.8297 53.99C68.8297 54.4033 68.7097 54.76 68.4697 55.06C68.2364 55.36 67.9297 55.5533 67.5497 55.64V55.69C67.983 55.7967 68.3264 56.0067 68.5797 56.32C68.833 56.6333 68.9597 57.0433 68.9597 57.55C68.9597 57.93 68.873 58.2733 68.6997 58.58C68.5264 58.88 68.2664 59.1167 67.9197 59.29C67.573 59.4633 67.1564 59.55 66.6697 59.55C65.963 59.55 65.383 59.3667 64.9297 59C64.4764 58.6267 64.223 58.1 64.1697 57.42H65.0497C65.0964 57.82 65.2597 58.1467 65.5397 58.4C65.8197 58.6533 66.193 58.78 66.6597 58.78C67.1264 58.78 67.4797 58.66 67.7197 58.42C67.9664 58.1733 68.0897 57.8567 68.0897 57.47C68.0897 56.97 67.923 56.61 67.5897 56.39C67.2564 56.17 66.753 56.06 66.0797 56.06H65.8497V55.3H66.0897C66.703 55.2933 67.1664 55.1933 67.4797 55C67.793 54.8 67.9497 54.4933 67.9497 54.08C67.9497 53.7267 67.833 53.4433 67.5997 53.23C67.373 53.0167 67.0464 52.91 66.6197 52.91C66.2064 52.91 65.873 53.0167 65.6197 53.23C65.3664 53.4433 65.2164 53.73 65.1697 54.09H64.2797ZM70.1884 55.81C70.1884 54.6633 70.375 53.77 70.7484 53.13C71.1217 52.4833 71.775 52.16 72.7084 52.16C73.635 52.16 74.285 52.4833 74.6584 53.13C75.0317 53.77 75.2184 54.6633 75.2184 55.81C75.2184 56.9767 75.0317 57.8833 74.6584 58.53C74.285 59.1767 73.635 59.5 72.7084 59.5C71.775 59.5 71.1217 59.1767 70.7484 58.53C70.375 57.8833 70.1884 56.9767 70.1884 55.81ZM74.3184 55.81C74.3184 55.23 74.2784 54.74 74.1984 54.34C74.125 53.9333 73.9684 53.6067 73.7284 53.36C73.495 53.1133 73.155 52.99 72.7084 52.99C72.255 52.99 71.9084 53.1133 71.6684 53.36C71.435 53.6067 71.2784 53.9333 71.1984 54.34C71.125 54.74 71.0884 55.23 71.0884 55.81C71.0884 56.41 71.125 56.9133 71.1984 57.32C71.2784 57.7267 71.435 58.0533 71.6684 58.3C71.9084 58.5467 72.255 58.67 72.7084 58.67C73.155 58.67 73.495 58.5467 73.7284 58.3C73.9684 58.0533 74.125 57.7267 74.1984 57.32C74.2784 56.9133 74.3184 56.41 74.3184 55.81ZM76.4677 55.81C76.4677 54.6633 76.6543 53.77 77.0277 53.13C77.401 52.4833 78.0543 52.16 78.9877 52.16C79.9143 52.16 80.5643 52.4833 80.9377 53.13C81.311 53.77 81.4977 54.6633 81.4977 55.81C81.4977 56.9767 81.311 57.8833 80.9377 58.53C80.5643 59.1767 79.9143 59.5 78.9877 59.5C78.0543 59.5 77.401 59.1767 77.0277 58.53C76.6543 57.8833 76.4677 56.9767 76.4677 55.81ZM80.5977 55.81C80.5977 55.23 80.5577 54.74 80.4777 54.34C80.4043 53.9333 80.2477 53.6067 80.0077 53.36C79.7743 53.1133 79.4343 52.99 78.9877 52.99C78.5343 52.99 78.1877 53.1133 77.9477 53.36C77.7143 53.6067 77.5577 53.9333 77.4777 54.34C77.4043 54.74 77.3677 55.23 77.3677 55.81C77.3677 56.41 77.4043 56.9133 77.4777 57.32C77.5577 57.7267 77.7143 58.0533 77.9477 58.3C78.1877 58.5467 78.5343 58.67 78.9877 58.67C79.4343 58.67 79.7743 58.5467 80.0077 58.3C80.2477 58.0533 80.4043 57.7267 80.4777 57.32C80.5577 56.9133 80.5977 56.41 80.5977 55.81ZM86.677 59.5L83.807 56.32V59.5H82.897V52.53H83.807V55.76L86.687 52.53H87.837L84.677 56.02L87.867 59.5H86.677ZM92.3733 55.91C92.6266 55.95 92.8566 56.0533 93.0633 56.22C93.2766 56.3867 93.4433 56.5933 93.5633 56.84C93.6899 57.0867 93.7533 57.35 93.7533 57.63C93.7533 57.9833 93.6633 58.3033 93.4833 58.59C93.3033 58.87 93.0399 59.0933 92.6933 59.26C92.3533 59.42 91.9499 59.5 91.4833 59.5H88.8833V52.53H91.3833C91.8566 52.53 92.2599 52.61 92.5933 52.77C92.9266 52.9233 93.1766 53.1333 93.3433 53.4C93.5099 53.6667 93.5933 53.9667 93.5933 54.3C93.5933 54.7133 93.4799 55.0567 93.2533 55.33C93.0333 55.5967 92.7399 55.79 92.3733 55.91ZM89.7933 55.54H91.3233C91.7499 55.54 92.0799 55.44 92.3133 55.24C92.5466 55.04 92.6633 54.7633 92.6633 54.41C92.6633 54.0567 92.5466 53.78 92.3133 53.58C92.0799 53.38 91.7433 53.28 91.3033 53.28H89.7933V55.54ZM91.4033 58.75C91.8566 58.75 92.2099 58.6433 92.4633 58.43C92.7166 58.2167 92.8433 57.92 92.8433 57.54C92.8433 57.1533 92.7099 56.85 92.4433 56.63C92.1766 56.4033 91.8199 56.29 91.3733 56.29H89.7933V58.75H91.4033Z" fill="#8A92A6"/>
</svg>
