<svg width="33" height="32" viewBox="0 0 33 32" fill="none" xmlns="http://www.w3.org/2000/svg">
<path fill-rule="evenodd" clip-rule="evenodd" d="M19.4998 3.33333C19.4998 3.24493 19.4647 3.16014 19.4022 3.09763C19.3397 3.03512 19.2549 3 19.1665 3H9.83317C8.86071 3 7.92808 3.38631 7.24045 4.07394C6.55281 4.76158 6.1665 5.69421 6.1665 6.66667V25.3333C6.1665 26.3058 6.55281 27.2384 7.24045 27.9261C7.92808 28.6137 8.86071 29 9.83317 29H23.1665C24.139 29 25.0716 28.6137 25.7592 27.9261C26.4469 27.2384 26.8332 26.3058 26.8332 25.3333V12.196C26.8332 12.1076 26.798 12.0228 26.7355 11.9603C26.673 11.8978 26.5882 11.8627 26.4998 11.8627H20.4998C20.2346 11.8627 19.9803 11.7573 19.7927 11.5698C19.6052 11.3822 19.4998 11.1279 19.4998 10.8627V3.33333ZM19.2078 17.7813C19.4151 17.9472 19.6797 18.0239 19.9435 17.9947C20.2073 17.9654 20.4487 17.8326 20.6145 17.6253C20.7804 17.4181 20.8571 17.1535 20.8278 16.8897C20.7986 16.6259 20.6657 16.3845 20.4585 16.2187L17.1332 13.5587C16.9553 13.413 16.7324 13.3334 16.5025 13.3333H16.4918C16.2661 13.3347 16.0474 13.4127 15.8718 13.5547L12.5425 16.2187C12.3353 16.3843 12.2024 16.6255 12.173 16.8892C12.1436 17.1529 12.2202 17.4174 12.3858 17.6247C12.5515 17.8319 12.7927 17.9648 13.0564 17.9942C13.3201 18.0236 13.5846 17.947 13.7918 17.7813L15.4998 16.4133V21C15.4998 21.1313 15.5257 21.2614 15.576 21.3827C15.6262 21.504 15.6999 21.6143 15.7927 21.7071C15.8856 21.8 15.9958 21.8736 16.1172 21.9239C16.2385 21.9741 16.3685 22 16.4998 22C16.6312 22 16.7612 21.9741 16.8825 21.9239C17.0038 21.8736 17.1141 21.8 17.2069 21.7071C17.2998 21.6143 17.3735 21.504 17.4237 21.3827C17.474 21.2614 17.4998 21.1313 17.4998 21V16.4133L19.2078 17.7813Z" fill="#02AF1E"/>
<path d="M21.5 3.76544C21.5 3.5201 21.7573 3.36411 21.948 3.51744C22.1093 3.64811 22.2547 3.80011 22.3787 3.97344L26.396 9.56944C26.4867 9.69744 26.388 9.86277 26.2307 9.86277H21.8333C21.7449 9.86277 21.6601 9.82765 21.5976 9.76514C21.5351 9.70263 21.5 9.61784 21.5 9.52944V3.76544Z" fill="#02AF1E"/>
</svg>
