<svg width="18" height="18" viewBox="0 0 18 18" fill="#70778B" xmlns="http://www.w3.org/2000/svg">
<path d="M8.96175 10.9048C6.37426 10.9048 4.19104 11.3276 4.19104 12.9594C4.19104 14.5919 6.38836 14.9998 8.96175 14.9998C11.5492 14.9998 13.7325 14.577 13.7325 12.9452C13.7325 11.3127 11.5351 10.9048 8.96175 10.9048Z" fill="inherit"/>
<path opacity="0.4" d="M8.96178 9.35027C10.7139 9.35027 12.1187 7.9373 12.1187 6.17514C12.1187 4.4123 10.7139 3 8.96178 3C7.2097 3 5.80481 4.4123 5.80481 6.17514C5.80481 7.9373 7.2097 9.35027 8.96178 9.35027Z" fill="inherit"/>
<path opacity="0.4" d="M15.8159 6.9143C16.2692 5.1312 14.9402 3.52979 13.2479 3.52979C13.0639 3.52979 12.888 3.55005 12.716 3.58449C12.6932 3.5899 12.6677 3.60138 12.6543 3.62164C12.6388 3.64731 12.6502 3.68175 12.667 3.70404C13.1754 4.42134 13.4675 5.29465 13.4675 6.23213C13.4675 7.13043 13.1996 7.96795 12.7295 8.66296C12.6811 8.73455 12.7241 8.83113 12.8094 8.84599C12.9276 8.86693 13.0485 8.87774 13.172 8.88111C14.4043 8.91354 15.5104 8.11587 15.8159 6.9143Z" fill="inherit"/>
<path d="M17.1069 11.1128C16.8813 10.6292 16.3367 10.2976 15.5086 10.1348C15.1178 10.0389 14.0601 9.90384 13.0763 9.92208C13.0615 9.92411 13.0534 9.93424 13.0521 9.94099C13.0501 9.95045 13.0541 9.96666 13.0736 9.97679C13.5282 10.2031 15.2857 11.1871 15.0647 13.2627C15.0553 13.3525 15.1272 13.4302 15.2165 13.4167C15.649 13.3545 16.7618 13.1141 17.1069 12.3651C17.2977 11.9693 17.2977 11.5093 17.1069 11.1128Z" fill="inherit"/>
<path opacity="0.4" d="M5.28356 3.58498C5.11232 3.54986 4.9357 3.53027 4.75169 3.53027C3.05938 3.53027 1.73038 5.13169 2.18435 6.91479C2.48923 8.11636 3.59528 8.91402 4.82758 8.8816C4.95114 8.87823 5.0727 8.86674 5.19022 8.84648C5.2755 8.83162 5.31848 8.73504 5.27013 8.66344C4.80005 7.96776 4.5321 7.13092 4.5321 6.23262C4.5321 5.29446 4.82489 4.42115 5.33326 3.70453C5.34938 3.68224 5.36146 3.6478 5.34535 3.62213C5.33191 3.60119 5.30707 3.59039 5.28356 3.58498Z" fill="inherit"/>
<path d="M2.49117 10.1343C1.66314 10.2971 1.11919 10.6287 0.893544 11.1123C0.702152 11.5088 0.702152 11.9687 0.893544 12.3652C1.23872 13.1135 2.35148 13.3547 2.78396 13.4161C2.87328 13.4296 2.94446 13.3526 2.93506 13.2621C2.71412 11.1873 4.47157 10.2032 4.92689 9.97691C4.94569 9.9661 4.94972 9.95057 4.9477 9.94044C4.94636 9.93368 4.93897 9.92355 4.9242 9.9222C3.9397 9.90329 2.88268 10.0384 2.49117 10.1343Z" fill="inherit"/>
</svg>
