<svg width="36" height="33" viewBox="0 0 36 33" fill="none" xmlns="http://www.w3.org/2000/svg">
<path d="M21.8299 2.75938C20.1649 -0.253125 15.8349 -0.253125 14.1699 2.75938L1.05363 26.5081C-0.556375 29.4231 1.55363 32.9981 4.88363 32.9981H31.1174C34.4474 32.9981 36.5574 29.4231 34.9461 26.5081L21.8299 2.75938ZM19.5624 25.4981C19.5624 25.9125 19.3978 26.31 19.1047 26.603C18.8117 26.896 18.4143 27.0606 17.9999 27.0606C17.5855 27.0606 17.188 26.896 16.895 26.603C16.602 26.31 16.4374 25.9125 16.4374 25.4981C16.4374 25.0837 16.602 24.6863 16.895 24.3933C17.188 24.1002 17.5855 23.9356 17.9999 23.9356C18.4143 23.9356 18.8117 24.1002 19.1047 24.3933C19.3978 24.6863 19.5624 25.0837 19.5624 25.4981ZM17.9999 9.24813C18.3314 9.24813 18.6493 9.37982 18.8838 9.61424C19.1182 9.84866 19.2499 10.1666 19.2499 10.4981V20.4981C19.2499 20.8296 19.1182 21.1476 18.8838 21.382C18.6493 21.6164 18.3314 21.7481 17.9999 21.7481C17.6684 21.7481 17.3504 21.6164 17.116 21.382C16.8816 21.1476 16.7499 20.8296 16.7499 20.4981V10.4981C16.7499 10.1666 16.8816 9.84866 17.116 9.61424C17.3504 9.37982 17.6684 9.24813 17.9999 9.24813Z" fill="#FF9634"/>
</svg>
